<?xml version="1.0" encoding="UTF-8" standalone="no"?>
<svg
   width="752pt"
   height="752pt"
   version="1.1"
   viewBox="0 0 752 752"
   id="svg8"
   sodipodi:docname="physics_particles.svg"
   inkscape:version="1.1 (c68e22c387, 2021-05-23)"
   xmlns:inkscape="http://www.inkscape.org/namespaces/inkscape"
   xmlns:sodipodi="http://sodipodi.sourceforge.net/DTD/sodipodi-0.dtd"
   xmlns="http://www.w3.org/2000/svg"
   xmlns:svg="http://www.w3.org/2000/svg">
  <defs
     id="defs12" />
  <sodipodi:namedview
     id="namedview10"
     pagecolor="#ffffff"
     bordercolor="#666666"
     borderopacity="1.0"
     inkscape:pageshadow="2"
     inkscape:pageopacity="0.0"
     inkscape:pagecheckerboard="0"
     inkscape:document-units="pt"
     showgrid="false"
     inkscape:zoom="0.14527659"
     inkscape:cx="-1022.1881"
     inkscape:cy="-719.31753"
     inkscape:window-width="1920"
     inkscape:window-height="1009"
     inkscape:window-x="-8"
     inkscape:window-y="-8"
     inkscape:window-maximized="1"
     inkscape:current-layer="svg8" />
  <g
     id="g6"
     transform="matrix(1.5574021,0,0,1.5574021,-201.41997,-209.67983)">
    <path
       d="m 572.06,424.31 c -6.6289,-15.156 -15.625,-28.891 -25.57,-41.203 -1.8945,-2.3672 -3.7891,-4.2617 -5.6836,-6.6289 15.629,-19.418 29.363,-41.203 35.047,-68.195 0.94531,-4.2617 1.4219,-8.5234 0.94531,-12.785 v -6.6289 l -1.4219,-6.6289 c -1.8945,-8.9961 -6.1562,-17.523 -12.312,-24.152 -12.785,-13.734 -30.309,-19.418 -45.938,-21.785 -32.203,-4.2617 -63.461,1.8945 -93.297,10.418 -4.2617,1.4219 -7.1055,6.1562 -6.1562,10.418 1.4219,4.7344 6.1562,7.1055 10.418,6.1562 28.414,-7.5781 58.25,-12.785 85.719,-8.5234 13.734,1.8945 26.52,7.1055 34.57,16.102 8.0508,8.9961 9.9453,21.312 7.1055,34.098 -4.2617,19.891 -15.629,38.832 -29.363,55.883 -14.68,-15.629 -31.258,-29.363 -48.305,-42.148 -25.102,-18.469 -51.621,-34.57 -79.562,-47.832 -26.047,-12.312 -53.043,-22.73 -81.457,-29.363 0.47266,-1.4219 0.94531,-2.3672 1.4219,-3.7891 5.6836,-13.262 11.84,-26.047 20.363,-36.465 8.0508,-10.418 18.469,-18.941 28.414,-21.785 10.418,-3.3164 20.836,0 30.309,7.5781 9.473,7.5781 17.523,18.941 24.152,31.258 3.7891,6.6289 12.312,8.9961 19.418,5.2109 6.6289,-3.7891 8.9961,-12.312 5.2109,-19.418 -8.0508,-14.207 -17.523,-27.941 -32.203,-39.309 -7.1055,-5.6836 -15.629,-10.418 -25.102,-12.785 -9.4727,-2.8398 -19.891,-1.8945 -29.363,0.47266 -18.941,5.6836 -32.203,18.941 -42.148,32.203 -10.418,13.262 -17.051,27.941 -23.207,42.621 -0.94531,2.8398 -1.8945,5.6836 -2.8398,8.5234 -24.625,-3.7891 -50.672,-4.7344 -76.246,3.7891 -4.2617,1.4219 -8.0508,2.8398 -11.84,5.6836 -1.8945,0.94531 -3.7891,2.3672 -5.6836,3.3164 l -5.2109,4.2617 c -6.6289,6.1562 -12.312,14.207 -14.68,22.73 -4.2578,18.941 -0.46875,36.461 5.6875,51.617 12.312,30.309 33.152,53.988 55.41,75.773 3.3164,3.3164 8.5234,3.3164 11.84,0 3.3166,-3.3164 3.3164,-8.9961 0,-12.312 -20.836,-20.836 -39.781,-44.043 -50.199,-70.09 -4.7344,-12.785 -7.1055,-26.52 -3.3164,-37.887 3.7891,-11.367 13.734,-19.418 26.047,-23.68 19.418,-6.6289 41.203,-5.6836 62.984,-2.3672 -6.1562,20.836 -9.9453,41.676 -12.312,62.512 -3.3164,30.781 -3.7891,62.039 -1.8945,92.82 2.3672,28.414 7.1055,57.305 15.156,85.246 -1.4219,0 -2.3672,0.47266 -3.7891,0.47266 -14.207,1.8945 -28.414,2.3672 -41.676,0.47266 -13.262,-1.8945 -25.574,-6.1562 -33.152,-13.734 -7.5781,-7.1055 -10.418,-17.996 -8.5234,-29.836 1.8945,-12.312 7.5781,-24.625 14.68,-36.465 3.7891,-6.6289 1.8945,-15.629 -5.2109,-19.418 -7.1055,-3.7891 -15.629,-1.8945 -19.418,5.2109 -8.0508,14.207 -15.629,29.363 -17.996,47.359 -0.94531,8.9961 -0.94531,18.469 1.8945,27.941 2.3672,9.4727 8.5234,18.469 15.156,25.102 14.68,13.734 32.203,18.469 48.777,20.363 16.574,2.3672 32.676,0.94531 48.777,-1.4219 2.8398,-0.47266 5.6836,-0.94531 8.5234,-1.4219 8.9961,23.207 20.836,46.41 41.676,64.406 3.3164,2.8398 6.6289,5.2109 10.418,7.5781 1.8945,0.94531 3.7891,2.3672 5.6836,3.3164 l 6.6289,2.3672 c 8.5234,2.8398 18.469,3.3164 27.469,1.4219 18.469,-4.2617 31.73,-16.574 41.676,-28.887 19.891,-26.047 30.309,-55.883 37.887,-85.719 0.94531,-4.7344 -1.4219,-8.9961 -6.1562,-10.418 -4.7344,-1.4219 -9.4727,1.4219 -10.418,6.1562 -7.5781,28.414 -17.996,56.828 -35.52,78.613 -8.5234,10.891 -19.418,19.418 -31.258,21.785 -11.367,2.3672 -23.68,-2.3672 -33.152,-10.891 -15.156,-13.262 -25.574,-32.676 -33.625,-53.516 20.836,-5.2109 41.203,-12.312 60.617,-20.836 28.414,-12.312 55.41,-27.469 80.98,-44.988 23.68,-16.102 45.938,-34.57 66.301,-55.41 0.94531,0.94531 1.8945,1.8945 2.3672,2.8398 8.5234,11.367 16.574,23.207 21.312,35.992 5.2109,12.312 7.5781,25.574 4.7344,35.52 -2.3672,10.418 -10.418,17.996 -21.785,22.258 -11.367,4.7344 -25.102,5.6836 -38.832,5.2109 -8.0508,0 -14.207,6.1562 -14.207,14.207 0,8.0508 6.1562,14.207 14.207,14.207 16.102,0 33.152,-1.4219 50.199,-8.0508 8.5234,-3.3164 16.574,-8.5234 23.68,-15.629 7.1055,-7.1055 11.84,-16.574 14.207,-25.574 2.8555,-19.895 -1.8828,-37.891 -8.0391,-53.516 z m -126.92,8.0508 c -24.625,16.102 -50.672,30.309 -77.668,41.676 -18.941,8.0508 -38.832,14.68 -58.723,18.941 -7.5781,-26.992 -11.84,-54.934 -13.734,-82.875 -1.8945,-29.363 -0.94531,-59.199 2.8398,-88.086 2.8398,-20.363 7.1055,-40.727 12.785,-60.617 26.992,6.6289 53.516,17.051 78.613,29.836 26.52,13.262 51.621,28.887 74.824,46.41 16.574,12.785 32.203,26.52 45.938,41.676 -19.41,19.887 -41.668,37.41 -64.875,53.039 z"
       id="path2" />
    <path
       d="m 376.48,322.96 c -30.309,0 -54.934,24.625 -54.934,54.934 -0.004,30.309 24.621,54.938 54.934,54.938 30.309,0 54.934,-24.625 54.934,-54.934 0,-30.312 -24.625,-54.938 -54.934,-54.938 z m 0,39.305 c -8.5234,0 -15.629,7.1055 -15.629,15.629 0,5.2109 -4.2617,9.4727 -9.4727,9.4727 -5.211,0 -9.4727,-4.2617 -9.4727,-9.4727 0,-18.941 15.629,-34.57 34.57,-34.57 5.2109,0 9.4727,4.2617 9.4727,9.4727 0,5.207 -4.2617,9.4688 -9.4688,9.4688 z"
       id="path4" />
  </g>
</svg>
