<?xml version="1.0" encoding="UTF-8" standalone="no"?>
<svg
   width="752pt"
   height="752pt"
   version="1.1"
   viewBox="0 0 752 752"
   id="svg82"
   sodipodi:docname="administration.svg"
   inkscape:version="1.1 (c68e22c387, 2021-05-23)"
   xmlns:inkscape="http://www.inkscape.org/namespaces/inkscape"
   xmlns:sodipodi="http://sodipodi.sourceforge.net/DTD/sodipodi-0.dtd"
   xmlns="http://www.w3.org/2000/svg"
   xmlns:svg="http://www.w3.org/2000/svg">
  <defs
     id="defs86" />
  <sodipodi:namedview
     id="namedview84"
     pagecolor="#ffffff"
     bordercolor="#666666"
     borderopacity="1.0"
     inkscape:pageshadow="2"
     inkscape:pageopacity="0.0"
     inkscape:pagecheckerboard="0"
     inkscape:document-units="pt"
     showgrid="false"
     inkscape:zoom="0.41090426"
     inkscape:cx="964.94498"
     inkscape:cy="553.65696"
     inkscape:window-width="1920"
     inkscape:window-height="1009"
     inkscape:window-x="-8"
     inkscape:window-y="-8"
     inkscape:window-maximized="1"
     inkscape:current-layer="svg82" />
  <g
     id="g80"
     transform="matrix(1.6043332,0,0,1.6043332,-226.96761,-229.96777)">
    <path
       d="M 542.5,579.49 H 524 V 376 c 0,-5.1094 -4.1406,-9.25 -9.25,-9.25 H 487 v -92.496 c 0,-5.1094 -4.1406,-9.25 -9.25,-9.25 h -18.621 c -2.25,-43.223 -35.887,-78.281 -78.5,-82.758 v -18.984 c 0,-5.1094 -4.1406,-9.25 -9.25,-9.25 -5.1094,0 -9.25,4.1406 -9.25,9.25 v 18.984 c -42.609,4.4766 -76.25,39.535 -78.5,82.762 h -18.617 c -5.1094,0 -9.25,4.1406 -9.25,9.25 v 92.496 l -27.75,-0.004 c -5.1094,0 -9.25,4.1406 -9.25,9.25 v 203.49 h -18.5 c -5.1094,0 -9.25,4.1406 -9.25,9.25 0,5.1094 4.1406,9.25 9.25,9.25 h 342.23 c 5.1094,0 9.25,-4.1406 9.25,-9.25 0.004,-5.1055 -4.1406,-9.25 -9.2461,-9.25 z M 310.09,237.17 c 1.25,0.15625 -0.91797,0.0469 38.164,0.082 5.1094,0 9.25,-4.1406 9.25,-9.25 0,-5.1094 -4.1406,-9.25 -9.25,-9.25 h -23.977 c 12.379,-11.473 28.934,-18.5 47.102,-18.5 26.562,0 49.68,15.016 61.332,37 h -56.707 c -5.1094,0 -9.25,4.1406 -9.25,9.25 0,5.1094 4.1406,9.25 9.25,9.25 h 63.34 c 0.61719,3.0195 1.0469,6.1055 1.2539,9.25 h -138.44 c 0.66016,-10.004 3.4609,-19.426 7.9297,-27.832 z m -35.832,46.328 h 194.24 v 83.246 h -194.24 z m 231.24,101.75 v 157.24 l -101.75,0.004 v -18.5 c 0,-5.1094 -4.1406,-9.25 -9.25,-9.25 h -46.25 c -5.1094,0 -9.25,4.1406 -9.25,9.25 v 18.5 h -101.74 v -157.25 h 268.24 z m -268.24,175.74 h 101.75 v 18.5 h -101.75 z m 120.25,18.5 v -46.25 h 27.75 v 46.25 z m 46.246,0 v -18.5 h 101.75 v 18.5 z"
       id="path2" />
    <path
       d="m 265.01,403.75 h 18.5 v 27.75 h -18.5 z"
       id="path4" />
    <path
       d="m 292.75,292.75 h 18.5 v 27.75 h -18.5 z"
       id="path6" />
    <path
       d="M 320.5,292.75 H 339 v 27.75 h -18.5 z"
       id="path8" />
    <path
       d="m 348.25,292.75 h 18.5 v 27.75 h -18.5 z"
       id="path10" />
    <path
       d="m 376,292.75 h 18.5 V 320.5 H 376 Z"
       id="path12" />
    <path
       d="m 403.75,292.75 h 18.5 v 27.75 h -18.5 z"
       id="path14" />
    <path
       d="M 431.5,292.75 H 450 v 27.75 h -18.5 z"
       id="path16" />
    <path
       d="m 292.75,329.75 h 18.5 v 27.75 h -18.5 z"
       id="path18" />
    <path
       d="M 320.5,329.75 H 339 v 27.75 h -18.5 z"
       id="path20" />
    <path
       d="m 348.25,329.75 h 18.5 v 27.75 h -18.5 z"
       id="path22" />
    <path
       d="m 376,329.75 h 18.5 V 357.5 H 376 Z"
       id="path24" />
    <path
       d="m 403.75,329.75 h 18.5 v 27.75 h -18.5 z"
       id="path26" />
    <path
       d="M 431.5,329.75 H 450 v 27.75 h -18.5 z"
       id="path28" />
    <path
       d="m 292.75,403.75 h 18.5 v 27.75 h -18.5 z"
       id="path30" />
    <path
       d="M 320.5,403.75 H 339 v 27.75 h -18.5 z"
       id="path32" />
    <path
       d="m 348.25,403.75 h 18.5 v 27.75 h -18.5 z"
       id="path34" />
    <path
       d="m 376,403.75 h 18.5 V 431.5 H 376 Z"
       id="path36" />
    <path
       d="m 403.75,403.75 h 18.5 v 27.75 h -18.5 z"
       id="path38" />
    <path
       d="M 431.5,403.75 H 450 v 27.75 h -18.5 z"
       id="path40" />
    <path
       d="m 459.25,403.75 h 18.5 v 27.75 h -18.5 z"
       id="path42" />
    <path
       d="m 265.01,440.75 h 18.5 v 27.75 h -18.5 z"
       id="path44" />
    <path
       d="m 292.75,440.75 h 18.5 v 27.75 h -18.5 z"
       id="path46" />
    <path
       d="M 320.5,440.75 H 339 v 27.75 h -18.5 z"
       id="path48" />
    <path
       d="m 348.25,440.75 h 18.5 v 27.75 h -18.5 z"
       id="path50" />
    <path
       d="m 376,440.75 h 18.5 V 468.5 H 376 Z"
       id="path52" />
    <path
       d="m 403.75,440.75 h 18.5 v 27.75 h -18.5 z"
       id="path54" />
    <path
       d="M 431.5,440.75 H 450 v 27.75 h -18.5 z"
       id="path56" />
    <path
       d="m 459.25,440.75 h 18.5 v 27.75 h -18.5 z"
       id="path58" />
    <path
       d="m 265.01,477.75 h 18.5 v 27.75 h -18.5 z"
       id="path60" />
    <path
       d="m 292.75,477.75 h 18.5 v 27.75 h -18.5 z"
       id="path62" />
    <path
       d="M 320.5,477.75 H 339 v 27.75 h -18.5 z"
       id="path64" />
    <path
       d="m 348.25,477.75 h 18.5 v 27.75 h -18.5 z"
       id="path66" />
    <path
       d="m 376,477.75 h 18.5 V 505.5 H 376 Z"
       id="path68" />
    <path
       d="m 403.75,477.75 h 18.5 v 27.75 h -18.5 z"
       id="path70" />
    <path
       d="M 431.5,477.75 H 450 v 27.75 h -18.5 z"
       id="path72" />
    <path
       d="m 459.25,477.75 h 18.5 v 27.75 h -18.5 z"
       id="path74" />
    <path
       d="m 260.38,228.01 c 12.75,0 23.125,-10.375 23.125,-23.125 0,-12.75 -10.375,-23.125 -23.125,-23.125 h -5.0898 c -2.1484,-10.539 -11.492,-18.496 -22.66,-18.496 h -55.5 c -12.75,0 -23.125,10.375 -23.125,23.125 0,12.75 10.375,23.125 23.125,23.125 h 5.0898 c 2.1484,10.539 11.492,18.496 22.66,18.496 z m -59.848,-24.664 c 2.125,-6.0078 -2.332,-12.336 -8.7188,-12.336 h -14.684 c -2.5508,0 -4.625,-2.0742 -4.625,-4.625 0,-2.5508 2.0742,-4.625 4.625,-4.625 h 55.496 c 3.1016,0 5.4453,3.0625 4.3477,6.1641 -2.1211,6.0078 2.3359,12.336 8.7227,12.336 h 14.684 c 2.5508,0 4.625,2.0742 4.625,4.625 0,2.5508 -2.0742,4.625 -4.625,4.625 h -55.5 c -3.1016,0 -5.4453,-3.0586 -4.3477,-6.1641 z"
       id="path76" />
    <path
       d="m 577.18,224.93 h -3.0234 c -2.3789,-8.8711 -10.488,-15.418 -20.098,-15.418 h -46.25 c -11.477,0 -20.812,9.3359 -20.812,20.812 0,11.477 9.3359,20.812 20.812,20.812 h 3.0234 c 2.3828,8.8672 10.492,15.418 20.102,15.418 h 46.25 c 11.477,0 20.812,-9.3359 20.812,-20.812 -0.004,-11.477 -9.3398,-20.812 -20.816,-20.812 z m 0,23.121 h -46.25 c -1.5312,0 -2.7266,-1.5078 -2.1719,-3.082 2.125,-5.9961 -2.3164,-12.336 -8.7188,-12.336 l -12.23,0.004 c -1.2773,0 -2.3125,-1.0391 -2.3125,-2.3125 0,-1.2734 1.0352,-2.3125 2.3125,-2.3125 h 46.25 c 1.543,0 2.7266,1.5195 2.1719,3.0781 -2.125,5.9961 2.3164,12.336 8.7188,12.336 h 12.23 c 1.2773,0 2.3125,1.0391 2.3125,2.3125 0,1.2773 -1.0352,2.3125 -2.3125,2.3125 z"
       id="path78" />
  </g>
</svg>
