<?xml version="1.0" encoding="UTF-8" standalone="no"?>
<svg
   width="752pt"
   height="752pt"
   version="1.1"
   viewBox="0 0 752 752"
   id="svg8"
   sodipodi:docname="aircraft.svg"
   inkscape:version="1.1 (c68e22c387, 2021-05-23)"
   xmlns:inkscape="http://www.inkscape.org/namespaces/inkscape"
   xmlns:sodipodi="http://sodipodi.sourceforge.net/DTD/sodipodi-0.dtd"
   xmlns="http://www.w3.org/2000/svg"
   xmlns:svg="http://www.w3.org/2000/svg">
  <defs
     id="defs12" />
  <sodipodi:namedview
     id="namedview10"
     pagecolor="#ffffff"
     bordercolor="#666666"
     borderopacity="1.0"
     inkscape:pageshadow="2"
     inkscape:pageopacity="0.0"
     inkscape:pagecheckerboard="0"
     inkscape:document-units="pt"
     showgrid="false"
     inkscape:zoom="0.41090426"
     inkscape:cx="-110.73139"
     inkscape:cy="577.99353"
     inkscape:window-width="1920"
     inkscape:window-height="1009"
     inkscape:window-x="-8"
     inkscape:window-y="-8"
     inkscape:window-maximized="1"
     inkscape:current-layer="svg8" />
  <g
     fill-rule="evenodd"
     id="g6"
     transform="matrix(-1.7249771,0,0,1.7249771,1024.5944,-271.21758)">
    <path
       d="m 478.32,526.7 c 2.2227,5.1797 1.0625,11.184 -2.918,15.168 -12.18,12.18 -36.973,36.973 -36.973,36.973 -3.0859,3.0859 -7.2695,4.8203 -11.633,4.8203 -4.3635,0 -8.5547,-1.7344 -11.641,-4.8203 -0.0859,-0.0859 -0.17969,-0.17969 -0.26953,-0.26953 -3.1133,-3.1133 -4.8516,-7.3477 -4.8203,-11.758 0.0234,-3.2266 0.0547,-7.3281 0.082,-11.711 0.043,-6.1328 -3.3242,-11.781 -8.7344,-14.652 -5.4141,-2.875 -11.98,-2.5039 -17.035,0.96484 -19.176,13.164 -44.336,30.43 -58.656,40.266 -6.5391,4.4883 -15.344,3.6758 -20.949,-1.9336 -6.0195,-6.0156 -13.504,-13.5 -18.312,-18.309 -3.1133,-3.1133 -4.8477,-7.3477 -4.8203,-11.758 0.21094,-29.023 1.0156,-141.25 1.2266,-170.27 0.0352,-4.4023 -1.7031,-8.6367 -4.8203,-11.75 -10.82,-10.82 -36.977,-36.984 -50.707,-50.707 -4.8242,-4.8281 -4.8281,-12.656 0,-17.48 l 0.004,-0.004 c 2.3242,-2.3242 3.6211,-5.4883 3.6094,-8.7734 -0.0195,-3.2891 -1.3516,-6.4336 -3.6992,-8.7344 -27.883,-27.723 -47.602,-60.285 -62.758,-95.547 -2.6602,-6.2344 -1.207,-13.465 3.668,-18.176 4.8711,-4.7109 12.148,-5.9336 18.289,-3.0625 34.293,16.098 66.77,35.922 96.137,62.133 4.9648,4.4922 12.582,4.2969 17.316,-0.43359 0.0195,0.0156 0.0195,0.0156 0.0234,0.008 2.4102,-2.4102 5.6836,-3.7695 9.0938,-3.7695 3.4141,0 6.6875,1.3555 9.1016,3.7695 13.82,13.82 39.625,39.625 50.348,50.348 3.1133,3.1133 7.3516,4.8516 11.758,4.8203 29.023,-0.20312 141.25,-1.0156 170.27,-1.2188 4.4023,-0.0352 8.6406,1.7031 11.758,4.8203 l 18.309,18.309 c 5.6055,5.6055 6.4219,14.414 1.9336,20.949 -9.832,14.324 -27.102,39.477 -40.27,58.656 -3.4648,5.0547 -3.8438,11.621 -0.96484,17.035 2.875,5.4141 8.5234,8.7773 14.652,8.7344 4.3828,-0.0274 8.4922,-0.0586 11.719,-0.082 4.4023,-0.0273 8.6406,1.7031 11.758,4.8203 0.0859,0.0937 0.17578,0.17969 0.26953,0.26953 3.0859,3.0898 4.8203,7.2734 4.8203,11.641 0,4.3633 -1.7344,8.5508 -4.8203,11.633 l -36.973,36.973 c -3.9844,3.9844 -9.9883,5.1406 -15.168,2.918 -6.9375,-2.9766 -16.664,-7.1484 -23.605,-10.125 -5.1758,-2.2148 -11.184,-1.0625 -15.168,2.918 -5.2031,5.2031 -12.426,12.43 -17.629,17.637 -3.9844,3.9844 -5.1406,9.9883 -2.918,15.168 2.9766,6.9375 7.1484,16.664 10.125,23.602 z M 345,400 l 72.707,72.711 c 2.6914,2.6836 7.0547,2.6836 9.7383,0 2.6914,-2.6914 2.6914,-7.0547 0,-9.7383 l -72.707,-72.711 c -2.6914,-2.6914 -7.0547,-2.6914 -9.7383,0 -2.6914,2.6914 -2.6914,7.0508 0,9.7383 z m 49.848,-49.848 72.711,72.707 c 2.6836,2.6914 7.0508,2.6914 9.7383,0 2.6836,-2.6836 2.6836,-7.0508 0,-9.7383 l -72.711,-72.707 c -2.6836,-2.6914 -7.0508,-2.6914 -9.7383,0 -2.6836,2.6836 -2.6836,7.0508 0,9.7383 z m -73.34,-23.875 63.324,63.316 c 2.6836,2.6914 7.0508,2.6914 9.7383,0 2.6836,-2.6836 2.6836,-7.0508 0,-9.7383 l -63.324,-63.316 c -2.6914,-2.6914 -7.0508,-2.6914 -9.7383,0 -2.6914,2.6836 -2.6914,7.0508 0,9.7383 z m -40.324,-54.57 c 2.4062,-2.4062 2.6953,-6.2148 0.67969,-8.9531 -15.996,-21.301 -36.992,-38.453 -61.781,-52.465 -2.6602,-1.4883 -5.9922,-1.043 -8.1602,1.0977 -2.1719,2.1445 -2.6641,5.4648 -1.2109,8.1445 13.539,24.637 30.664,45.672 52.789,61.723 2.7305,1.9531 6.4727,1.6406 8.8477,-0.73047 2.6797,-2.6562 6.1562,-6.1328 8.8359,-8.8125 z"
       id="path2" />
    <path
       d="m 484.88,524.55 c 2.3633,5.9961 1.7656,12.656 -1.4219,18.062 l 14.367,14.367 c 2.6914,2.6836 7.0547,2.6836 9.7383,0 2.6914,-2.6914 2.6914,-7.0547 0,-9.7383 l -22.688,-22.691 z m -209.86,-12.523 0.14062,-19.344 -6.7031,-6.6992 c -2.6914,-2.6914 -7.0547,-2.6914 -9.7383,0 -2.6914,2.6836 -2.6914,7.0508 0,9.7383 l 16.301,16.301 z m 267.93,-29.109 c -5.4922,3.043 -12.188,3.4648 -18.148,0.90625 l -0.74219,-0.31641 23.621,23.621 c 2.6836,2.6914 7.0508,2.6914 9.7383,0 2.6836,-2.6836 2.6836,-7.0508 0,-9.7383 l -14.473,-14.473 z m -267.52,-27.141 0.13672,-19.344 -11.16,-11.16 c -2.6914,-2.6914 -7.0547,-2.6914 -9.7383,0 -2.6914,2.6836 -2.6914,7.0508 0,9.7383 l 20.766,20.766 z m 132.13,-180.82 19.344,-0.13672 -17.441,-17.441 c -2.6914,-2.6914 -7.0547,-2.6914 -9.7383,0 -2.6914,2.6836 -2.6914,7.0508 0,9.7383 l 7.8359,7.8359 z m 56.254,-0.39844 19.34,-0.14062 -12.977,-12.977 c -2.6914,-2.6914 -7.0508,-2.6914 -9.7383,0 -2.6914,2.6836 -2.6914,7.0508 0,9.7383 l 3.3789,3.3789 z"
       id="path4" />
  </g>
</svg>
