<?xml version="1.0" encoding="UTF-8" standalone="no"?>
<svg
   width="752pt"
   height="752pt"
   version="1.1"
   viewBox="100 100 552 552"
   id="svg4"
   sodipodi:docname="archeology.svg"
   inkscape:version="1.1 (c68e22c387, 2021-05-23)"
   xmlns:inkscape="http://www.inkscape.org/namespaces/inkscape"
   xmlns:sodipodi="http://sodipodi.sourceforge.net/DTD/sodipodi-0.dtd"
   xmlns="http://www.w3.org/2000/svg"
   xmlns:svg="http://www.w3.org/2000/svg">
  <defs
     id="defs8" />
  <sodipodi:namedview
     id="namedview6"
     pagecolor="#ffffff"
     bordercolor="#666666"
     borderopacity="1.0"
     inkscape:pageshadow="2"
     inkscape:pageopacity="0.0"
     inkscape:pagecheckerboard="0"
     inkscape:document-units="pt"
     showgrid="false"
     inkscape:zoom="0.20545213"
     inkscape:cx="1535.6375"
     inkscape:cy="372.34951"
     inkscape:window-width="1920"
     inkscape:window-height="1009"
     inkscape:window-x="-8"
     inkscape:window-y="-8"
     inkscape:window-maximized="1"
     inkscape:current-layer="svg4" />
  <path
     d="m 490.14465,380.4228 -32.48491,8.33361 c -1.13482,0 -27.18018,7.29377 -35.98385,47.35222 -2.27956,13.69759 -8.05372,26.58124 -16.76268,37.40442 -11.93302,-36.36395 6.05903,-93.28004 31.2499,-124.91005 h 0.004 c 8.7535,-12.02299 20.98215,-21.08199 35.03937,-25.94519 -1.22981,3.31441 -2.36966,6.05904 -3.12449,8.04873 -8.61862,22.34641 6.05904,37.68854 22.06102,49.71728 z m 56.25061,26.42126 c 0,-27.37087 -11.36313,-50.57218 -16.9521,-69.50795 h 0.004 c -4.28934,-12.233 -6.99379,-24.96102 -8.04872,-37.87922 0,-7.29378 -2.64956,-12.21803 -6.53397,-13.63745 h -0.004 c -0.74989,-0.13998 -1.51976,-0.13998 -2.26958,0 -1.01984,-0.075 -2.02962,0.22998 -2.8446,0.84986 -9.68339,16.11767 -17.68157,33.19007 -23.86168,50.951 -3.12448,7.95364 -1.41979,14.86732 16.4773,28.41005 17.89658,13.54274 18.94217,34.18959 18.37138,57.48561 v 9.46839 c -1.13481,21.15622 -5.04915,42.07822 -11.64814,62.21443 -1.51475,5.77902 -3.02951,11.26817 -4.25926,16.28789 -0.47492,2.17961 -1.03984,4.25927 -1.60972,6.154 l 5.01921,-2.8396 c 23.2909,-13.72831 38.729,-48.95709 38.06863,-107.95668 z M 153.87089,306.1809 141.84291,255.41931 c -1.79963,-4.92425 -11.07812,-33.04929 0.6649,-56.82011 l 2.46462,-5.11417 c 9.46839,-18.94217 15.72221,-32.1048 41.38328,-30.30542 h -0.004 c 20.40625,-0.26495 40.74851,-2.28967 60.80026,-6.05904 8.23864,-5.49414 38.63813,-25.0954 57.29619,-25.0954 11.72812,0.29996 23.24611,3.21445 33.70967,8.52366 2.79954,1.31972 5.67906,2.45464 8.61861,3.40948 19.47713,5.26417 38.48329,12.13805 56.82012,20.54703 12.02798,7.19882 15.53281,32.85989 18.94217,91.47939 l 0.75987,10.79823 c 1.98969,30.86981 0.94485,45.07803 -17.70717,58.62077 l -4.07434,2.74451 h -0.004 c -4.92924,3.02453 -10.59819,4.63425 -16.38258,4.64423 -13.18312,-0.95984 -25.97591,-4.91414 -37.40442,-11.55304 -7.5738,-3.88442 -15.24742,-8.33361 -22.53582,-12.87725 l -9.94333,-6.154 c -6.05904,-3.78933 -11.64814,-7.29378 -16.38259,-9.94333 l -0.004,-0.004 c -10.61329,-5.84402 -22.45647,-9.08855 -34.56456,-9.46839 l -13.54274,7.57379 c -3.82938,2.10961 -8.60364,1.32984 -11.55305,-1.89472 l -11.45809,-12.40795 -13.82813,13.54274 c -3.18949,3.11949 -8.11873,3.59441 -11.83805,1.13982 l -13.92284,-9.4684 -16.47729,26.99076 v -0.004 c -1.97471,3.2545 -5.70403,5.00423 -9.4684,4.4543 -3.84935,-0.27995 -7.14878,-2.86455 -8.33361,-6.53396 z m 178.60749,-39.2985 v -0.004 c 3.4544,6.32894 9.85835,10.49326 17.0468,11.07812 h 1.41979 c 6.33893,-0.37494 12.448,-2.53961 17.61248,-6.24396 5.15909,-3.70436 9.16853,-8.79358 11.55304,-14.68303 1.16482,-2.32461 1.32483,-5.01922 0.43992,-7.46374 -0.87985,-2.44466 -2.72953,-4.41924 -5.10917,-5.45908 -2.38463,-1.03983 -5.08422,-1.05482 -7.47883,-0.045 -2.39462,1.00984 -4.26925,2.95952 -5.17919,5.39407 0,0 -4.82916,9.46839 -12.21803,9.46839 -1.55468,-1.1698 -2.71455,-2.78955 -3.31439,-4.63924 -4.56923,-12.21802 -4.56923,-25.67131 0,-37.88434 1.2298,-2.93456 2.27457,-4.07434 1.98968,-4.1693 v 0.004 c 1.9897,0.86986 3.73943,2.1997 5.11418,3.88442 3.27946,4.02928 9.19849,4.66419 13.25734,1.41979 4.05936,-3.2545 4.73919,-9.17354 1.51476,-13.25734 -5.24919,-6.97384 -13.5325,-10.99314 -22.25682,-10.79822 -3.98936,0.78486 -7.68375,2.64954 -10.69329,5.38407 -3.00457,2.73952 -5.19915,6.24896 -6.35391,10.14835 -7.48881,18.76684 -6.51899,39.85393 2.65455,57.86058 z m -87.69122,-34.18959 h -0.004 c 4.49923,7.89374 11.04318,14.4373 18.94217,18.93705 5.35413,3.34946 11.49316,5.24419 17.80188,5.49414 15.05801,0 23.39072,-13.54274 27.55516,-20.26676 8.52366,-13.73215 5.49414,-51.80206 -12.21803,-63.54413 -17.70717,-11.74309 -44.31784,10.70327 -47.35223,13.44803 h 0.004 c -1.79465,1.7697 -2.81452,4.18428 -2.82949,6.70393 -0.02,2.52464 0.96484,4.9492 2.73952,6.74385 3.68439,3.73942 9.70337,3.78434 13.44292,0.095 7.85867,-7.38874 19.98135,-13.92284 23.77081,-11.45808 8.23865,5.58909 9.94333,32.29421 6.53397,37.87922 -7.19882,11.45808 -10.03841,13.82812 -19.79196,8.14368 -4.8742,-2.74451 -8.90349,-6.77392 -11.64812,-11.64814 -1.2498,-2.18959 -3.31952,-3.79432 -5.75906,-4.44931 -2.43454,-0.65989 -5.02919,-0.31995 -7.21379,0.94483 -2.27458,1.16981 -3.97939,3.20448 -4.72922,5.64913 -0.74487,2.44466 -0.47491,5.08422 0.74989,7.32885 z m -82.29689,-18.94217 c 0.21497,2.51452 1.4248,4.83913 3.36445,6.45897 1.93964,1.6197 4.44432,2.39461 6.95387,2.15964 4.89915,-0.44493 8.63858,-4.55426 8.61861,-9.47339 2.44466,-2.50454 5.51909,-4.30431 8.9035,-5.20414 2.24962,-0.89984 4.75929,-0.89984 7.00889,0 -0.50491,3.12449 -1.62968,6.12406 -3.31439,8.80355 l -0.84986,1.70468 h -0.004 c -1.14982,2.24961 -1.35978,4.85923 -0.57991,7.26384 0.78486,2.3996 2.49456,4.38929 4.74917,5.52408 1.32483,0.6399 2.78457,0.96484 4.25927,0.94485 3.5994,0.025 6.90382,-1.99469 8.52366,-5.20913 l 0.75987,-1.51476 c 8.3336,-16.0972 6.81885,-27.64987 -4.54428,-34.09489 l -0.004,0.004 c -5.16919,-2.28966 -10.85325,-3.16952 -16.47217,-2.55458 -5.62403,0.61489 -10.97816,2.70458 -15.53281,6.05405 -3.59442,1.78466 -6.60897,4.53928 -8.70359,7.95875 -2.08964,3.41448 -3.17951,7.3538 -3.13447,11.36313 z m 83.14668,178.13395 10.88819,2.93457 c 19.25188,6.18394 39.26396,9.68838 59.47568,10.41825 35.45914,-2.75449 66.95862,-23.68123 83.24137,-55.30613 -4.4342,1.28978 -9.01854,1.9897 -13.63744,2.08466 h -0.94984 c -16.18295,-0.72988 -31.96019,-5.30409 -46.02252,-13.35333 -7.48384,-3.88441 -15.53282,-8.42857 -23.96151,-13.63744 l -10.79823,-6.72389 -3.11948,-2.07965 -9.46841,2.93455 -15.24741,-7.95363 c -4.27425,-2.21967 -9.53342,-0.87486 -12.21803,3.12447 l -9.46839,14.11224 -13.16777,-18.18709 -0.84985,-1.22981 c -1.80476,-2.53961 -4.74419,-4.02429 -7.85868,-3.97936 -1.00983,-0.004 -2.00466,0.18997 -2.93955,0.56989 -2.00466,0.5949 -3.72445,1.90971 -4.82916,3.69437 l -9.18352,13.7283 -6.72388,-11.45808 -7.29378,-12.40795 v 0.004 c -1.94964,-3.28945 -5.68406,-5.08423 -9.4684,-4.54927 -3.61438,0.35994 -6.70392,2.7495 -7.95364,6.15899 l -10.51322,28.41005 -13.16263,-11.36313 c -2.7696,-2.37465 -6.65888,-2.94453 -9.99337,-1.46971 -3.33449,1.4747 -5.52409,4.73421 -5.63403,8.37866 v 1.51476 c -1.03982,50.09738 6.154,56.82012 8.52366,58.71549 l 2.08466,1.89472 c 6.65388,7.51378 16.02297,12.07802 26.04116,12.69296 6.38398,-0.50992 12.71791,-1.52475 18.94217,-3.03451 14.58321,-2.64955 35.70358,-6.90882 45.26745,-4.44932 z m 368.66908,0 c -1.03983,-12.78292 -2.46462,-26.99076 -4.35423,-43.37336 -0.94484,-7.48383 -4.7342,-8.14369 -5.96408,-8.3336 h -1.60971 c -8.52366,0 -25.47551,9.4684 -40.34282,37.87922 -4.73421,9.4684 0,28.88486 3.88441,44.79264 l -0.004,0.004 c 2.28968,8.48859 3.99934,17.12743 5.11418,25.85048 0.47491,4.63923 1.22979,9.46839 1.98968,14.2031 3.97938,26.32528 9.4684,59.09558 -21.97143,101.70874 v 0.004 c -7.07379,9.27349 -13.40836,19.08679 -18.94218,29.35582 2.27458,-1.79964 4.92425,-4.07434 7.95364,-6.91381 5.5891,-5.11417 8.80854,-7.76371 11.93303,-10.3233 9.18849,-7.65377 17.94649,-15.8118 26.23056,-24.43118 36.83876,-35.88915 41.76339,-88.07002 36.08368,-159.75618 z M 443.83801,514.14421 c -9.42847,1.71978 -17.53696,7.69371 -21.97143,16.1919 L 310.21515,484.21888 c 2.52464,-11.01822 -0.6449,-22.56654 -8.43357,-30.75975 -7.79366,-8.18861 -19.16741,-11.92803 -30.3003,-9.96343 -6.4989,1.59475 -12.33295,5.19915 -16.67182,10.29834 -4.33426,5.0992 -6.94887,11.43813 -7.47371,18.11159 -0.76988,5.15909 -0.41494,10.42825 1.03982,15.43683 -4.57921,2.47959 -8.55859,5.93899 -11.64814,10.13337 -4.22931,5.11418 -6.76394,11.41317 -7.25883,18.02712 -0.48992,6.61896 1.08482,13.2228 4.5142,18.90635 3.64445,5.1441 8.64357,9.18351 14.44754,11.65313 5.79899,2.4746 12.17298,3.29443 18.41234,2.35966 6.7939,-0.93985 13.01291,-4.29932 17.52161,-9.46839 l 117.71123,48.8675 c -0.40993,6.79889 1.64479,13.52226 5.77903,18.93705 6.4239,8.69861 16.5528,13.88316 27.36574,14.01754 7.70868,0.035 15.13224,-2.8945 20.74155,-8.18362 5.60408,-5.28911 8.95854,-12.53298 9.37345,-20.22708 0.78486,-5.19914 0.39493,-10.50323 -1.13482,-15.53281 4.62427,-2.44964 8.63858,-5.91404 11.7431,-10.13337 4.21933,-5.09919 6.73886,-11.38809 7.21877,-17.99257 0.47493,-6.60397 -1.12481,-13.19336 -4.56923,-18.84747 -3.62936,-5.56913 -8.80853,-9.96341 -14.89803,-12.63792 -6.08899,-2.67451 -12.82349,-3.51444 -19.38242,-2.41957 z M 497.72356,257.6999 c 1.19981,1.10982 2.72954,1.80476 4.35423,1.9847 3.21945,0 6.154,0.47492 8.99846,0.47492 10.99826,1.07482 21.8409,-3.1845 29.16514,-11.45809 11.45809,-15.05801 2.17961,-38.54344 -0.84986,-46.30792 -1.80975,-6.79389 -6.52399,-12.43802 -12.88237,-15.43682 -9.46839,-3.21945 -18.94216,2.27457 -35.51416,11.36313 h 0.004 c -8.73853,3.9443 -14.90316,12.02796 -16.38259,21.49662 -1.04484,15.24742 11.26816,28.03508 23.57628,38.54343 z m 85.98653,56.0612 c 0.74988,0.13497 1.51975,0.13497 2.27457,0 4.67917,1.1298 9.59843,0.68489 13.99835,-1.2698 4.40426,-1.94962 8.03362,-5.2991 10.33826,-9.52842 2.55958,-5.789 3.29944,-12.21303 2.1347,-18.43665 -1.16482,-6.21902 -4.18927,-11.93801 -8.66854,-16.41202 -2.67962,-2.86456 -6.079,-4.95919 -9.83838,-6.07901 -3.76438,-1.11482 -7.75374,-1.20481 -11.56315,-0.26495 -7.87865,2.37465 -13.90236,8.75862 -15.81693,16.76269 -1.18981,6.149 -0.72488,12.50789 1.35479,18.41745 2.07965,5.90905 5.69903,11.15823 10.48326,15.20262 1.5497,1.48981 3.62936,2.30964 5.77903,2.27458 z"
     id="path2"
     style="stroke-width:1.27979" />
</svg>
