<?xml version="1.0" encoding="UTF-8" standalone="no"?>
<svg
   width="752pt"
   height="752pt"
   version="1.1"
   viewBox="0 0 752 752"
   id="svg4"
   sodipodi:docname="bioeconomy.svg"
   inkscape:version="1.1 (c68e22c387, 2021-05-23)"
   xmlns:inkscape="http://www.inkscape.org/namespaces/inkscape"
   xmlns:sodipodi="http://sodipodi.sourceforge.net/DTD/sodipodi-0.dtd"
   xmlns="http://www.w3.org/2000/svg"
   xmlns:svg="http://www.w3.org/2000/svg">
  <defs
     id="defs8" />
  <sodipodi:namedview
     id="namedview6"
     pagecolor="#ffffff"
     bordercolor="#666666"
     borderopacity="1.0"
     inkscape:pageshadow="2"
     inkscape:pageopacity="0.0"
     inkscape:pagecheckerboard="0"
     inkscape:document-units="pt"
     showgrid="false"
     inkscape:zoom="0.41090426"
     inkscape:cx="358.9644"
     inkscape:cy="166.7055"
     inkscape:window-width="1920"
     inkscape:window-height="1009"
     inkscape:window-x="-8"
     inkscape:window-y="-8"
     inkscape:window-maximized="1"
     inkscape:current-layer="svg4" />
  <path
     d="m 174.07518,736.67229 c -15.54617,0 -28.16061,-12.65419 -28.16061,-28.16061 V 605.13897 c 0,-15.51289 12.62076,-28.1606 28.16061,-28.1606 h 56.32804 c 15.51291,0 28.16062,12.65419 28.16062,28.1606 v 103.38465 c 0,15.51291 -12.6542,28.16061 -28.16062,28.16061 h -56.32804 z m 281.62317,0 c -15.54617,0 -28.16062,-12.65419 -28.16062,-28.16061 V 576.97324 c 0,-15.51289 12.62076,-28.1606 28.16062,-28.1606 h 56.32804 c 15.51289,0 28.1606,12.65419 28.1606,28.1606 v 131.54527 c 0,15.51289 -12.65419,28.1606 -28.1606,28.1606 l -56.32804,0.006 z m 140.81498,0 c -15.54616,0 -28.16061,-12.65419 -28.16061,-28.16061 V 464.33251 c 0,-15.5129 12.62076,-28.16061 28.16061,-28.16061 h 56.32806 c 15.51289,0 28.1606,12.65419 28.1606,28.16061 v 244.19623 c 0,15.5129 -12.65419,28.16061 -28.1606,28.16061 l -56.32806,0.006 z m 28.1538,-459.1708 c -28.18621,0 -51.04325,22.85534 -51.04325,51.04324 0,5.09103 0.76631,9.99541 2.15897,14.63984 l -73.612,72.27287 c -5.69062,-2.1924 -11.84117,-3.43836 -18.30405,-3.43836 -14.1934,0 -27.03474,5.81055 -36.28399,15.16627 l -53.72147,-18.81753 c -2.24562,-24.67551 -22.02969,-44.24703 -46.78537,-46.17809 -4.438,3.59838 -9.30897,6.95675 -14.73314,10.00873 0.04,0.50644 0.0733,0.98619 0.0866,1.44599 0.19991,4.99771 1.72584,19.85812 3.49175,37.07554 1.98581,19.44358 3.705,37.08916 5.17768,53.21482 0.6597,0.0267 1.29274,0.15992 1.95238,0.15992 13.39386,0 25.54891,-5.20429 34.64976,-13.63372 l 55.64057,19.48454 c 3.35854,24.94162 24.67551,44.17878 50.52977,44.17878 28.18621,0 51.04324,-22.85533 51.04324,-51.04323 0,-5.05093 -0.75964,-9.91541 -2.12569,-14.5066 l 73.69899,-72.35306 c 5.65737,2.16562 11.76782,3.39179 18.18465,3.39179 28.19302,0 51.04323,-22.85533 51.04323,-51.04323 0,-28.2135 -22.85533,-51.07054 -51.05006,-51.07054 z m -350.09706,145.0268 -40.48045,19.57836 c -8.73597,-6.99018 -19.79158,-11.19482 -31.85213,-11.19482 -28.19301,0 -51.04324,22.85534 -51.04324,51.04324 0,28.1879 22.85534,51.04324 51.04324,51.04324 27.87403,0 50.48372,-22.34358 50.99036,-50.09648 l 24.72839,-11.95445 c -0.31318,-15.13965 -1.35938,-31.34547 -3.38515,-48.41789 z M 488.21405,12.213801 C 375.86673,46.184638 320.21933,102.5195 296.62706,148.80335 c 19.23717,18.6111 33.48465,36.68317 43.93314,52.61605 11.68798,-32.57883 34.6566,-79.45632 79.69685,-125.462103 -42.72709,56.573693 -59.99227,113.280443 -67.16889,146.719023 6.20377,11.80126 11.02815,23.6554 14.70653,35.2366 23.74239,10.90822 84.27372,6.39038 100.35331,-48.93137 28.39431,-97.72796 -3.9515,-142.674395 20.07134,-196.772862 z M 371.20798,492.48629 h -53.382 c -4.28465,-52.48982 -10.58172,-105.15875 -11.1015,-117.80612 -0.1,-2.49877 -1.79254,-13.28724 -2.04568,-17.765 -1.2261,-0.37983 32.35877,-9.38232 42.41321,-36.44265 C 363.29118,276.8925 313.4743,117.74615 54.636524,54.134013 91.33334,126.22777 50.411745,189.89109 96.18998,321.24017 c 17.88441,51.31618 63.34431,68.02182 100.08718,68.02182 26.72768,0 48.83754,-8.83592 52.35506,-19.63121 5.37078,-9.42225 10.07524,-21.93588 4.79112,-40.94787 -12.62741,-45.46503 -40.4941,-119.99819 -101.46041,-192.43994 106.5644,97.96168 132.08602,203.73284 136.26371,220.7575 0.1,0 4.45796,17.06558 4.49123,17.06558 v -0.0133 c 9.38232,45.08632 11.78112,86.24742 10.88826,120.8443 -9.9287,4.36465 -16.88545,14.26675 -16.88545,25.76726 V 708.5325 c 0,15.5129 12.62077,28.16061 28.16062,28.16061 h 56.32805 c 15.5129,0 28.16061,-12.65419 28.16061,-28.16061 l 0.006,-187.88525 c 0,-15.51955 -12.65419,-28.16742 -28.16744,-28.16742 z"
     id="path2"
     style="stroke-width:1.70588" />
</svg>
