<?xml version="1.0" encoding="UTF-8" standalone="no"?>
<svg
   width="752pt"
   height="752pt"
   version="1.1"
   viewBox="0 0 752 752"
   id="svg4"
   sodipodi:docname="biophysics.svg"
   inkscape:version="1.1 (c68e22c387, 2021-05-23)"
   xmlns:inkscape="http://www.inkscape.org/namespaces/inkscape"
   xmlns:sodipodi="http://sodipodi.sourceforge.net/DTD/sodipodi-0.dtd"
   xmlns="http://www.w3.org/2000/svg"
   xmlns:svg="http://www.w3.org/2000/svg">
  <defs
     id="defs8" />
  <sodipodi:namedview
     id="namedview6"
     pagecolor="#ffffff"
     bordercolor="#666666"
     borderopacity="1.0"
     inkscape:pageshadow="2"
     inkscape:pageopacity="0.0"
     inkscape:pagecheckerboard="0"
     inkscape:document-units="pt"
     showgrid="false"
     inkscape:zoom="0.82180851"
     inkscape:cx="501.94175"
     inkscape:cy="296.29773"
     inkscape:window-width="1920"
     inkscape:window-height="1009"
     inkscape:window-x="-8"
     inkscape:window-y="-8"
     inkscape:window-maximized="1"
     inkscape:current-layer="svg4" />
  <path
     d="m 516.08507,269.54442 c 10.47052,18.19061 20.55449,36.80443 28.63824,56.19604 39.72768,6.92064 76.62362,6.41377 108.13726,-15.97965 36.01728,-25.59436 56.65872,-74.30511 64.94751,-153.26833 1.41432,-13.37154 -8.15367,-25.08009 -21.34934,-26.16761 -13.19958,-1.08161 -25.02145,8.87222 -26.42847,22.23272 -0.80451,7.68097 -1.74092,15.02562 -2.81755,22.01306 -16.19985,-9.89561 -35.12364,-20.01945 -54.72149,-30.52192 -41.40054,-22.15655 -87.19063,-46.693405 -118.01157,-74.308876 14.9111,-4.142803 27.11679,-4.27093 27.61772,-4.263437 13.22291,0.101562 24.29959,-10.640333 24.77142,-24.023781 0.47247,-13.407171 -9.89362,-24.400772 -23.14957,-24.531675 -2.46432,-0.02607 -60.77196,-0.204076 -100.00338,39.440044 -22.97782,23.22904 -34.42837,54.367435 -34.00968,92.523765 0.54027,49.61971 27.46961,95.42861 53.50926,139.72126 27.35871,46.5394 46.63623,82.67738 47.22164,116.29839 -15.49269,-9.93999 -34.69535,-19.87898 -54.74596,-30.21393 -41.29502,-21.3249 -87.64313,-45.25846 -111.97612,-74.52653 1.71445,-0.56126 3.44978,-1.10865 5.25512,-1.6247 29.21588,-8.3486 60.25721,-6.7832 91.66115,-1.30301 -10.09071,-17.1697 -20.19937,-34.56293 -28.95218,-52.49004 -24.78258,-1.57513 -49.88379,-0.004 -74.70842,7.08944 -40.99658,11.70627 -67.86587,34.06982 -79.873,66.4595 -26.94707,72.69758 32.54442,174.24748 87.40515,254.59222 8.80912,12.91137 12.00072,26.93564 11.69565,40.87561 -8.25487,-4.52623 -16.86209,-9.13503 -25.74629,-13.89726 -33.29924,-17.83019 -70.23162,-37.59974 -99.48642,-59.30492 19.02453,-3.70298 39.79825,-4.73017 61.09791,-4.60426 -9.26022,-15.13364 -18.59195,-31.35542 -27.13469,-47.98208 -17.0184,0.89125 -33.80467,2.85614 -50.03663,6.62259 -50.73964,11.80478 -86.64265,39.06015 -109.732315,83.32779 -5.84153,11.18507 -2.363613,24.65213 7.653172,31.28852 0.707651,0.46885 1.45009,0.90793 2.232556,1.29811 11.706977,6.02136 26.258647,1.18036 32.507707,-10.79033 0.78396,-1.50209 1.58891,-2.96749 2.41845,-4.40174 12.947,12.75647 28.61224,24.68892 45.63299,35.96561 26.59658,17.62094 56.51221,33.63923 84.49163,48.61629 13.71632,7.33753 26.93948,14.41627 38.97322,21.26496 -2.71061,3.47654 -4.47836,5.49583 -4.66441,5.69694 -9.00127,10.05712 -8.43586,25.38115 1.26445,34.23694 0.90924,0.83623 1.86704,1.5764 2.85776,2.23278 9.64496,6.39003 22.90288,4.76491 31.09757,-4.34845 0.94745,-1.05432 23.3422,-26.1698 39.07654,-61.30361 22.40046,-50.01112 20.882,-96.02506 -4.43553,-133.08683 -20.37664,-29.84495 -73.75821,-108.05346 -84.17561,-168.18506 8.57347,6.76631 17.76667,13.32469 27.37607,19.69116 27.65534,18.32241 58.69818,35.08749 87.731,50.76246 19.9803,10.79372 39.25151,21.20046 55.45138,31.09605 -23.38109,12.19114 -56.1751,13.54457 -93.53962,12.41254 10.68345,17.11733 20.51682,31.52196 26.82961,40.78037 1.74617,2.56735 3.40343,5.16628 4.9596,7.80382 50.50046,-1.65404 96.53202,-12.77606 124.89779,-55.35163 24.27728,-36.42718 30.55921,-75.23602 19.20488,-118.65445 -9.29259,-35.49697 -29.14826,-69.30505 -48.36271,-101.98546 -23.9373,-40.70429 -46.53504,-79.16364 -46.93071,-115.89517 -0.0164,-2.04737 0.018,-4.04606 0.0907,-6.0116 12.06853,11.24662 26.18998,21.85446 41.4072,31.93627 26.59657,17.62093 56.51222,33.63922 84.4809,48.6092 27.05652,14.47856 52.78838,28.26063 70.6554,41.02581 -2.7052,2.9219 -5.55455,5.44668 -8.52713,7.56541 -25.09247,17.95073 -64.10095,10.75157 -109.73641,-0.64116 z M 312.77854,681.57045 c -12.80417,-7.3366 -26.82757,-14.84745 -41.40372,-22.6414 -45.80049,-24.52113 -96.9927,-51.9355 -127.3153,-83.24096 10.53288,-11.74259 23.32574,-20.62347 38.83306,-26.94189 9.69703,8.12162 20.43268,15.92824 31.78118,23.44691 26.77504,17.73919 56.90126,33.85934 84.59094,48.6821 11.57149,6.20314 22.6729,12.1476 33.04215,17.92383 -4.52466,16.08523 -12.23384,31.01144 -19.52837,42.77296 z M 486.77221,431.2446 c -2.63637,8.64713 -6.74324,17.27079 -12.55888,25.99194 -1.17728,1.77695 -2.43691,3.43912 -3.7612,5.0281 -18.24558,-11.68085 -40.61039,-23.76017 -63.86813,-36.3103 -44.95343,-24.28413 -94.89547,-51.26263 -127.17097,-81.43325 0.60024,-3.54722 1.49026,-6.96268 2.67729,-10.18887 3.53548,-9.53729 9.98084,-17.41007 19.49711,-23.77022 12.32128,16.39972 29.86521,30.8592 49.67846,43.98599 23.03784,15.26318 49.12604,28.72309 73.51105,41.32629 24.04261,12.3914 46.85143,24.17645 61.99409,35.3705 z m 88.21285,-230.57743 c -48.17239,-25.7908 -102.31597,-54.78343 -131.85284,-88.14044 3.19845,-8.4935 7.82159,-15.824514 13.94414,-22.071569 4.12456,-4.198996 8.69073,-7.675622 13.46288,-10.586695 13.05415,12.970727 28.94606,25.106034 46.2231,36.552544 26.59658,17.62094 56.51222,33.63922 84.49163,48.6163 22.62057,12.11293 44.29458,23.71938 61.24728,34.66448 -3.91285,17.1996 -8.8469,31.62568 -14.74303,43.25747 -19.16136,-13.5774 -45.29302,-27.58665 -72.77235,-42.29263 z"
     id="path2"
     style="stroke-width:1.60968" />
  <circle
     style="fill:#161616;fill-opacity:0;stroke:#000000;stroke-width:20.05;stroke-miterlimit:4;stroke-dasharray:none;stroke-opacity:1"
     id="path1066"
     cx="113.62135"
     cy="401.09708"
     r="46.087379" />
  <circle
     style="fill:#161616;fill-opacity:0;stroke:#000000;stroke-width:20.05;stroke-miterlimit:4;stroke-dasharray:none;stroke-opacity:1"
     id="path1066-8"
     cx="264.66019"
     cy="169.74756"
     r="46.087379" />
  <path
     style="fill:none;stroke:#000000;stroke-width:26.8834;stroke-linecap:round;stroke-linejoin:miter;stroke-miterlimit:5.5;stroke-dasharray:none;stroke-opacity:1"
     d="M 142.9995,358.86759 240.30147,208.7829 Z"
     id="path1884" />
</svg>
