<?xml version="1.0" encoding="UTF-8"?>
<svg width="752pt" height="752pt" version="1.1" viewBox="0 0 752 752" xmlns="http://www.w3.org/2000/svg">
 <g>
  <path d="m183.61 438.16-29.598 142.07c-1.4805 4.4414 0 10.359 4.4414 14.801 2.957 1.4766 5.918 2.957 10.355 2.957h4.4414l82.875-29.598 1.4805-17.762 11.84-121.36v-7.3984l2.9609-26.637-79.918 32.559c-4.4375 1.4766-7.3984 5.918-8.8789 10.359z"/>
  <path d="m302 405.6v1.4805l-2.9609 19.238-10.359 111-2.957 31.078 75.477 25.156v-174.63l-57.719-23.676z"/>
  <path d="m596.51 577.27-29.598-139.11c-1.4805-4.4414-4.4414-8.8789-8.8789-10.359l-79.918-32.559 1.4805 8.8789 2.9609 23.68 11.84 108.04 2.9609 32.559 81.398 28.117h4.4414c7.3984 0 14.801-7.3984 14.801-14.801-0.007812 0.003906-0.007812-2.957-1.4883-4.4375z"/>
  <path d="m376 154.01c-57.719 0-103.6 45.879-103.6 102.12 0 53.277 84.355 136.16 93.234 145.04 2.9609 2.9609 7.3984 4.4414 10.359 4.4414 2.9609 0 7.3984-1.4805 10.359-4.4414 8.8789-8.8789 93.234-93.234 93.234-145.04 0.007812-56.242-47.352-102.12-103.59-102.12zm0 131.71c-16.281 0-29.598-13.32-29.598-29.598 0-16.281 13.32-29.598 29.598-29.598 16.281 0 29.598 13.32 29.598 29.598 0.003906 16.277-13.316 29.598-29.598 29.598z"/>
  <path d="m450 407.08v-1.4805l-1.4805-10.359-57.719 23.676v174.63l75.477-25.156-1.4805-19.238z"/>
 </g>
</svg>
