<?xml version="1.0" encoding="UTF-8" standalone="no"?>
<svg
   width="752pt"
   height="752pt"
   version="1.1"
   viewBox="0 0 752 752"
   id="svg17"
   sodipodi:docname="cognitive_science.svg"
   inkscape:version="1.1 (c68e22c387, 2021-05-23)"
   xmlns:inkscape="http://www.inkscape.org/namespaces/inkscape"
   xmlns:sodipodi="http://sodipodi.sourceforge.net/DTD/sodipodi-0.dtd"
   xmlns="http://www.w3.org/2000/svg"
   xmlns:svg="http://www.w3.org/2000/svg">
  <sodipodi:namedview
     id="namedview19"
     pagecolor="#ffffff"
     bordercolor="#666666"
     borderopacity="1.0"
     inkscape:pageshadow="2"
     inkscape:pageopacity="0.0"
     inkscape:pagecheckerboard="0"
     inkscape:document-units="pt"
     showgrid="false"
     inkscape:zoom="0.41090426"
     inkscape:cx="376"
     inkscape:cy="200.7767"
     inkscape:window-width="1920"
     inkscape:window-height="1009"
     inkscape:window-x="-8"
     inkscape:window-y="-8"
     inkscape:window-maximized="1"
     inkscape:current-layer="svg17" />
  <defs
     id="defs5">
    <clipPath
       id="a">
      <path
         d="m165 139.21h422v473.58h-422z"
         id="path2" />
    </clipPath>
  </defs>
  <g
     clip-path="url(#a)"
     id="g9"
     transform="matrix(1.5438345,0,0,1.5438345,-198.58213,-204.48388)">
    <path
       d="m 571.32,373.98 c -4.7812,-5.6875 -9.1016,-11.75 -12.914,-18.129 -0.91797,-1.6172 -1.8711,-3.25 -2.832,-4.9023 -6.375,-10.945 -12.969,-22.262 -11.246,-31.539 5.2305,-25.164 2.1328,-51.348 -8.8359,-74.59 -36.164,-78.172 -107.4,-97.688 -136.35,-102.45 -12.762,-2.0898 -25.672,-3.1445 -38.602,-3.1523 h -0.25391 c -24.023,-0.16406 -47.93,3.3594 -70.887,10.441 -4.7461,1.5039 -9.4844,3.2188 -14.078,5.0938 -59.723,24.406 -104.86,85.137 -109.75,147.69 -2.7891,32.012 5.3281,64.023 23.027,90.84 2.9727,4.3867 5.6133,8.6797 8.168,12.832 3.4023,5.5273 6.918,11.242 11.23,17.215 22.086,30.586 51.852,92.715 43.328,138.51 h 0.004 c -2.293,15.27 -10.961,28.852 -23.848,37.355 -2.7461,1.7891 -3.9883,5.168 -3.0547,8.3086 0.93359,3.1367 3.8164,5.293 7.0938,5.293 h 195.03 c 2.8984,0 5.5312,-1.6914 6.7344,-4.3281 1.2031,-2.6367 0.75391,-5.7344 -1.1445,-7.9219 -19.582,-22.566 -23.391,-45.613 -21.293,-75.984 h 0.004 c 29.574,17.375 62.539,28.188 96.66,31.707 8.9648,0.95703 17.973,-1.3867 25.332,-6.5898 5.8281,-4.1719 10.121,-10.145 12.215,-16.996 3.0742,-10.746 1.5625,-22.691 0.33984,-32.285 v -0.004 c -0.54688,-3.6719 -0.88672,-7.375 -1.0156,-11.09 0.34766,-0.0703 0.69141,-0.13672 0.98828,-0.19531 4.0625,-0.78906 13.566,-2.6367 13.828,-11.695 -0.0273,-3.1992 -1.2109,-6.2812 -3.3281,-8.6797 2.5117,-0.25781 4.9141,-1.1602 6.9727,-2.625 10.25,-7.918 4.543,-20.66 0.76562,-29.094 -1.4766,-3.3008 -4.9414,-11.035 -3.6602,-12.227 2.4219,-1.793 5.1602,-3.1133 8.0703,-3.8984 l 1.6953,-0.60156 c 0.55469,-0.20312 1.1367,-0.39062 1.7344,-0.58203 v 0.004 c 5.1797,-1.2031 9.7578,-4.2227 12.902,-8.5117 2.9375,-4.7031 3.3672,-10.551 1.1445,-15.633 -3.6797,-7.8281 -8.457,-15.098 -14.184,-21.586 z m 0.64453,29.137 c -1.4258,1.2891 -3.1758,2.1562 -5.0625,2.5117 -0.76172,0.24609 -1.5078,0.48828 -2.2109,0.74609 l -1.5703,0.55469 h -0.004 c -4.8672,1.3789 -9.3867,3.7773 -13.254,7.0352 -9.0195,8.4102 -3.6641,20.367 0.25,29.102 1.8242,3.4453 3.0938,7.1641 3.7578,11.008 -1.3984,0.20703 -3.875,0.25781 -5.332,0.28906 -5.2539,0.10938 -12.445,0.25781 -13.922,7.0898 -1.1992,5.5898 2.8906,9.6055 6.5,13.148 0.0703,0.0703 0.14844,0.14453 0.22656,0.22266 h 0.004 c -4.3945,0.3125 -8.3125,2.8711 -10.367,6.7656 -2.207,5.3047 -1.3438,12.086 -0.25391,20.672 1.1016,8.6875 2.3516,18.523 0.11328,26.352 v -0.004 c -1.1914,3.707 -3.5664,6.918 -6.7578,9.1445 -4.4609,3.0625 -9.8867,4.4062 -15.262,3.7734 -33.613,-3.543 -66.008,-14.566 -94.805,-32.262 l -1.4375,-0.86328 c -1.3867,-0.8125 -2.707,-1.6133 -3.9648,-2.4062 -0.082,-0.0586 -0.16797,-0.11328 -0.25391,-0.16406 -15.305,-9.7266 -20.523,-17.879 -20.152,-22.461 0.32422,-4.0781 -2.7148,-7.6445 -6.7891,-7.9688 -4.0742,-0.32422 -7.6406,2.7148 -7.9688,6.7891 -0.89062,11.23 6.9453,22.559 23.273,33.707 -2.9688,31.785 -0.99219,57.648 14.961,82.098 h -160.8 c 7.7852,-9.6797 12.949,-21.195 15,-33.445 9.375,-50.371 -22.301,-117.24 -45.883,-149.89 -3.9883,-5.5234 -7.207,-10.762 -10.617,-16.301 -2.6367,-4.2891 -5.3672,-8.7266 -8.5195,-13.383 v -0.004 c -15.824,-24.035 -23.059,-52.715 -20.531,-81.379 4.4727,-57.199 45.836,-112.77 100.59,-135.14 4.2227,-1.7266 8.5781,-3.3008 12.938,-4.6836 21.516,-6.6289 43.918,-9.918 66.43,-9.7539 h 0.23438 c 12.133,0.004 24.242,0.99609 36.215,2.957 26.621,4.3789 92.129,22.316 125.32,94.062 9.7305,20.445 12.441,43.535 7.7148,65.68 -2.7188,14.68 5.6406,29.027 13.016,41.684 0.93359,1.6016 1.8555,3.1914 2.75,4.7578 4.1914,7.0586 8.9492,13.77 14.219,20.062 4.8242,5.4258 8.8867,11.484 12.074,18.008 0.30469,0.58594 0.35156,1.2695 0.13281,1.8906 z"
       id="path7" />
  </g>
  <path
     d="m 444.73371,352.20741 c -2.61727,0.006 -5.22851,0.31358 -7.77954,0.92268 l -52.33908,-84.92324 c 9.48008,-7.27887 16.1377,-17.63368 18.81625,-29.29118 h 31.8771 c 3.62447,10.24597 11.89231,18.17094 22.28371,21.34815 10.39077,3.18416 21.67389,1.24833 30.412,-5.21647 8.73841,-6.4648 13.88848,-16.68729 13.88848,-27.55435 0,-10.8672 -5.15007,-21.08878 -13.88848,-27.55436 -8.73842,-6.45879 -20.022,-8.3946 -30.412,-5.21646 -10.39078,3.17813 -18.65878,11.10233 -22.28371,21.34814 h -31.8771 c -3.99219,-17.6522 -16.98217,-31.89562 -34.19284,-37.47967 -17.21067,-5.58436 -36.08713,-1.68864 -49.68059,10.25199 l -6.24775,-6.25377 -0.006,0.006 c 4.70391,-9.82388 4.46261,-21.30029 -0.64528,-30.91837 -5.1019,-9.61887 -14.47344,-16.24578 -25.24478,-17.856 -10.77071,-1.61624 -21.66771,1.97796 -29.36373,9.67907 -7.70111,7.70112 -11.29532,18.59857 -9.67908,29.36837 1.61624,10.77072 8.24378,20.13623 17.86835,25.24478 9.61886,5.10191 21.08877,5.33704 30.9122,0.63924 l 8.81067,8.81066 c -3.76311,8.90716 -4.92098,18.70047 -3.34102,28.24137 1.57393,9.54044 5.81948,18.4411 12.24817,25.67242 l -35.36308,57.38125 h -0.006 c -10.60784,-2.50271 -21.77579,0.18694 -30.0986,7.2307 -8.31617,7.04977 -12.797,17.6275 -12.07325,28.5069 0.72367,10.87925 6.56732,20.76921 15.74557,26.65585 9.17856,5.87984 20.60711,7.0618 30.79178,3.17813 10.18468,-3.88367 17.92855,-12.36874 20.86029,-22.86727 2.93684,-10.49931 0.71161,-21.77116 -5.98838,-30.37032 l 34.70077,-56.3021 c 9.56452,4.01645 20.11771,5.04757 30.27923,2.96108 l 53.9987,87.61261 h 0.006 c -6.36832,8.21366 -8.65999,18.87646 -6.2357,28.97777 2.4303,10.10733 9.32337,18.56153 18.72516,22.98306 9.40782,4.42047 20.31069,4.32398 29.64008,-0.25328 9.32939,-4.57715 16.0775,-13.14667 18.33304,-23.29028 2.26141,-10.14345 -0.21108,-20.76921 -6.71815,-28.87434 -6.50695,-8.0991 -16.34303,-12.80904 -26.73304,-12.79699 z M 467.584,216.07209 c 4.61946,0 8.78658,2.78013 10.5535,7.04976 1.76692,4.26963 0.79001,9.18458 -2.47862,12.45319 -3.26259,3.26259 -8.17755,4.23952 -12.44717,2.4726 -4.26963,-1.76691 -7.05579,-5.93419 -7.05579,-10.55349 0.0121,-6.30194 5.11997,-11.41589 11.42793,-11.42191 z M 274.3268,175.91386 c -3.26258,-3.26861 -4.2335,-8.17754 -2.46658,-12.44114 1.77293,-4.26361 5.93419,-7.04375 10.55349,-7.04375 4.61344,0.006 8.77453,2.78616 10.54146,7.04977 1.76692,4.2636 0.79001,9.17253 -2.4726,12.44114 -4.51696,4.32397 -11.63913,4.31795 -16.15623,-0.006 z m -2.5992,187.71484 c -6.30795,0 -11.4219,-5.11395 -11.4219,-11.42191 0,-6.31397 5.11395,-11.42792 11.4219,-11.42792 2.00219,0.0121 3.96209,0.55483 5.68687,1.57394 0.24122,0.17488 0.44626,0.37992 0.69954,0.53673 0.12664,0.0784 0.27138,0.10252 0.39802,0.17489 3.96812,2.91877 5.61446,8.06298 4.07062,12.74264 -1.54383,4.67967 -5.92199,7.83373 -10.855,7.82169 z m 53.06313,-136.13532 c 0,-7.57437 3.00925,-14.83533 8.3645,-20.19645 5.35525,-5.35525 12.62208,-8.3645 20.19644,-8.3645 7.57436,0 14.83533,3.00925 20.19027,8.3645 5.35526,5.36128 8.3645,12.62208 8.3645,20.19645 0,7.57435 -3.00924,14.84134 -8.3645,20.19644 -5.35525,5.35509 -12.61606,8.36448 -20.19027,8.36448 -7.57436,-0.0121 -14.83532,-3.02127 -20.19027,-8.37653 -5.34907,-5.35525 -8.36449,-12.61004 -8.37051,-20.1841 z m 119.94822,170.40844 c -4.92698,0.0121 -9.30514,-3.14201 -10.84898,-7.82168 -1.54383,-4.67967 0.0965,-9.82389 4.07063,-12.74266 0.13267,-0.0724 0.27138,-0.0965 0.39801,-0.17488 0.25328,-0.15679 0.45834,-0.36184 0.69955,-0.53673 1.71874,-1.01918 3.68466,-1.5619 5.68084,-1.57394 6.30796,0 11.42191,5.11396 11.42191,11.42793 0,6.30795 -5.11395,11.4219 -11.42191,11.4219 z"
     id="path11"
     style="stroke-width:1.54384" />
  <path
     d="m 552.84844,211.37883 c 4.36611,-11.87425 3.61227,-25.02711 -2.08063,-36.3218 -5.69891,-11.30133 -15.81812,-19.73175 -27.9573,-23.28412 v -0.42214 c -0.0121,-13.33966 -5.84974,-26.01052 -15.98641,-34.68841 -10.1314,-8.68408 -23.54964,-12.50753 -36.73245,-10.46906 -3.2385,-13.140648 -12.12758,-24.170272 -24.27988,-30.12947 -12.14565,-5.958278 -26.3054,-6.241724 -38.68078,-0.765878 -5.86178,-9.112182 -14.76291,-15.855187 -25.12282,-19.032395 -10.36051,-3.178138 -21.51179,-2.581136 -31.47415,1.676451 -10.70433,-5.879848 -23.31499,-7.218662 -35.02035,-3.726972 -11.69933,3.491692 -21.51796,11.530595 -27.24559,22.313045 -3.61843,-0.910619 -7.33923,-1.374973 -11.07222,-1.374973 -10.22791,0.01804 -20.14858,3.449544 -28.1935,9.763512 -8.04477,6.307958 -13.74368,15.13082 -16.19174,25.05644 -13.18898,-2.05639 -26.6188,1.75488 -36.75716,10.43894 -10.13743,8.67805 -15.96943,21.3605 -15.96324,34.71159 v 0.41007 c -12.13964,3.56409 -22.26519,12.00083 -27.95731,23.30263 -5.69289,11.30736 -6.44674,24.46051 -2.08062,36.34033 -12.36874,6.20544 -21.2586,17.68771 -24.17028,31.21478 -2.91167,13.52708 0.45834,27.65008 9.17254,38.39671 -6.0367,10.61386 -5.97634,23.63456 0.15679,34.18204 6.13922,10.5535 17.42217,17.04856 29.62774,17.04856 h 52.12911 c 2.54485,-8.53925 7.04977,-16.36156 13.15872,-22.84411 h -65.28722 c -4.61947,-0.006 -8.78056,-2.79218 -10.55349,-7.06181 -1.76693,-4.26963 -0.79604,-9.17856 2.46657,-12.45319 0.2171,-0.22917 0.45834,-0.44626 0.70558,-0.63924 2.9248,-2.18916 4.62548,-5.63854 4.58334,-9.28709 -0.0422,-3.64854 -1.82728,-7.05578 -4.80642,-9.17253 -5.05961,-3.62447 -8.41868,-9.1605 -9.29913,-15.3238 -0.88047,-6.1633 0.79604,-12.41707 4.64354,-17.30793 3.84755,-4.89689 9.52839,-8.00865 15.72859,-8.60564 4.26963,-0.42215 7.94828,-3.20222 9.51635,-7.2006 1.56791,-3.9922 0.75986,-8.53323 -2.08665,-11.74164 -3.64854,-4.14303 -5.65676,-9.47404 -5.63855,-14.99202 0.006,-6.0668 2.42429,-11.88026 6.71816,-16.1624 4.29371,-4.28769 10.11335,-6.6879 16.17939,-6.68187 3.61843,0 7.02568,-1.71273 9.17855,-4.61947 2.15288,-2.90672 2.80422,-6.65778 1.75488,-10.11936 -1.81524,-5.91598 -1.15184,-12.31455 1.83932,-17.73557 2.98516,-5.41547 8.05079,-9.38359 14.0211,-11.00585 5.97033,-1.61624 12.34467,-0.73572 17.65838,2.43633 3.84153,2.30371 8.67204,2.14686 12.36272,-0.392 3.68468,-2.54485 5.54824,-7.00761 4.7581,-11.41588 -0.15678,-0.93474 -0.22917,-1.88764 -0.22313,-2.84035 0.006,-6.06078 2.41826,-11.86823 6.69994,-16.15006 4.28167,-4.28166 10.08926,-6.693903 16.15004,-6.699926 4.1611,-0.01804 8.24377,1.139784 11.77776,3.334996 3.20824,1.97194 7.17637,2.23732 10.61989,0.71161 3.4375,-1.52574 5.90394,-4.649562 6.59742,-8.34627 0.98299,-5.222488 3.7631,-9.932421 7.85781,-13.315583 4.09471,-3.389173 9.23892,-5.240543 14.55188,-5.234521 5.15007,-0.01804 10.14947,1.730788 14.15989,4.969291 3.87163,3.105737 9.29913,3.359084 13.44217,0.62115 3.67865,-2.406219 7.98456,-3.672631 12.38078,-3.648542 5.1683,0.03011 10.17356,1.79116 14.21409,5.011435 4.04052,3.214264 6.88087,7.701111 8.06298,12.730624 0.91665,4.004392 3.91393,7.212636 7.84577,8.394596 3.93801,1.18199 8.20764,0.16283 11.18075,-2.67161 4.34204,-4.143029 10.13745,-6.416483 16.13771,-6.326173 6.00042,0.09045 11.72959,2.538845 15.93854,6.814653 4.21545,4.26962 6.58538,10.0289 6.5914,16.03581 0.006,1.04329 -0.0663,2.08061 -0.21711,3.11777 -0.65129,4.36611 1.27851,8.72019 4.9571,11.17473 3.67263,2.45439 8.43073,2.56909 12.22408,0.29551 3.49772,-2.09869 7.50814,-3.19621 11.59683,-3.1661 6.05476,0.006 11.86221,2.41225 16.14387,6.69993 4.2877,4.28167 6.69392,10.08927 6.69994,16.15006 0.0121,2.24334 -0.31962,4.47464 -0.97695,6.61564 -1.05536,3.47965 -0.40405,7.24877 1.76089,10.16754 2.1589,2.91878 5.57834,4.63752 9.21484,4.6315 5.87383,0 11.52442,2.26141 15.77644,6.31398 4.25157,4.05858 6.77837,9.6008 7.04375,15.46922 0.27138,5.87382 -1.73681,11.62091 -5.59639,16.04815 -2.81627,3.21427 -3.60023,7.73725 -2.03834,11.71138 1.56793,3.97414 5.22249,6.74826 9.47406,7.17636 6.30193,0.65131 12.04916,3.88367 15.87833,8.93139 3.82346,5.04757 5.38536,11.45217 4.31194,17.69389 -1.07345,6.24173 -4.69187,11.7597 -9.98676,15.23333 -3.49771,2.29166 -5.46379,6.31397 -5.11997,10.48125 0.33771,4.16711 2.93081,7.81566 6.75428,9.51032 3.42545,1.51368 5.89188,4.61344 6.59741,8.29812 0.69954,3.67864 -0.44625,7.46582 -3.07563,10.13743 -2.15889,2.16491 -5.08986,3.38918 -8.14727,3.40121 H 439.15988 l 14.08147,22.84413 h 88.58985 c 8.67203,0.006 17.03004,-3.27463 23.3752,-9.1906 6.35026,-5.91597 10.20984,-14.02111 10.81287,-22.67585 0.60305,-8.65396 -2.10472,-17.21684 -7.56835,-23.95413 8.34026,-10.80685 11.42191,-24.77391 8.40664,-38.08331 -3.02128,-13.31557 -11.82607,-24.58711 -24.00817,-30.73775 z"
     id="path13"
     style="stroke-width:1.54384" />
  <path
     d="m 336.68073,313.16383 -11.63912,18.88728 c 0.50054,1.30865 1.03123,2.60522 1.43528,3.95608 h 46.26101 l -14.08148,-22.8503 z"
     id="path15"
     style="stroke-width:1.54384" />
</svg>
