<?xml version="1.0" encoding="UTF-8" standalone="no"?>
<svg
   width="752pt"
   height="752pt"
   version="1.1"
   viewBox="0 0 752 752"
   id="svg23"
   sodipodi:docname="electromobility.svg"
   inkscape:version="1.1 (c68e22c387, 2021-05-23)"
   xmlns:inkscape="http://www.inkscape.org/namespaces/inkscape"
   xmlns:sodipodi="http://sodipodi.sourceforge.net/DTD/sodipodi-0.dtd"
   xmlns="http://www.w3.org/2000/svg"
   xmlns:svg="http://www.w3.org/2000/svg">
  <sodipodi:namedview
     id="namedview25"
     pagecolor="#ffffff"
     bordercolor="#666666"
     borderopacity="1.0"
     inkscape:pageshadow="2"
     inkscape:pageopacity="0.0"
     inkscape:pagecheckerboard="0"
     inkscape:document-units="pt"
     showgrid="false"
     inkscape:zoom="0.29055319"
     inkscape:cx="1354.3131"
     inkscape:cy="438.81811"
     inkscape:window-width="1920"
     inkscape:window-height="1009"
     inkscape:window-x="-8"
     inkscape:window-y="-8"
     inkscape:window-maximized="1"
     inkscape:current-layer="svg23" />
  <defs
     id="defs5">
    <clipPath
       id="a">
      <path
         d="m139.21 376h473.58v215h-473.58z"
         id="path2" />
    </clipPath>
    <clipPath
       id="a-0">
      <path
         d="M 234,139.21 H 518 V 612.79 H 234 Z"
         id="path2-0" />
    </clipPath>
  </defs>
  <path
     d="m 193.28962,593.40726 c -31.33439,0 -56.82641,25.49202 -56.82641,56.8264 0,31.3344 25.49202,56.82642 56.82641,56.82642 31.33439,0 56.82641,-25.49202 56.82641,-56.82642 0,-31.33438 -25.49202,-56.8264 -56.82641,-56.8264 z m 0,90.91457 c -18.79572,0 -34.09431,-15.29843 -34.09431,-34.0943 0,-18.79587 15.29844,-34.09432 34.09431,-34.09432 18.79587,0 34.09432,15.29845 34.09432,34.09432 0,18.79587 -15.29845,34.0943 -34.09432,34.0943 z"
     id="path7"
     style="stroke-width:1.53584" />
  <path
     d="m 556.96328,593.40726 c -31.3344,0 -56.82642,25.49202 -56.82642,56.8264 0,31.3344 25.49202,56.82642 56.82642,56.82642 31.33438,0 56.82641,-25.49202 56.82641,-56.82642 -0.006,-31.33438 -25.49816,-56.8264 -56.82641,-56.8264 z m 0,90.91457 c -18.79572,0 -34.09432,-15.29843 -34.09432,-34.0943 0,-18.79587 15.29845,-34.09432 34.09432,-34.09432 18.79572,0 34.09431,15.29845 34.09431,34.09432 0,18.79587 -15.29844,34.0943 -34.09431,34.0943 z"
     id="path9"
     style="stroke-width:1.53584" />
  <g
     clip-path="url(#a)"
     id="g13"
     transform="matrix(1.5358489,0,0,1.5358489,-202.3604,-165.91642)">
    <path
       d="m 612.64,507.75 -14.801,-73.996 c -0.6875,-3.457 -3.7227,-5.9492 -7.25,-5.9492 H 568.39 c -28.059,0 -43.215,-9.8047 -60.758,-21.156 -22.195,-14.371 -47.34,-30.645 -102.04,-30.645 -42.008,0 -82.863,24.508 -115.7,44.215 -19.188,11.508 -37.309,22.383 -47.098,22.383 h -22.199 c -49.699,0 -81.398,48.586 -81.398,74 v 22.199 c 0,12.238 9.9609,22.199 22.199,22.199 H 206.4 c 10.262,17.664 29.34,29.598 51.191,29.598 21.852,0 40.93,-11.938 51.191,-29.598 h 134.41 c 10.262,17.664 29.34,29.598 51.191,29.598 21.852,0 40.93,-11.938 51.191,-29.598 l 22.809,-0.004 c 1.3477,0 2.6562,-0.36328 3.8125,-1.0586 4.1484,-2.4844 40.586,-25.09 40.586,-50.738 0,-0.48047 -0.0547,-0.97656 -0.14844,-1.4492 z M 257.6,575.797 c -24.484,0 -44.398,-19.914 -44.398,-44.398 0,-24.484 19.914,-44.398 44.398,-44.398 24.484,0 44.398,19.914 44.398,44.398 0,24.484 -19.914,44.398 -44.398,44.398 z m 236.79,0 c -24.484,0 -44.398,-19.914 -44.398,-44.398 0,-24.484 19.914,-44.398 44.398,-44.398 24.484,0 44.398,19.914 44.398,44.398 -0.004,24.484 -19.914,44.398 -44.398,44.398 z m 71.879,-29.598 h -14.637 c 1.2266,-4.7422 1.9531,-9.6875 1.9531,-14.801 0,-32.641 -26.559,-59.199 -59.199,-59.199 -32.64,0 -59.199,26.559 -59.199,59.199 0,5.1133 0.72656,10.055 1.9531,14.801 h -122.3 c 1.2266,-4.7422 1.9531,-9.6875 1.9531,-14.801 0,-32.641 -26.559,-59.199 -59.199,-59.199 -32.64,0 -59.199,26.559 -59.199,59.199 0,5.1133 0.72656,10.055 1.9531,14.801 h -38.949 c -4.0859,0 -7.3984,-3.3164 -7.3984,-7.3984 v -22.199 c 0,-17.574 25.848,-59.199 66.598,-59.199 h 22.199 c 13.891,0 31.898,-10.812 54.715,-24.5 31.262,-18.758 70.168,-42.098 108.08,-42.098 50.324,0 72.523,14.363 93.992,28.258 18.695,12.109 36.367,23.539 68.801,23.539 h 16.141 l 13.445,67.25 c -0.67578,13.668 -22.047,30.145 -31.703,36.348 z"
       id="path11" />
  </g>
  <path
     d="M 431.94518,627.5031 H 318.2985 c -6.28745,0 -11.36281,5.08151 -11.36281,11.36283 0,6.28745 5.0815,11.36283 11.36281,11.36283 h 113.64668 c 6.28746,0 11.36283,-5.08153 11.36283,-11.36283 0,-6.28746 -5.07552,-11.36283 -11.36283,-11.36283 z"
     id="path15"
     style="stroke-width:1.53584" />
  <path
     d="m 562.95309,504.20516 c -3.97754,-2.47779 -7.85326,-4.97953 -11.65079,-7.42123 -31.58014,-20.44521 -61.42783,-39.75237 -132.00468,-39.75237 -43.28022,0 -89.98539,23.76419 -129.96507,47.00465 -4.4575,2.57976 -6.60538,7.81716 -5.27349,12.77273 1.34387,4.96756 5.84344,8.41124 10.97886,8.41124 h 261.92366 c 5.06954,0 9.53303,-3.36566 10.93096,-8.24921 1.38585,-4.86556 -0.62395,-10.08499 -4.93147,-12.76673 z m -222.97455,-1.71585 c 26.62548,-12.94675 54.174,-22.7321 79.31278,-22.7321 48.83539,0 74.72211,9.31707 98.15611,22.7321 z"
     id="path17"
     style="stroke-width:1.53584" />
  <path
     d="m 504.56727,199.21131 c -6.60551,38.17381 15.98003,50.65567 32.14832,48.18043 4.54285,-0.94546 8.78522,-2.96053 12.38662,-5.88078 3.49708,-40.79404 20.25037,-87.37626 37.00774,-111.99956 0,0 -30.49759,60.9029 -18.79616,153.62225 l 0.58487,5.5364 c -38.94694,-33.21027 -83.38894,-59.3769 -131.32284,-77.31365 -44.21525,-14.1771 -89.31863,-25.4068 -135.02298,-33.60705 52.4555,-4.56674 117.44005,8.83711 164.21096,29.57565 0.10017,0.0601 0.19632,0.12421 0.28846,0.19226 3.13275,-1.81077 5.98095,-4.06608 8.4567,-6.70206 3.20894,-3.39308 5.3681,-7.64358 6.21336,-12.23842 3.98218,-21.761 -23.11472,-45.55565 -60.17866,-54.34578 -94.12128,-22.43788 -170.52628,38.80756 -170.52628,38.80756 0.008,5.1e-4 50.31931,88.29721 143.42528,108.83781 37.30004,8.25665 71.59214,-2.43157 74.60006,-24.38126 0.59285,-3.82167 0.39257,-7.72357 -0.58487,-11.46527 44.34243,15.10625 80.52564,56.72896 109.66952,88.78126 l 20.40309,-18.45248 c -5.18377,-4.36652 -9.14974,-10.00703 -11.50548,-16.3688 -3.45721,-8.66513 -5.92927,-17.69103 -7.38739,-26.90471 -2.80024,-14.63399 -3.7658,-29.56436 -2.86333,-44.43883 7.50729,6.09715 17.00925,9.19747 26.66383,8.6928 16.17239,-2.47976 21.7128,-27.44148 11.89834,-54.93015 -26.12366,-73.434 7.72851,-98.448034 7.72851,-98.448034 0,0 -104.76539,42.207254 -117.48601,115.250764 z"
     id="path2-8"
     sodipodi:nodetypes="ccccccccccccccccccccccccccc"
     style="stroke-width:1.45034" />
  <g
     clip-path="url(#a-0)"
     id="g9"
     transform="matrix(0.62220589,0,0,0.62220589,429.4473,71.902851)">
    <path
       d="m 318.67,612.79 c -1,0 -2.0039,-0.19922 -2.9688,-0.62109 -3.2188,-1.4141 -5.0039,-4.8906 -4.2695,-8.3242 l 38.332,-179.71 h -107.78 c -2.7656,0 -5.2969,-1.5391 -6.5703,-4.0039 -1.2734,-2.4648 -1.0664,-5.418 0.53125,-7.6797 l 191.34,-270.12 c 2.0273,-2.8711 5.7852,-3.8984 9.0039,-2.5 3.2188,1.4141 5.0039,4.8906 4.2695,8.3242 l -38.332,179.71 h 107.79 c 2.7656,0 5.2969,1.5391 6.5703,4.0039 1.2734,2.4648 1.0664,5.418 -0.53125,7.6797 l -191.34,270.12 c -1.4297,2.0156 -3.6992,3.125 -6.0469,3.125 z"
       id="path7-9" />
  </g>
</svg>
