<?xml version="1.0" encoding="UTF-8" standalone="no"?>
<svg
   width="752pt"
   height="752pt"
   version="1.1"
   viewBox="0 0 752 752"
   id="svg18"
   sodipodi:docname="european_studies.svg"
   inkscape:version="1.1 (c68e22c387, 2021-05-23)"
   xmlns:inkscape="http://www.inkscape.org/namespaces/inkscape"
   xmlns:sodipodi="http://sodipodi.sourceforge.net/DTD/sodipodi-0.dtd"
   xmlns="http://www.w3.org/2000/svg"
   xmlns:svg="http://www.w3.org/2000/svg">
  <defs
     id="defs22" />
  <sodipodi:namedview
     id="namedview20"
     pagecolor="#ffffff"
     bordercolor="#666666"
     borderopacity="1.0"
     inkscape:pageshadow="2"
     inkscape:pageopacity="0.0"
     inkscape:pagecheckerboard="0"
     inkscape:document-units="pt"
     showgrid="false"
     inkscape:zoom="0.82180851"
     inkscape:cx="621.19094"
     inkscape:cy="455.70227"
     inkscape:window-width="1920"
     inkscape:window-height="1009"
     inkscape:window-x="-8"
     inkscape:window-y="-8"
     inkscape:window-maximized="1"
     inkscape:current-layer="svg18" />
  <g
     id="g16"
     transform="matrix(1.7234681,0,0,1.7234681,-223.96774,-270.36859)">
    <path
       d="m 550.75,463.61 -23.207,-7.5781 c 0,0 -0.47266,0 -0.47266,-0.47266 l -10.418,-9.4727 c -0.47266,-0.47266 -0.47266,-0.47266 -0.47266,-0.94531 l -0.94922,-7.5781 c -0.47266,-2.8398 -2.8398,-4.7344 -5.6836,-4.7344 h -9.9453 c -0.94531,0 -1.4219,-0.47266 -1.4219,-1.4219 l -1.4219,-5.6836 c 0,-0.94531 0.47266,-1.8945 0.94531,-1.8945 l 1.8945,-0.47266 c 1.8945,-0.47266 3.3164,-2.3672 3.7891,-4.2617 0.47266,-1.8945 0,-4.2617 -1.8945,-5.6836 l -8.0508,-7.1055 c -0.47266,-0.47266 -0.47266,-0.47266 -0.47266,-0.94531 l -0.47266,-8.0508 c 0,-2.3672 -1.8945,-4.7344 -4.7344,-5.2109 l -14.68,-2.8398 c -0.94531,0 -1.4219,-0.94531 -1.4219,-1.4219 l -0.94531,-22.258 c 0,-0.47266 0,-0.94531 -0.47266,-1.8945 l -3.7891,-10.418 c -0.47266,-0.94531 0,-1.8945 0.94531,-1.8945 l 3.7891,-1.4219 c 0.94531,-0.47266 1.4219,-1.4219 0.94531,-2.3672 0,-0.94531 -0.94531,-1.4219 -1.8945,-1.4219 h -19.891 c -2.3672,0 -4.2617,1.4219 -5.2109,3.7891 l -1.8945,5.2109 c -0.47266,1.4219 -0.47266,3.3164 0.47266,4.7344 l 4.2617,8.5234 c 0.47266,0.47266 0.47266,0.94531 0,1.4219 l -3.7891,6.6289 c -0.47266,0.94531 -1.4219,1.4219 -2.3672,0.47266 l -3.7891,-3.3164 c -0.94531,-0.94531 -2.3672,-1.4219 -3.7891,-1.4219 -2.8398,0 -4.7344,1.8945 -5.6836,4.2617 l -4.7344,19.418 -4.7344,13.734 c 0,0.47266 -0.94531,0.94531 -1.4219,0.94531 h -9.9453 c -0.94531,0 -1.4219,-0.47266 -1.4219,-0.94531 l -0.94531,-2.3672 c -0.47266,-0.94531 -1.4219,-1.4219 -2.3672,-1.4219 l -16.574,4.7344 c -1.8945,0.47266 -2.8398,1.4219 -3.7891,3.3164 l -4.2617,9.4727 c -0.47266,0.94531 -1.4219,0.94531 -1.4219,0.94531 -0.47266,0 -0.94531,0 -1.4219,-0.94531 l -4.2578,-9.4688 c -0.94531,-1.8945 -2.8398,-3.3164 -5.2109,-3.3164 h -0.47266 l -13.258,1.4219 c -0.47266,0 -0.94531,-0.47266 -1.4219,-0.94531 l -5.2109,-8.0508 c -0.47266,-0.47266 -0.47266,-0.94531 0,-1.4219 l 5.2109,-12.785 c 0.47266,-0.94531 0.47266,-1.4219 0.47266,-2.3672 l -0.47266,-10.418 c 0,-3.7891 -4.2617,-6.6289 -8.0508,-4.7344 l -4.7383,1.418 c -1.4219,0.47266 -2.8398,2.3672 -3.3164,3.7891 l -2.8398,12.312 c -0.47266,0.94531 0,1.8945 0,3.3164 l 5.6836,16.574 3.3164,7.5781 v 1.4219 c 0,0.47266 -0.47266,0.94531 -0.94531,0.94531 l -8.9961,3.7891 h -0.94531 l -3.7891,-0.94531 c -2.3672,-0.47266 -4.7344,0.47266 -6.1562,2.3672 l -14.207,22.73 c 0,0.47266 -0.47266,0.47266 -0.94531,0.47266 l -10.418,3.7891 c -0.94531,0.47266 -1.8945,0.94531 -2.3672,1.8945 l -11.84,15.156 c -0.47266,0.47266 -0.94531,0.47266 -1.4219,0.47266 l -3.3164,-0.47266 c -2.8398,-0.47266 -6.1562,1.4219 -6.6289,4.7344 0,0.47266 -0.94531,1.4219 -1.4219,1.4219 l -4.7344,0.47266 c -2.3672,0.47266 -4.7344,1.8945 -5.2109,4.7344 -0.47266,2.3672 0.47266,4.7344 2.8398,6.1562 l 4.2617,2.3672 c 0.47266,0 0.47266,0.47266 0.47266,0.47266 l 10.891,21.785 v 1.4219 l -6.1562,15.156 c -0.47266,0.47266 -0.94531,0.94531 -1.4219,0.94531 h -44.043 c -3.3164,0 -5.6836,2.3672 -5.6836,5.6836 v 47.359 c 0,3.3164 2.3672,5.6836 5.6836,5.6836 l 9.4688,-0.004 c 0.47266,0 0.94531,0.47266 1.4219,0.94531 l 0.94531,1.8945 c 0.94531,1.8945 2.8398,2.8398 4.7344,2.8398 0.94531,0 1.8945,0 2.8398,-0.47266 l 4.7344,-2.3672 h 0.94531 l 13.734,-0.47266 c 1.4219,0 3.3164,-0.94531 4.2617,-1.8945 l 10.418,-12.785 c 0.47266,-0.47266 0.94531,-1.4219 0.94531,-1.8945 l 5.2109,-17.996 c 0,-0.47266 0.47266,-0.94531 0.94531,-0.94531 l 13.262,-7.1055 c 1.8945,-0.94531 2.8398,-2.3672 2.8398,-4.2617 l 0.94531,-8.0508 c 0,-0.94531 0.47266,-1.4219 1.4219,-1.4219 l 17.523,-3.3164 c 1.4219,-0.47266 2.8398,-0.94531 3.7891,-2.3672 l 3.3164,-4.2617 c 0.47266,-0.47266 0.94531,-0.47266 1.8945,-0.47266 l 2.3672,0.47266 c 1.4219,0.47266 3.3164,0 4.7344,-0.94531 l 3.3164,-2.3672 c 0.47266,-0.47266 0.94531,-0.47266 1.4219,0 l 8.5234,3.3164 c 0.47266,0 0.94531,0.47266 0.94531,1.4219 l 1.8945,10.418 c 0,1.4219 0.94531,2.3672 1.8945,3.3164 l 10.418,8.9961 0.47266,0.47266 19.418,12.312 c 0.47266,0 0.47266,0.47266 0.94531,0.94531 l 1.8945,8.0508 0.0156,6.6328 c 0,0.94531 0.47266,1.8945 1.4219,1.8945 0.94531,0.47266 1.8945,0 2.3672,-0.94531 l 5.2109,-8.0508 c 0.94531,-1.4219 0.94531,-3.3164 0.47266,-4.7344 l -1.8945,-6.1562 h 0.47266 l 5.2109,2.8398 c 0.47266,0 0.47266,0.47266 0.94531,0.47266 0.94531,0 1.8945,-0.94531 1.8945,-1.8945 0,-0.47266 -0.47266,-0.94531 -0.47266,-1.4219 l -5.2109,-8.5234 c -0.47266,-0.94531 -1.4219,-1.8945 -2.3672,-2.3672 l -9.9453,-5.2109 -8.0508,-6.1562 -0.47266,-0.47266 -12.312,-21.312 c -0.47266,-0.47266 -0.47266,-1.4219 0,-1.8945 l 5.6836,-8.0508 c 0.47266,-0.94531 1.8945,-0.94531 2.8398,0 l 11.84,16.574 3.3164,5.2109 c 0.94531,1.4219 2.3672,2.3672 3.7891,2.3672 l 8.0508,0.94531 c 0.47266,0 0.47266,0 0.94531,0.47266 l 10.891,8.9961 c 0.47266,0.47266 0.47266,0.94531 0.47266,1.4219 v 14.68 c 0,0.94531 0.47266,2.3672 0.94531,3.3164 l 9.4727,14.68 c 0.47266,0.94531 1.4219,1.8945 2.8398,2.3672 l 3.7891,1.4219 c -0.47266,0.47266 -0.94531,0.94531 -1.4219,1.8945 -0.94531,1.8945 -0.47266,3.7891 0.47266,5.2109 l 0.94531,1.8945 c 0.94531,1.8945 2.8398,2.8398 5.2109,2.8398 h 1.4219 c 1.8945,0 3.3164,-0.94531 4.2617,-2.3672 0.94531,-1.4219 1.4219,-3.3164 0.47266,-5.2109 l -4.2578,-12.309 v -0.47266 l 0.47266,-12.312 c 0,-0.47266 0.47266,-1.4219 0.94531,-1.4219 l 12.312,-5.2109 h 1.4219 l 1.4219,0.94531 c 2.8398,1.4219 6.6289,0 8.0508,-2.8398 l 1.4219,-3.7891 c 0,-0.47266 0.94531,-0.94531 1.4219,-0.94531 l 4.2617,-0.47266 c 1.8945,0 3.3164,-1.4219 4.2617,-2.8398 0.94531,-1.4219 0.94531,-3.3164 0.47266,-5.2109 v -0.47266 -1.4219 l 14.207,-30.781 c 0,-0.47266 0.47266,-0.94531 0.94531,-0.94531 l 13.734,-2.8398 h 0.47266 l 5.6836,2.3672 c 0.47266,0 0.94531,0.47266 0.94531,0.94531 0,0.47265 0,0.94531 -0.47266,1.4219 -1.4219,1.8945 -1.4219,3.7891 -0.47266,5.6836 l 1.8945,3.7891 c 1.4219,2.8398 5.2109,4.2617 8.0508,2.3672 l 5.6836,-3.3164 c 1.4219,-0.94531 2.3672,-2.3672 2.8398,-3.7891 0.47266,-1.4219 0,-3.3164 -1.4219,-4.7344 l -0.94531,-1.4219 c -0.47266,-0.47266 -0.94531,-0.94531 -1.8945,-1.4219 l 28.887,-19.891 c 1.4219,-0.94531 2.3672,-2.8398 2.3672,-4.7344 v -5.6836 c 0.008,-1.4219 -1.4141,-3.793 -3.7812,-4.2656 z"
       id="path2" />
    <path
       d="m 384.53,571.12 -12.312,4.7344 c -0.47266,0.47266 -0.94531,0.94531 -1.4219,1.4219 0,0.47266 0,1.4219 0.47266,1.8945 l 4.7344,5.2109 c 0.47266,0.47266 0.94531,0.47266 1.4219,0.47266 h 7.1055 c 0.94531,0 1.8945,-0.94531 1.8945,-1.8945 l 0.94531,-9.9453 c 0,-0.47266 -0.47266,-1.4219 -0.94531,-1.8945 h -1.8945 z"
       id="path4" />
    <path
       d="m 344.75,547.91 1.4219,-0.94531 c 0.47266,-0.47266 0.47266,-0.94531 0.47266,-1.4219 v -6.1562 c 0,-0.94531 -0.47266,-1.4219 -1.4219,-1.8945 -0.94531,-0.47266 -1.8945,0 -2.3672,0.47266 l -2.8438,3.7891 c -0.47266,0.47266 -0.47266,1.4219 -0.47266,2.3672 l 0.94531,2.3672 -5.2109,4.2617 c -0.47266,0.47266 -0.94531,1.4219 -0.47266,2.3672 l 2.8398,8.9961 c 0,0.47266 0.47266,0.94531 1.4219,1.4219 h 0.47266 c 0.47266,0 0.94531,0 1.4219,-0.47266 l 6.6289,-5.2109 c 0.94531,-0.47266 0.94531,-1.4219 0.47266,-2.3672 z"
       id="path6" />
    <path
       d="m 247.66,393.05 -0.47266,9.9453 c 0,0.94531 0.47266,1.8945 0.94531,2.3672 0.47266,0.47266 1.4219,0.94531 2.3672,0.94531 h 0.94531 l 5.6836,-1.8945 1.8945,18.941 -10.891,12.789 c -0.94531,0.94531 -0.94531,2.3672 -0.47266,3.3164 0.47266,0.94531 1.4219,1.8945 2.3672,2.3672 l 9.4727,1.4219 -4.7344,4.2617 -11.367,5.2109 c -0.94531,0.47266 -1.4219,0.94531 -0.94531,1.8945 0.47266,0.94531 0.47266,1.4219 1.4219,1.8945 l 8.5234,2.3672 h 0.94531 c 0.94531,0 1.8945,-0.47266 2.3672,-0.94531 l 5.2109,-5.6836 18.469,-1.4219 c 0.94531,0 1.8945,-0.47266 2.3672,-1.4219 l 8.0508,-12.312 c 0.47266,-0.94531 0.47266,-1.8945 0.47266,-2.3672 l -0.94531,-5.2109 c -0.47266,-1.8945 -2.8398,-3.3164 -4.7344,-2.3672 l -2.8398,1.4219 -1.4219,-3.3164 -1.4219,-15.156 c 0,-0.47266 -0.47266,-0.94531 -0.47266,-1.4219 l -11.367,-15.625 c -0.47266,-0.47266 -0.47266,-0.94531 -0.94531,-0.94531 -3.7891,-1.8945 -6.1562,-3.3164 -7.5781,-3.7891 0.94531,-1.4219 2.8398,-3.7891 5.6836,-8.0508 0.47266,-0.47266 0.47266,-0.94531 0.47266,-1.4219 l 0.94531,-5.6836 c 0,-1.4219 -0.94531,-3.3164 -2.3672,-3.7891 l -8.9961,-2.3672 h -0.94531 -0.47266 l 5.2109,-7.5781 c 0.47266,-0.47266 0.47266,-1.4219 0,-1.8945 -0.47266,-0.47266 -0.94531,-0.94531 -1.8945,-0.94531 h -7.1055 c -0.94531,0 -2.3672,0.47266 -2.8398,1.4219 l -8.5234,14.207 c -0.47266,0.94531 -0.47266,2.3672 0,3.3164 z"
       id="path8" />
    <path
       d="m 238.19,429.52 -0.94531,-8.9961 3.7891,-8.0508 c 0.47266,-0.94531 0.47266,-1.8945 0,-2.3672 l -2.8398,-8.5234 c -0.47266,-1.4219 -1.8945,-2.3672 -3.3164,-2.3672 h -0.94531 l -12.785,3.3164 c -0.94531,0 -1.4219,0.47266 -1.8945,1.4219 l -5.2109,7.5781 c -0.47266,0.47266 -0.47266,1.4219 -0.47266,1.8945 v 9.4727 c 0,0.94531 0.94531,1.8945 1.8945,1.8945 h 0.94531 c -1.4219,1.4102 -1.4219,1.8867 -1.4219,2.3594 0,0.94531 0.47266,1.8945 1.8945,2.8398 l -5.6836,6.1562 c -0.94531,1.4219 -0.94531,3.3164 0,4.7344 l 2.3672,2.3672 c 0.47266,0.47266 1.4219,0.94531 2.3672,0.94531 0.47266,0 1.4219,0 1.8945,-0.47266 l 18.469,-10.891 c 1.4219,-0.46875 1.8945,-1.8906 1.8945,-3.3125 z"
       id="path10" />
    <path
       d="m 315.86,321.54 c 0.47266,1.4219 1.8945,2.3672 3.3164,2.3672 h 0.94531 l 8.9961,-2.8398 -9.4727,35.52 c -0.47266,0.94531 0,1.8945 0.47266,2.8398 0.47266,0.94531 1.4219,1.4219 2.8398,1.4219 h 18.469 c 1.4219,0 2.8398,-0.94531 3.3164,-1.8945 l 5.6836,-14.207 20.836,50.672 c 0.47266,1.4219 1.8945,1.8945 2.8398,1.8945 0.47266,0 0.94531,0 1.4219,-0.47266 l 13.734,-7.1055 c 0.94531,-0.47266 1.8945,-1.4219 1.8945,-2.8398 l 3.3164,-37.414 10.418,-2.8398 c 1.4219,-0.47266 2.3672,-1.4219 2.3672,-2.8398 l 0.47266,-5.2109 c 0,-0.94531 0,-1.8945 -0.94531,-2.3672 -0.47266,-0.47266 -1.4219,-0.94531 -2.8398,-0.94531 l -10.418,1.4219 7.5781,-35.992 22.258,-17.051 c 0.47266,-0.47266 0.94531,-1.4219 1.4219,-2.3672 l 1.8945,-15.156 7.1055,-15.156 12.312,-2.3672 7.5781,16.574 -12.785,15.629 -14.68,17.051 c -0.47266,0.47266 -0.94531,1.4219 -0.94531,2.3672 l 1.8945,25.574 c 0,0.94531 0.47266,1.8945 1.4219,2.3672 l 10.418,8.5234 c 0.47266,0.47266 1.4219,0.94531 1.8945,0.94531 h 0.94531 l 11.367,-4.2617 15.156,-0.47266 c 0.94531,0 1.8945,-0.47266 2.3672,-1.4219 l 24.152,-31.73 c 0.94531,-1.4219 0.94531,-2.8398 0,-4.2617 l -5.2148,-8.0508 -3.7891,-20.363 3.7891,-10.418 c 0.47266,-0.94531 0.47266,-1.4219 0,-2.3672 l -6.6289,-17.996 3.3164,-20.363 c 0,-0.94531 0,-1.8945 -0.94531,-2.8398 l -8.0547,-7.582 2.3672,-26.52 8.5234,-8.5234 c 0.94922,-1.4219 1.4219,-2.8438 0.94922,-3.7891 l -1.4219,-3.7891 c -0.47266,-1.4219 -1.8945,-2.3672 -3.3164,-2.3672 l -32.203,0.94531 c -0.47266,0 -0.94531,0 -1.4219,0.47266 l -26.047,13.734 -22.258,13.734 c -0.47266,0.47266 -0.94531,0.47266 -0.94531,0.94531 l -21.785,31.258 c 0,0 -0.47266,0.47266 -0.47266,0.47266 l -21.785,45.465 -6.1562,4.2617 c -1.4219,0.94531 -1.8945,2.3672 -1.4219,4.2617 l 1.4219,4.2617 c 0.47266,0.94531 0.94531,1.4219 1.8945,1.8945 l 1.8945,0.94531 -20.363,7.582 c -0.47266,0 -0.94531,0.47266 -1.4219,0.94531 l -18.469,20.363 c -0.47266,0.94922 -0.94922,2.3711 -0.47266,3.3164 z"
       id="path12" />
    <path
       d="m 213.09,190.83 c 0.47266,0 0.94531,0 1.4219,-0.47266 l 10.891,-6.1562 c 0.94531,-0.47266 1.4219,-1.4219 1.4219,-2.3672 0,-0.94531 0,-1.8945 -0.47266,-2.8398 l -5.2109,-6.6289 c -0.47266,-0.004 -1.4219,-0.48047 -2.3672,-0.48047 h -0.94531 l -3.3164,0.94531 c -3.3164,-6.1562 -4.2617,-6.6289 -5.6836,-6.6289 -0.94531,0 -1.8945,0 -8.9961,7.1055 -0.47266,0.47266 -0.94531,0.94531 -0.94531,1.8945 l -1.4219,7.5781 c -0.47266,1.4219 0.47266,3.3164 2.3672,3.7891 l 12.312,4.2617 h 0.94531 z"
       id="path14" />
  </g>
  <path
     sodipodi:type="star"
     style="fill:#161616;fill-opacity:0;stroke:#000000;stroke-width:26.9733;stroke-linecap:round;stroke-miterlimit:5.5"
     id="path898"
     inkscape:flatsided="false"
     sodipodi:sides="5"
     sodipodi:cx="183.7411"
     sodipodi:cy="326.11002"
     sodipodi:r1="69.689331"
     sodipodi:r2="34.844666"
     sodipodi:arg1="1.1383886"
     sodipodi:arg2="1.7667071"
     inkscape:rounded="0"
     inkscape:randomized="0"
     d="m 212.94499,389.3851 -35.98675,-29.09697 -44.37082,13.1495 16.55235,-43.21688 -26.21726,-38.13574 46.21665,2.38746 28.16767,-36.71868 12.01112,44.69242 43.62583,15.44234 -38.79338,25.23397 z"
     transform="scale(0.75)"
     inkscape:transform-center-x="-3.1440288"
     inkscape:transform-center-y="-1.9054301" />
  <path
     sodipodi:type="star"
     style="fill:#161616;fill-opacity:0;stroke:#000000;stroke-width:26.9733;stroke-linecap:round;stroke-miterlimit:5.5"
     id="path900"
     inkscape:flatsided="false"
     sodipodi:sides="5"
     sodipodi:cx="289.60519"
     sodipodi:cy="169.13916"
     sodipodi:r1="59.075737"
     sodipodi:r2="29.537868"
     sodipodi:arg1="1.0056469"
     sodipodi:arg2="1.6339654"
     inkscape:rounded="0"
     inkscape:randomized="0"
     d="m 321.24273,219.02913 -33.50218,-20.41101 -35.807,16.02698 9.05929,-38.16982 -26.30754,-29.10187 39.10112,-3.17923 19.54805,-34.01293 15.10654,36.20494 38.3889,8.08073 -29.76477,25.55512 z"
     transform="scale(0.75)"
     inkscape:transform-center-x="-0.86430802"
     inkscape:transform-center-y="-3.4004789" />
  <path
     sodipodi:type="star"
     style="fill:#161616;fill-opacity:0;stroke:#000000;stroke-width:26.9733;stroke-linecap:round;stroke-miterlimit:5.5"
     id="path914"
     inkscape:flatsided="false"
     sodipodi:sides="5"
     sodipodi:cx="446.57605"
     sodipodi:cy="94.912621"
     sodipodi:r1="66.3032"
     sodipodi:r2="33.1516"
     sodipodi:arg1="0.74645682"
     sodipodi:arg2="1.3747754"
     inkscape:rounded="0"
     inkscape:randomized="0"
     d="M 495.24919,139.93528 453.03292,127.42935 418.79779,155.1163 417.64609,111.10169 380.735,87.097882 422.23948,72.401291 433.6623,29.879172 460.46518,64.810784 504.43597,62.534478 479.49658,98.819992 Z"
     transform="scale(0.75)"
     inkscape:transform-center-x="2.992925"
     inkscape:transform-center-y="-1.8111653" />
</svg>
