<?xml version="1.0" encoding="UTF-8" standalone="no"?>
<svg
   width="752pt"
   height="752pt"
   version="1.1"
   viewBox="0 0 752 752"
   id="svg16"
   sodipodi:docname="gas_engineering.svg"
   inkscape:version="1.1 (c68e22c387, 2021-05-23)"
   xmlns:inkscape="http://www.inkscape.org/namespaces/inkscape"
   xmlns:sodipodi="http://sodipodi.sourceforge.net/DTD/sodipodi-0.dtd"
   xmlns="http://www.w3.org/2000/svg"
   xmlns:svg="http://www.w3.org/2000/svg">
  <defs
     id="defs20" />
  <sodipodi:namedview
     id="namedview18"
     pagecolor="#ffffff"
     bordercolor="#666666"
     borderopacity="1.0"
     inkscape:pageshadow="2"
     inkscape:pageopacity="0.0"
     inkscape:pagecheckerboard="0"
     inkscape:document-units="pt"
     showgrid="false"
     inkscape:zoom="0.82180851"
     inkscape:cx="501.94175"
     inkscape:cy="470.30421"
     inkscape:window-width="1920"
     inkscape:window-height="1009"
     inkscape:window-x="-8"
     inkscape:window-y="-8"
     inkscape:window-maximized="1"
     inkscape:current-layer="g14" />
  <g
     id="g14"
     transform="matrix(1.9040678,0,0,1.9040678,-339.92948,-341.01156)">
    <path
       d="m 376.1,297.67 c 62.133,0 112.86,-24.957 112.86,-55.551 0.043,-30.688 -50.676,-55.551 -112.86,-55.551 -62.371,0 -113.09,24.863 -113.09,55.551 -0.004,30.594 50.719,55.551 113.09,55.551 z m 0,-98.883 c 57.539,0 100.64,22.875 100.64,43.332 0,20.457 -43.145,43.332 -100.64,43.332 -57.777,0 -100.87,-22.875 -100.87,-43.332 -0.004,-20.461 43.141,-43.332 100.87,-43.332 z"
       id="path2" />
    <path
       d="m 376.1,277.21 c 57.305,0 92.395,-22.777 92.395,-35.094 0,-12.406 -35.094,-35.094 -92.395,-35.094 -57.445,0 -92.633,22.684 -92.633,35.094 0,12.316 35.234,35.094 92.633,35.094 z m 52.047,-49.156 c 10.891,0 19.371,6.1562 19.371,14.066 0,7.8125 -8.4766,13.969 -19.371,13.969 -10.891,0 -19.371,-6.1562 -19.371,-13.969 0,-7.9102 8.4766,-14.066 19.371,-14.066 z"
       id="path4" />
    <path
       d="m 263,295.92 c 0.57031,30.359 51.055,54.984 113,54.984 62.039,0 112.52,-24.625 113,-55.125 v -30.262 c -17.379,23.773 -60.715,40.348 -112.86,40.348 -52.234,0 -95.711,-16.621 -113.09,-40.348 v 30.402 z"
       id="path6" />
    <path
       d="m 263,457.17 c 0.57031,30.359 51.055,55.031 113,55.031 62.039,0 112.52,-24.77 113,-55.125 v -138.19 c -17.477,23.773 -60.855,40.254 -113,40.254 -52.145,0 -95.473,-16.48 -113,-40.254 z m 109.49,-69.047 c 1.5625,-2.4141 5.4922,-2.4141 7.0547,0 2.7461,4.4062 27.516,44.234 27.516,59.719 0,17.145 -13.875,31.113 -31.02,31.113 -17.051,0 -31.02,-13.969 -31.02,-31.113 -0.0469,-15.535 24.723,-55.363 27.469,-59.719 z"
       id="path8" />
    <path
       d="m 263,510.12 c 0.23828,30.543 50.863,55.312 113,55.312 62.277,0 112.86,-24.77 113,-55.312 v -0.0937 -29.93 c -17.52,23.867 -60.852,40.348 -113,40.348 -52.141,0 -95.473,-16.48 -113,-40.258 z"
       id="path10" />
  </g>
</svg>
