<?xml version="1.0" encoding="UTF-8" standalone="no"?>
<svg
   height="300px"
   width="300px"
   fill="#000000"
   data-name="Layer 1"
   viewBox="0 0 80 80"
   x="0px"
   y="0px"
   version="1.1"
   id="svg10"
   sodipodi:docname="mathematics_theoretical2.svg"
   inkscape:version="1.1 (c68e22c387, 2021-05-23)"
   xmlns:inkscape="http://www.inkscape.org/namespaces/inkscape"
   xmlns:sodipodi="http://sodipodi.sourceforge.net/DTD/sodipodi-0.dtd"
   xmlns="http://www.w3.org/2000/svg"
   xmlns:svg="http://www.w3.org/2000/svg"
   xmlns:rdf="http://www.w3.org/1999/02/22-rdf-syntax-ns#"
   xmlns:cc="http://creativecommons.org/ns#"
   xmlns:dc="http://purl.org/dc/elements/1.1/">
  <defs
     id="defs14" />
  <sodipodi:namedview
     id="namedview12"
     pagecolor="#ffffff"
     bordercolor="#666666"
     borderopacity="1.0"
     inkscape:pageshadow="2"
     inkscape:pageopacity="0.0"
     inkscape:pagecheckerboard="0"
     showgrid="false"
     inkscape:zoom="1.9421866"
     inkscape:cx="165.27763"
     inkscape:cy="120.22532"
     inkscape:window-width="1920"
     inkscape:window-height="1009"
     inkscape:window-x="-8"
     inkscape:window-y="-8"
     inkscape:window-maximized="1"
     inkscape:current-layer="svg10" />
  <title
     id="title2">tv-pc-screen-matlab-math-numericalcomputing</title>
  <metadata
     id="metadata831">
    <rdf:RDF>
      <cc:Work
         rdf:about="">
        <dc:title>tv-pc-screen-matlab-math-numericalcomputing</dc:title>
      </cc:Work>
    </rdf:RDF>
  </metadata>
  <g
     id="g4"
     transform="matrix(2.3978464,0,0,2.3978464,-0.7241491,-0.80847666)">
    <path
       d="m 32.8675,14.9794 c 0,0 -3.4939,-0.1711 -4.9458,-2.7558 1.0373,0.1061 2.1333,0.0798 3.2744,-0.0535 -1.811,-0.1554 -3.0162,-0.78 -3.8182,-1.5254 l -0.1134,-0.1092 c -1.3816,-1.369 -1.475,-3.0791 -1.475,-3.0791 1.2126,2.7716 3.5379,2.9941 3.5379,2.9941 C 28.1642,8.7435 28.8445,6.4044 28.8445,6.4044 28.0781,5.217 26.791,4.3509 26.791,4.3509 c 0,0 -2.591,2.3495 -5.4465,1.5495 0.8094,-0.6593 1.5653,-1.453 2.2781,-2.3537 -1.391,1.1706 -2.6855,1.5811 -3.7794,1.6209 L 19.6878,5.1707 C 17.7425,5.1802 16.4659,4.0369 16.4659,4.0369 19.2837,5.1392 21.0852,3.6516 21.0852,3.6516 19.0559,3.2663 17.8832,1.132 17.8832,1.132 c -1.3816,-0.2971 -2.9038,0 -2.9038,0 0,0 -0.1711,3.4938 -2.7558,4.9468 0.106,-1.0372 0.0798,-2.1333 -0.0535,-3.2744 -0.1564,1.811 -0.7811,3.0172 -1.5275,3.8193 L 10.5345,6.736 C 9.1666,8.1165 7.4564,8.211 7.4564,8.211 10.228,6.9984 10.4505,4.672 10.4505,4.672 8.7433,5.8353 6.4043,5.155 6.4043,5.155 5.2169,5.9214 4.3508,7.2085 4.3508,7.2085 c 0,0 2.3495,2.5899 1.5496,5.4465 -0.6593,-0.8094 -1.453,-1.5653 -2.3537,-2.2781 1.1706,1.391 1.5811,2.6855 1.6209,3.7804 l 0.0032,0.1554 C 5.1803,16.257 4.037,17.5336 4.037,17.5336 5.1393,14.7169 3.6517,12.9143 3.6517,12.9143 c -0.3853,2.0293 -2.5196,3.202 -2.5196,3.202 -0.2971,1.3826 0,2.9049 0,2.9049 0,0 3.4939,0.1701 4.9468,2.7548 -1.0373,-0.1061 -2.1333,-0.0798 -3.2745,0.0535 1.812,0.1565 3.0172,0.7811 3.8193,1.5275 l 0.1123,0.1081 c 1.3805,1.3679 1.475,3.0781 1.475,3.0781 -1.2126,-2.7716 -3.539,-2.9941 -3.539,-2.9941 1.1632,1.7081 0.4829,4.0461 0.4829,4.0461 0.7674,1.1874 2.0535,2.0535 2.0535,2.0535 0,0 2.591,-2.3495 5.4466,-1.5495 -0.8094,0.6593 -1.5653,1.453 -2.2781,2.3537 1.3921,-1.1706 2.6865,-1.5811 3.7815,-1.6199 l 0.1543,-0.0031 c 1.9443,-0.0094 3.2209,1.1338 3.2209,1.1338 -2.8167,-1.1023 -4.6193,0.3843 -4.6193,0.3843 2.0293,0.3853 3.202,2.5196 3.202,2.5196 1.3826,0.2981 2.9049,0 2.9049,0 0,0 0.1701,-3.4939 2.7558,-4.9468 -0.1071,1.0372 -0.0808,2.1333 0.0525,3.2755 0.1554,-1.811 0.7811,-3.0172 1.5275,-3.8193 l 0.1081,-0.1124 c 1.3679,-1.3816 3.0781,-1.4761 3.0781,-1.4761 -2.7705,1.2126 -2.9941,3.539 -2.9941,3.539 1.7081,-1.1632 4.0461,-0.4829 4.0461,-0.4829 1.1884,-0.7664 2.0535,-2.0534 2.0535,-2.0534 0,0 -2.3495,-2.591 -1.5496,-5.4466 0.6593,0.8095 1.453,1.5653 2.3537,2.2782 -1.1706,-1.391 -1.5811,-2.6865 -1.6199,-3.7805 L 28.8298,19.688 c -0.0095,-1.9454 1.1338,-3.2219 1.1338,-3.2219 -1.1023,2.8177 0.3842,4.6193 0.3842,4.6193 0.3853,-2.0293 2.5196,-3.202 2.5196,-3.202 0.2982,-1.3818 10e-5,-2.904 10e-5,-2.904 z m -15.8672,9.8611 c -4.3306,0 -7.8412,-3.5096 -7.8412,-7.8402 0,-4.3306 3.5107,-7.8412 7.8412,-7.8412 4.3305,0 7.8402,3.5106 7.8402,7.8412 0,4.3306 -3.5096,7.8402 -7.8402,7.8402 z"
       id="path2" />
  </g>
</svg>
