<?xml version="1.0" encoding="UTF-8" standalone="no"?>
<svg
   version="1.0"
   width="512.000000pt"
   height="512.000000pt"
   viewBox="0 0 512.000000 512.000000"
   preserveAspectRatio="xMidYMid meet"
   id="svg18"
   sodipodi:docname="35-512.svg"
   inkscape:version="1.1 (c68e22c387, 2021-05-23)"
   xmlns:inkscape="http://www.inkscape.org/namespaces/inkscape"
   xmlns:sodipodi="http://sodipodi.sourceforge.net/DTD/sodipodi-0.dtd"
   xmlns="http://www.w3.org/2000/svg"
   xmlns:svg="http://www.w3.org/2000/svg">
  <defs
     id="defs22" />
  <sodipodi:namedview
     id="namedview20"
     pagecolor="#ffffff"
     bordercolor="#666666"
     borderopacity="1.0"
     inkscape:pageshadow="2"
     inkscape:pageopacity="0.0"
     inkscape:pagecheckerboard="0"
     inkscape:document-units="pt"
     showgrid="false"
     inkscape:zoom="0.60351563"
     inkscape:cx="554.25243"
     inkscape:cy="444.8932"
     inkscape:window-width="1920"
     inkscape:window-height="1009"
     inkscape:window-x="-8"
     inkscape:window-y="-8"
     inkscape:window-maximized="1"
     inkscape:current-layer="svg18" />
  <g
     transform="matrix(0.11034483,0,0,-0.10900104,-26.482759,534.34951)"
     fill="#000000"
     stroke="none"
     id="g16">
    <path
       d="m 2445,4406 c -59,-27 -129,-101 -146,-154 -8,-28 -72,-98 -252,-279 L 1805,3730 H 1052 298 l -29,-29 -29,-29 V 2306 941 l 24,-28 24,-28 1568,-5 1567,-5 15,-43 c 16,-50 63,-101 116,-126 34,-16 76,-18 439,-18 356,0 407,2 445,17 51,21 108,85 123,137 l 10,38 h 125 c 125,0 126,0 155,29 l 29,29 v 1367 1367 l -29,29 -29,29 h -754 -753 l -242,243 c -180,181 -244,251 -252,279 -17,53 -87,127 -146,154 -36,17 -68,24 -115,24 -47,0 -79,-7 -115,-24 z m 159,-197 c 36,-28 36,-80 0,-108 -15,-12 -34,-21 -44,-21 -34,0 -70,39 -70,75 0,36 36,75 70,75 10,0 29,-9 44,-21 z m -161,-306 c 23,-13 55,-18 117,-18 92,0 121,11 183,65 l 33,29 125,-125 124,-124 h -465 -465 l 124,124 125,125 33,-29 c 18,-16 48,-38 66,-47 z M 4680,2305 V 1080 h -55 -55 v 56 c 0,60 -11,90 -44,116 -19,16 -63,18 -528,18 h -508 l -31,-28 c -27,-24 -32,-36 -36,-95 l -6,-67 H 1929 440 V 2305 3530 H 2560 4680 Z M 4365,980 v -85 l -367,-3 -368,-2 v 90 90 l 368,-2 367,-3 z"
       id="path2" />
    <path
       d="m 4064,3191 c -102,-26 -192,-102 -201,-168 -4,-34 -1,-45 23,-72 18,-20 42,-34 64,-37 35,-6 36,-5 127,61 12,9 35,15 53,13 l 31,-3 -39,-60 c -22,-33 -78,-104 -126,-157 -50,-57 -89,-109 -92,-126 -8,-40 19,-89 59,-108 30,-14 45,-13 222,20 178,34 192,38 218,66 29,32 36,84 17,121 -16,29 -68,52 -107,46 -39,-7 -40,-4 -13,33 102,143 90,279 -29,343 -54,30 -150,43 -207,28 z"
       id="path4" />
    <path
       d="m 3470,2714 c -119,-32 -221,-135 -251,-257 -19,-72 -16,-229 4,-298 63,-213 267,-291 483,-185 81,40 144,102 144,142 0,33 -25,81 -49,94 -39,20 -91,12 -140,-24 -117,-85 -211,-73 -240,30 -18,63 -13,173 9,221 37,82 134,108 215,58 58,-35 99,-33 141,9 77,77 16,170 -141,210 -72,19 -103,19 -175,0 z"
       id="path6" />
    <path
       d="m 1001,2655 c -243,-48 -266,-54 -288,-79 -35,-41 -32,-99 8,-138 26,-27 31,-40 36,-99 5,-63 4,-70 -21,-99 -37,-45 -36,-99 3,-138 l 29,-29 11,-206 c 6,-114 16,-218 22,-231 6,-13 26,-32 45,-42 33,-18 34,-18 296,40 145,32 275,64 290,72 56,29 67,109 21,156 -36,38 -68,36 -283,-12 -96,-21 -177,-37 -179,-34 -7,7 -19,278 -12,285 3,3 58,16 121,28 151,29 176,37 200,68 32,40 26,89 -14,129 -19,19 -43,34 -54,34 -10,0 -74,-11 -142,-25 -68,-14 -124,-25 -126,-25 -2,0 -4,29 -4,64 v 64 l 193,37 c 105,20 204,43 219,51 57,30 67,107 19,155 -40,40 -70,38 -390,-26 z"
       id="path8" />
    <path
       d="m 2810,2681 c -68,-22 -138,-81 -171,-143 -6,-12 -13,-24 -14,-26 -2,-2 -24,12 -49,32 -71,54 -123,56 -228,11 -11,-4 -18,-3 -18,4 0,7 -11,23 -25,36 -18,19 -35,25 -65,25 -54,0 -79,-14 -95,-54 -12,-28 -10,-83 19,-423 25,-304 36,-397 49,-416 23,-35 79,-53 117,-37 63,26 64,31 65,258 1,114 7,236 14,272 14,76 39,150 51,150 23,0 63,-177 79,-344 8,-94 10,-102 40,-128 43,-38 90,-38 133,1 l 32,29 7,143 c 4,79 12,173 19,208 23,127 77,228 101,191 32,-51 54,-244 45,-403 -7,-131 2,-164 49,-185 44,-20 82,-14 117,17 l 33,29 3,172 c 8,389 -64,566 -238,585 -25,2 -56,1 -70,-4 z"
       id="path10" />
    <path
       d="m 1730,2479 c -148,-22 -176,-32 -195,-70 -38,-72 6,-149 84,-149 62,0 313,39 339,52 27,14 52,57 52,87 0,34 -23,72 -51,87 -35,18 -73,17 -229,-7 z"
       id="path12" />
    <path
       d="m 1741,2156 c -115,-21 -126,-25 -154,-56 -25,-28 -29,-38 -24,-74 8,-55 44,-86 99,-86 52,0 275,38 300,51 21,11 48,60 48,88 0,34 -23,72 -51,87 -36,18 -68,17 -218,-10 z"
       id="path14" />
  </g>
</svg>
