<svg xmlns="http://www.w3.org/2000/svg" xmlns:xlink="http://www.w3.org/1999/xlink" version="1.1" x="0px" y="0px" viewBox="0 0 34 42.5" enable-background="new 0 0 34 34" xml:space="preserve"><g><path d="M32.8675,14.9794c0,0-3.4939-0.1711-4.9458-2.7558c1.0373,0.1061,2.1333,0.0798,3.2744-0.0535   c-1.811-0.1554-3.0162-0.78-3.8182-1.5254l-0.1134-0.1092c-1.3816-1.369-1.475-3.0791-1.475-3.0791   c1.2126,2.7716,3.5379,2.9941,3.5379,2.9941c-1.1632-1.707-0.4829-4.0461-0.4829-4.0461C28.0781,5.217,26.791,4.3509,26.791,4.3509   s-2.591,2.3495-5.4465,1.5495c0.8094-0.6593,1.5653-1.453,2.2781-2.3537c-1.391,1.1706-2.6855,1.5811-3.7794,1.6209l-0.1554,0.0031   c-1.9453,0.0095-3.2219-1.1338-3.2219-1.1338c2.8178,1.1023,4.6193-0.3853,4.6193-0.3853c-2.0293-0.3853-3.202-2.5196-3.202-2.5196   c-1.3816-0.2971-2.9038,0-2.9038,0s-0.1711,3.4938-2.7558,4.9468c0.106-1.0372,0.0798-2.1333-0.0535-3.2744   c-0.1564,1.811-0.7811,3.0172-1.5275,3.8193l-0.1081,0.1123c-1.3679,1.3805-3.0781,1.475-3.0781,1.475   c2.7716-1.2126,2.9941-3.539,2.9941-3.539C8.7433,5.8353,6.4043,5.155,6.4043,5.155C5.2169,5.9214,4.3508,7.2085,4.3508,7.2085   s2.3495,2.5899,1.5496,5.4465c-0.6593-0.8094-1.453-1.5653-2.3537-2.2781c1.1706,1.391,1.5811,2.6855,1.6209,3.7804l0.0032,0.1554   c0.0095,1.9443-1.1338,3.2209-1.1338,3.2209c1.1023-2.8167-0.3853-4.6193-0.3853-4.6193c-0.3853,2.0293-2.5196,3.202-2.5196,3.202   c-0.2971,1.3826,0,2.9049,0,2.9049s3.4939,0.1701,4.9468,2.7548c-1.0373-0.1061-2.1333-0.0798-3.2745,0.0535   c1.812,0.1565,3.0172,0.7811,3.8193,1.5275l0.1123,0.1081c1.3805,1.3679,1.475,3.0781,1.475,3.0781   c-1.2126-2.7716-3.539-2.9941-3.539-2.9941c1.1632,1.7081,0.4829,4.0461,0.4829,4.0461c0.7674,1.1874,2.0535,2.0535,2.0535,2.0535   s2.591-2.3495,5.4466-1.5495c-0.8094,0.6593-1.5653,1.453-2.2781,2.3537c1.3921-1.1706,2.6865-1.5811,3.7815-1.6199l0.1543-0.0031   c1.9443-0.0094,3.2209,1.1338,3.2209,1.1338c-2.8167-1.1023-4.6193,0.3843-4.6193,0.3843c2.0293,0.3853,3.202,2.5196,3.202,2.5196   c1.3826,0.2981,2.9049,0,2.9049,0s0.1701-3.4939,2.7558-4.9468c-0.1071,1.0372-0.0808,2.1333,0.0525,3.2755   c0.1554-1.811,0.7811-3.0172,1.5275-3.8193l0.1081-0.1124c1.3679-1.3816,3.0781-1.4761,3.0781-1.4761   c-2.7705,1.2126-2.9941,3.539-2.9941,3.539c1.7081-1.1632,4.0461-0.4829,4.0461-0.4829c1.1884-0.7664,2.0535-2.0534,2.0535-2.0534   s-2.3495-2.591-1.5496-5.4466c0.6593,0.8095,1.453,1.5653,2.3537,2.2782c-1.1706-1.391-1.5811-2.6865-1.6199-3.7805l-0.0031-0.1543   c-0.0095-1.9454,1.1338-3.2219,1.1338-3.2219c-1.1023,2.8177,0.3842,4.6193,0.3842,4.6193c0.3853-2.0293,2.5196-3.202,2.5196-3.202   C33.1656,16.5016,32.8675,14.9794,32.8675,14.9794z M17.0003,24.8405c-4.3306,0-7.8412-3.5096-7.8412-7.8402   s3.5107-7.8412,7.8412-7.8412s7.8402,3.5106,7.8402,7.8412S21.3309,24.8405,17.0003,24.8405z"/></g><text x="0" y="49" fill="#000000" font-size="5px" font-weight="bold" font-family="'Helvetica Neue', Helvetica, Arial-Unicode, Arial, Sans-serif">Created by Vectors Point</text><text x="0" y="54" fill="#000000" font-size="5px" font-weight="bold" font-family="'Helvetica Neue', Helvetica, Arial-Unicode, Arial, Sans-serif">from the Noun Project</text></svg>