<?xml version="1.0" encoding="UTF-8" standalone="no"?>
<svg
   width="752pt"
   height="752pt"
   version="1.1"
   viewBox="0 0 752 752"
   id="svg27"
   sodipodi:docname="mechatronics.svg"
   inkscape:version="1.1 (c68e22c387, 2021-05-23)"
   xmlns:inkscape="http://www.inkscape.org/namespaces/inkscape"
   xmlns:sodipodi="http://sodipodi.sourceforge.net/DTD/sodipodi-0.dtd"
   xmlns="http://www.w3.org/2000/svg"
   xmlns:svg="http://www.w3.org/2000/svg">
  <sodipodi:namedview
     id="namedview29"
     pagecolor="#ffffff"
     bordercolor="#666666"
     borderopacity="1.0"
     inkscape:pageshadow="2"
     inkscape:pageopacity="0.0"
     inkscape:pagecheckerboard="0"
     inkscape:document-units="pt"
     showgrid="false"
     inkscape:zoom="0.82180851"
     inkscape:cx="501.94175"
     inkscape:cy="702.71845"
     inkscape:window-width="1920"
     inkscape:window-height="1009"
     inkscape:window-x="-8"
     inkscape:window-y="-8"
     inkscape:window-maximized="1"
     inkscape:current-layer="svg27" />
  <defs
     id="defs11">
    <clipPath
       id="c">
      <path
         d="m139.21 462h212.79v150.79h-212.79z"
         id="path2" />
    </clipPath>
    <clipPath
       id="b">
      <path
         d="m404 245h208.79v263h-208.79z"
         id="path5" />
    </clipPath>
    <clipPath
       id="a">
      <path
         d="m306 139.21h140v138.79h-140z"
         id="path8" />
    </clipPath>
  </defs>
  <g
     clip-path="url(#c)"
     id="g15"
     transform="matrix(1.4374447,0,0,1.4374447,-174.06172,-154.89667)">
    <path
       d="m 336.75,543.77 c -1.9531,-6.75 -6.043,-12.688 -11.656,-16.922 -5.6133,-4.2305 -12.445,-6.5312 -19.477,-6.5508 h -19.961 v -55.84 c -26.559,12.051 -57.129,11.508 -83.246,-1.4727 v 57.348 h -16.871 c -7.0312,0.0234 -13.863,2.3203 -19.477,6.5547 -5.6133,4.2305 -9.7031,10.168 -11.66,16.922 l -14.66,51.297 c -1.1953,4.1875 -0.35547,8.6914 2.2656,12.168 2.6211,3.4727 6.7188,5.5156 11.074,5.5195 h 184.99 c 4.3516,-0.004 8.4531,-2.0469 11.074,-5.5195 2.6211,-3.4766 3.4609,-7.9805 2.2617,-12.168 z"
       id="path13" />
  </g>
  <g
     clip-path="url(#b)"
     id="g19"
     transform="matrix(1.4374447,0,0,1.4374447,-174.06172,-154.89667)">
    <path
       d="m 612.06,393.46 c -1.2227,-3.6211 -3.8828,-6.5742 -7.3555,-8.168 l -24.051,-11.098 0.004,-0.004 c 5.4531,-21.953 -0.13672,-45.188 -14.98,-62.258 -14.848,-17.07 -37.082,-25.828 -59.582,-23.465 l -40.18,-43.289 c -11.051,26.965 -33.574,47.578 -61.41,56.207 l 40.578,43.723 v 0.004 c -1.7617,9.6484 -1.4453,19.562 0.92578,29.078 l -24.051,11.098 v 0.004 c -3.4727,1.5898 -6.1328,4.543 -7.3594,8.1602 -1.2266,3.6211 -0.90625,7.582 0.88672,10.957 l 50.871,95.586 c 3.5898,6.7812 11.996,9.3711 18.777,5.7812 6.7812,-3.5898 9.3711,-11.996 5.7812,-18.777 l -43.965,-82.59 11.098,-5.0859 h 0.004 c 13.09,17.379 33.582,27.602 55.34,27.602 21.758,0 42.254,-10.223 55.34,-27.602 l 11.098,5.0859 -44.035,82.59 c -1.7266,3.25 -2.0977,7.0508 -1.0234,10.57 1.0742,3.5195 3.5039,6.4688 6.75,8.1992 6.7617,3.6016 15.168,1.0352 18.766,-5.7266 l 50.871,-95.586 h 0.004 c 1.8047,-3.3828 2.1328,-7.3672 0.89844,-10.996 z"
       id="path17" />
  </g>
  <path
     d="m 241.94914,208.12998 -60.93472,77.73989 h -2.07193 c -27.96261,0 -54.6459,11.73543 -73.53392,32.35975 -18.88946,20.6187 -28.254412,48.22195 -25.812193,76.07819 2.448112,27.85624 16.474553,53.40394 38.664393,70.41754 22.19557,17.01359 50.51324,23.93058 78.04893,19.05764 27.53568,-4.87293 51.75951,-21.08443 66.76786,-44.67866 15.00836,-23.59996 19.41701,-52.41066 12.15087,-79.41306 l 61.38895,-78.36374 v -0.006 c -40.91112,-9.01766 -75.63978,-35.86855 -94.66867,-73.19181 z"
     id="path21"
     style="stroke-width:1.43745" />
  <g
     clip-path="url(#a)"
     id="g25"
     transform="matrix(1.4374447,0,0,1.4374447,-174.06172,-154.89667)">
    <path
       d="m 445.38,208.58 c 0,38.312 -31.059,69.375 -69.375,69.375 -38.312,0 -69.371,-31.062 -69.371,-69.375 0,-38.313 31.059,-69.371 69.371,-69.371 38.316,0 69.375,31.059 69.375,69.371"
       id="path23" />
  </g>
</svg>
