<?xml version="1.0" encoding="UTF-8" standalone="no"?>
<svg
   width="752pt"
   height="752pt"
   version="1.1"
   viewBox="0 0 752 752"
   id="svg21"
   sodipodi:docname="medical_analytics.svg"
   inkscape:version="1.1 (c68e22c387, 2021-05-23)"
   xmlns:inkscape="http://www.inkscape.org/namespaces/inkscape"
   xmlns:sodipodi="http://sodipodi.sourceforge.net/DTD/sodipodi-0.dtd"
   xmlns="http://www.w3.org/2000/svg"
   xmlns:svg="http://www.w3.org/2000/svg">
  <sodipodi:namedview
     id="namedview23"
     pagecolor="#ffffff"
     bordercolor="#666666"
     borderopacity="1.0"
     inkscape:pageshadow="2"
     inkscape:pageopacity="0.0"
     inkscape:pagecheckerboard="0"
     inkscape:document-units="pt"
     showgrid="false"
     inkscape:zoom="0.41090426"
     inkscape:cx="1183.9741"
     inkscape:cy="906.53722"
     inkscape:window-width="1920"
     inkscape:window-height="1009"
     inkscape:window-x="-8"
     inkscape:window-y="-8"
     inkscape:window-maximized="1"
     inkscape:current-layer="svg21" />
  <defs
     id="defs5">
    <clipPath
       id="a">
      <path
         d="m139.21 308h473.58v257h-473.58z"
         id="path2" />
    </clipPath>
  </defs>
  <path
     d="m 490.93303,189.16605 h 5.96369 v 405.89717 c 0,30.85301 25.23451,56.19756 56.19757,56.19756 30.96772,0 56.08288,-25.34455 56.08288,-56.19756 l 0.006,-405.89717 h 5.96368 c 3.09383,0 5.61852,-2.40969 5.61852,-5.50352 v -19.38659 c 0,-2.98487 -2.52469,-5.50351 -5.61852,-5.50351 h -124.2134 c -3.09383,0 -5.61852,2.52469 -5.61852,5.50351 v 19.38039 c 0,3.09987 2.52469,5.50956 5.61852,5.50956 z m 25.23451,335.00311 h 25.23451 c 3.32383,0 5.96369,-2.75471 5.96369,-5.96369 0,-3.32384 -2.63971,-5.9637 -5.96369,-5.9637 h -25.23451 v -36.35683 h 9.86271 c 3.32384,0 5.96368,-2.6397 5.96368,-5.84853 0,-3.32384 -2.6397,-5.9637 -5.96368,-5.9637 h -9.86271 v -36.35683 h 25.23451 c 3.32383,0 5.96369,-2.6397 5.96369,-5.84852 0,-3.32384 -2.63971,-5.9637 -5.96369,-5.9637 h -25.23451 v -36.35685 h 9.86271 c 2.86986,0 5.27334,-2.06451 5.84853,-4.70436 0.11503,-0.34511 0.11503,-0.80523 0.11503,-1.14428 0,-3.32384 -2.6397,-5.96369 -5.96368,-5.96369 h -9.86272 v -36.35684 h 25.23451 c 3.32384,0 5.96368,-2.63969 5.96368,-5.96369 0,-3.20883 -2.63969,-5.84853 -5.96368,-5.84853 h -25.23451 v -36.35684 h 9.86272 c 3.32382,0 5.96368,-2.63969 5.96368,-5.96369 0,-3.20882 -2.6397,-5.84853 -5.96368,-5.84853 h -9.86272 v -36.35684 h 25.23451 c 3.32384,0 5.96368,-2.63969 5.96368,-5.96369 0,-3.20882 -2.63969,-5.84852 -5.96368,-5.84852 h -25.23451 v -34.06759 h 73.74905 v 358.87212 c -10.32288,0.80524 -21.90524,0.11504 -33.832,-3.89901 -11.58221,-4.12919 -26.724,-4.2442 -39.91084,-3.20884 z"
     id="path7"
     style="stroke-width:1.54994" />
  <g
     clip-path="url(#a)"
     id="g11"
     transform="matrix(1.5499357,0,0,1.5499357,-205.0501,-131.77915)">
    <path
       d="M 609.02,516.38 H 591.04 L 591.036,308.3 h -32.262 v 24.492 h -27.527 v 24.418 h 27.527 v 159.17 l -365.54,0.004 v -159.17 h 25.973 V 332.796 H 193.234 V 308.304 L 161.043,308.3 v 208.08 l -17.98,0.004 c -2.1445,0 -3.8477,1.6992 -3.8477,3.8477 v 40.551 c 0,2.0703 1.7031,3.7734 3.8477,3.7734 h 465.96 c 2.0703,0 3.7734,-1.7031 3.7734,-3.7734 v -40.551 c 0,-2.1484 -1.7031,-3.8477 -3.7734,-3.8477 z"
       id="path9" />
  </g>
  <path
     d="m 441.84657,384.02396 h 45.75876 v 37.84633 h -45.75876 z"
     id="path13"
     style="stroke-width:1.54994" />
  <path
     d="m 314.42635,189.27454 h 5.9637 v 405.77317 c 0,30.96772 25.2345,56.19758 56.31226,56.19758 30.85301,0 56.08287,-25.23451 56.08287,-56.19758 V 189.27454 h 5.96369 c 2.98487,0 5.50351,-2.52469 5.50351,-5.61852 v -19.2719 c 0,-3.09383 -2.52469,-5.61852 -5.50351,-5.61852 H 314.42698 c -3.09384,0 -5.61852,2.52469 -5.61852,5.61852 v 19.2657 c -0.006,3.09987 2.51865,5.62456 5.61852,5.62456 z m 25.34456,142.10431 h 25.2345 c 3.32384,0 5.96369,-2.6397 5.96369,-5.96369 0,-3.20884 -2.6397,-5.84853 -5.96369,-5.84853 h -25.2345 v -36.35684 h 9.8627 c 3.20884,0 5.96369,-2.6397 5.96369,-5.96369 0,-3.20883 -2.75471,-5.84852 -5.96369,-5.84852 h -9.8627 v -36.35685 h 25.2345 c 3.32384,0 5.96369,-2.6397 5.96369,-5.96368 0,-3.20884 -2.6397,-5.84853 -5.96369,-5.84853 h -25.2345 v -33.95289 h 73.63435 v 164.23119 c -10.32289,0.92027 -21.79056,0.11504 -33.71731,-3.78401 -11.6972,-4.12919 -26.83869,-4.2442 -39.91085,-3.20884 z"
     id="path15"
     style="stroke-width:1.54994" />
  <path
     d="m 138.02817,189.27454 h 5.84853 v 405.77317 c 0,30.96772 25.2345,56.08288 56.31226,56.08288 30.85303,0 56.08287,-25.11981 56.08287,-56.08288 V 189.27454 h 6.0787 c 2.86986,0 5.3885,-2.52469 5.3885,-5.61852 l 0.006,-19.2719 c 0,-3.09383 -2.52468,-5.61852 -5.38851,-5.61852 H 138.02849 c -3.09383,0 -5.61852,2.52469 -5.61852,5.61852 v 19.2657 c 0,3.09987 2.52469,5.62456 5.61852,5.62456 z m 25.23451,241.75898 v -3.32384 h 25.2345 c 3.32384,0 5.96368,-2.63969 5.96368,-5.84853 0,-3.32384 -2.63969,-5.96369 -5.96368,-5.96369 h -25.2345 v -36.35684 h 9.8627 c 2.86986,0 5.15834,-2.06451 5.73352,-4.70436 0.11504,-0.34511 0.11504,-0.80524 0.11504,-1.14429 0,-3.32384 -2.6397,-5.96369 -5.84853,-5.96369 h -9.86271 v -36.35684 h 25.23451 c 3.32383,0 5.96369,-2.6397 5.96369,-5.96369 0,-3.20883 -2.6397,-5.84852 -5.96369,-5.84852 H 163.2627 v -36.35685 h 9.86271 c 3.20883,0 5.84853,-2.6397 5.84853,-5.96368 0,-3.20884 -2.6397,-5.84853 -5.84853,-5.84853 l -9.86271,-0.006 v -36.35684 h 25.23451 c 3.32383,0 5.96369,-2.63969 5.96369,-5.96369 0,-3.20883 -2.6397,-5.84853 -5.96369,-5.84853 H 163.2627 v -33.94669 h 73.63435 v 262.8691 c -10.32288,1.02925 -21.79055,0.11504 -33.832,-3.78401 -11.5822,-4.12919 -26.72399,-4.24419 -39.79614,-3.20884 z"
     id="path17"
     style="stroke-width:1.54994" />
  <path
     d="m 265.44838,384.02396 h 44.84585 v 37.84633 h -44.84585 z"
     id="path19"
     style="stroke-width:1.54994" />
</svg>
