<?xml version="1.0" encoding="UTF-8" standalone="no"?>
<svg
   width="752pt"
   height="752pt"
   version="1.1"
   viewBox="0 0 752 752"
   id="svg8"
   sodipodi:docname="medicine.svg"
   inkscape:version="1.1 (c68e22c387, 2021-05-23)"
   xmlns:inkscape="http://www.inkscape.org/namespaces/inkscape"
   xmlns:sodipodi="http://sodipodi.sourceforge.net/DTD/sodipodi-0.dtd"
   xmlns="http://www.w3.org/2000/svg"
   xmlns:svg="http://www.w3.org/2000/svg">
  <defs
     id="defs12" />
  <sodipodi:namedview
     id="namedview10"
     pagecolor="#ffffff"
     bordercolor="#666666"
     borderopacity="1.0"
     inkscape:pageshadow="2"
     inkscape:pageopacity="0.0"
     inkscape:pagecheckerboard="0"
     inkscape:document-units="pt"
     showgrid="false"
     inkscape:zoom="0.41090426"
     inkscape:cx="952.7767"
     inkscape:cy="281.08738"
     inkscape:window-width="1920"
     inkscape:window-height="1009"
     inkscape:window-x="-8"
     inkscape:window-y="-8"
     inkscape:window-maximized="1"
     inkscape:current-layer="svg8" />
  <g
     id="g6">
    <path
       d="m 321.3918,155.31038 c -0.0263,2.27388 1.19606,4.37682 3.18067,5.48734 1.97811,1.11062 4.40962,1.05805 6.34163,-0.15107 17.61258,-10.63955 38.94316,-13.2223 58.57962,-7.08423 19.64319,6.1379 35.71135,20.41202 44.12314,39.1871 l 4.52788,10.10071 c 3.60782,8.05695 11.61869,13.24854 20.44399,13.24198 h 1.16975 c 8.89159,-0.092 16.88244,-5.46766 20.30604,-13.6757 4.17308,-9.57496 11.04702,-17.71688 19.78114,-23.44195 8.74034,-5.72387 18.95341,-8.77314 29.39579,-8.77314 h 30.36147 c 8.52349,-0.13139 15.63413,6.48632 16.12033,15.00325 0.10517,4.17963 -1.47206,8.22772 -4.38337,11.23107 -2.91132,3.00333 -6.90691,4.71193 -11.0864,4.73161 h -31.12357 c -9.05578,0.092 -17.19872,5.52688 -20.76026,13.8532 -4.15997,9.55527 -11.0339,17.68492 -19.76768,23.37633 -8.73378,5.69763 -18.94669,8.70754 -29.36889,8.66144 h -0.22342 c -10.40958,0 -20.60213,-3.02303 -29.34197,-8.68786 -8.74034,-5.66482 -15.65381,-13.73492 -19.90562,-23.24342 l -3.89046,-8.68129 c -5.68451,-13.09747 -17.63781,-22.40897 -31.72754,-24.72894 -7.0383,-1.07775 -14.2408,-0.28259 -20.87802,2.30667 -6.63084,2.59588 -12.4666,6.89379 -16.90263,12.45987 -3.60125,4.44242 -7.78745,8.36585 -12.4533,11.67133 -1.61007,1.16321 -2.55634,3.04271 -2.53665,5.02738 v 50.82565 c -0.0263,7.82683 2.68133,15.41728 7.65606,21.45676 39.68004,47.97405 89.84787,82.67937 126.3533,103.90564 h 0.006 c 14.852,8.64176 31.73426,13.19606 48.91953,13.19606 17.19198,0 34.07443,-4.55414 48.92626,-13.19606 26.92442,-15.58803 52.43566,-33.4957 76.25108,-53.51909 v 53.12542 h -4.1073 c -7.52467,0 -13.61665,6.09854 -13.61665,13.61665 v 19.91909 h -10.60019 c -11.88163,0 -21.52236,9.63417 -21.52236,21.52236 v 9.60121 c 0,3.29894 2.6746,5.97372 5.98026,5.97372 h 1.49897 -0.006 c 7.31437,-0.11169 13.41291,5.5728 13.82021,12.87388 0.11168,3.58812 -1.23549,7.06454 -3.7328,9.6473 -2.49729,2.57602 -5.93418,4.0284 -9.52247,4.0284 h -2.07603 c -1.58379,0 -3.10849,0.63089 -4.23214,1.75469 -1.11718,1.12377 -1.74812,2.64837 -1.74156,4.2387 v 21.78482 c 0,3.29893 2.6746,5.98027 5.9737,5.98683 h 16.17249 c 7.30781,-0.11168 13.40635,5.55968 13.8202,12.8542 0.11168,3.58813 -1.23548,7.07112 -3.7328,9.64731 -2.49729,2.58274 -5.93417,4.03495 -9.52904,4.03495 h -16.73101 c -3.29894,0.006 -5.97372,2.6879 -5.97372,5.98684 v 21.78482 c -0.006,1.59034 0.62431,3.11505 1.74158,4.23869 1.12376,1.12377 2.64836,1.7547 4.23214,1.7547 h 1.49897 c 7.30782,-0.11168 13.39963,5.55968 13.82022,12.85421 0.11168,3.58813 -1.2355,7.0711 -3.73281,9.65385 -2.49729,2.57603 -5.93418,4.03497 -9.52903,4.04153 H 585.601 c -3.29892,0 -5.9737,2.67461 -5.9737,5.9737 v 47.5003 c -0.0263,5.72388 2.23433,11.22451 6.27603,15.28572 4.04151,4.05481 9.53559,6.33507 15.25946,6.32851 h 31.60305 v 16.92282 h -34.87019 c -7.31437,-0.11168 -13.41947,5.56624 -13.8335,12.86732 -0.11168,3.59469 1.24206,7.07112 3.73937,9.65386 2.50385,2.57603 5.94074,4.0284 9.53559,4.0284 h 96.86667 c 7.31438,0.11168 13.40635,-5.56624 13.82022,-12.87389 0.10517,-3.58812 -1.24206,-7.0711 -3.74594,-9.64729 -2.49729,-2.57603 -5.94073,-4.0284 -9.52903,-4.0284 h -35.43377 v -16.92282 h 31.62323 c 5.70419,0 11.17841,-2.2673 15.21354,-6.30227 4.03497,-4.03496 6.30228,-9.50918 6.30228,-15.22009 V 444.0406 c 0.006,-5.70419 -2.26075,-11.18497 -6.29572,-15.22665 -4.03495,-4.03497 -9.50917,-6.30883 -15.2201,-6.30883 h -10.5805 v -19.9191 h -0.006 c 0,-7.5181 -6.09198,-13.61664 -13.60992,-13.61664 h -4.11386 V 247.05427 c 0.006,-4.12041 -1.53122,-8.09633 -4.30448,-11.13904 -0.94633,-0.89375 -1.23549,-2.28043 -0.72946,-3.47641 0.50602,-1.18948 1.70205,-1.95187 2.99661,-1.89265 h 6.4732 c 9.12813,0.006 16.53436,7.38655 16.5739,16.5081 v 13.43261 c 0,2.90475 1.88609,5.48078 4.65929,6.35475 2.77975,0.86747 5.79621,-0.15763 7.46545,-2.54321 13.29447,-18.802 24.19732,-39.18711 32.44422,-60.68929 15.04917,-39.77257 14.49063,-84.03198 -3.11505,-122.759793 C 717.01498,63.171139 704.96898,45.572019 686.18716,32.363852 656.27993,11.400013 617.39397,8.5803891 583.73508,22.723106 c -24.15022,10.179605 -54.30812,28.41667 -74.7723,60.144208 -0.99889,1.590348 -2.74694,2.549788 -4.62647,2.549788 -1.87953,0 -3.62749,-0.959465 -4.63303,-2.549788 C 481.57252,54.766931 455.851,37.260348 433.42688,26.55384 378.63929,0.37807001 312.2384,22.584481 285.47886,77.051418 c -1.72828,3.561875 -0.6966,7.85323 2.47104,10.238651 3.0952,2.392133 6.0262,4.994568 8.77987,7.780888 15.851,16.034863 24.71549,37.688133 24.66334,60.236733 z"
       id="path2"
       sodipodi:nodetypes="ccccccccccsccscccccsccccccccccccscccsscssssccccssccsccccscsccsccccssccccccccscccsccsssccscccscccccccscccccccsccccccc"
       style="stroke-width:1.68236" />
    <path
       d="M 131.80716,480.40876 V 603.3452 c 0.51916,48.7614 26.83862,93.60795 69.15995,117.84395 42.32134,24.23602 94.31621,24.23602 136.63923,0 42.32302,-24.236 68.63506,-69.08088 69.15322,-117.84395 v -81.74565 c 14.54969,-7.05798 25.09739,-20.35986 28.65892,-36.13195 3.56845,-15.77208 -0.23657,-32.313 -10.33066,-44.94412 -10.09414,-12.63736 -25.38674,-19.99143 -41.55923,-19.99143 -16.17249,0 -31.4651,7.35373 -41.56595,19.99143 -10.09415,12.63078 -13.89913,29.17204 -10.33068,44.94412 3.56845,15.77209 14.11598,29.07279 28.65893,36.13195 v 81.74565 c 0,32.5233 -17.34846,62.57522 -45.51614,78.83349 -28.16599,16.26502 -62.86457,16.26502 -91.03056,0 -28.166,-16.25845 -45.51613,-46.31019 -45.51613,-78.83349 V 480.40876 c 31.96476,-3.21363 61.59608,-18.19636 83.13864,-42.03197 21.54257,-23.83561 33.46374,-54.82123 33.44354,-86.95086 V 155.3474 c -0.0263,-15.54866 -6.1379,-30.4725 -17.03384,-41.57269 C 266.88045,102.68159 252.06833,96.293359 236.52,95.985486 v -1.20262 c 0.16429,-6.262895 -2.21466,-12.328469 -6.58492,-16.816993 -4.37024,-4.481963 -10.37676,-7.018617 -16.6395,-7.018617 -6.2629,0 -12.26941,2.536654 -16.63951,7.018617 -4.37024,4.488524 -6.74909,10.554098 -6.5849,16.816993 v 48.754674 c -0.16429,6.26289 2.21466,12.32847 6.5849,16.81699 4.37026,4.48196 10.37678,7.01862 16.63951,7.01862 6.2629,0 12.26942,-2.53666 16.6395,-7.01862 4.37026,-4.48852 6.74911,-10.5541 6.58492,-16.81699 v -1.1369 c 6.68348,0.57172 11.82241,6.1643 11.82897,12.86732 v 196.07853 c -0.0263,22.054 -8.79956,43.20289 -24.39415,58.79664 -15.59459,15.59459 -36.74264,24.36723 -58.79664,24.39415 H 144.93122 C 122.87049,434.51099 101.72833,425.73772 86.134578,410.14313 70.533415,394.54854 61.767334,373.40049 61.740416,351.34649 V 155.26796 c 0.0063,-6.70318 5.139101,-12.29566 11.822425,-12.86732 v 1.10403 c -0.157718,6.26291 2.214645,12.32847 6.591463,16.81699 4.370257,4.48854 10.370214,7.01863 16.632945,7.01863 6.269471,0 12.269421,-2.53009 16.639501,-7.01863 4.37682,-4.48852 6.74911,-10.55408 6.59148,-16.81699 V 94.781977 c 0.15772,-6.262907 -2.21466,-12.328469 -6.59148,-16.816993 -4.37025,-4.481963 -10.3702,-7.018617 -16.639501,-7.018617 -6.262907,0 -12.26285,2.536654 -16.632945,7.018617 -4.376818,4.488524 -6.749106,10.554086 -6.591463,16.816993 v 1.150048 c -15.548666,0.302301 -30.361466,6.690045 -41.26314,17.789225 -10.895939,11.09967 -17.006925,26.02435 -17.02712,41.57942 v 196.07852 c -0.0328,32.12963 11.875073,63.12198 33.409898,86.96265 21.534825,23.84065 51.160438,38.83885 83.125181,42.06561 z"
       id="path4"
       style="stroke-width:1.68236" />
  </g>
</svg>
