<?xml version="1.0" encoding="UTF-8" standalone="no"?>
<svg
   width="752pt"
   height="752pt"
   version="1.1"
   viewBox="0 0 752 752"
   id="svg14"
   sodipodi:docname="mining.svg"
   inkscape:version="1.1 (c68e22c387, 2021-05-23)"
   xmlns:inkscape="http://www.inkscape.org/namespaces/inkscape"
   xmlns:sodipodi="http://sodipodi.sourceforge.net/DTD/sodipodi-0.dtd"
   xmlns="http://www.w3.org/2000/svg"
   xmlns:svg="http://www.w3.org/2000/svg">
  <defs
     id="defs18" />
  <sodipodi:namedview
     id="namedview16"
     pagecolor="#ffffff"
     bordercolor="#666666"
     borderopacity="1.0"
     inkscape:pageshadow="2"
     inkscape:pageopacity="0.0"
     inkscape:pagecheckerboard="0"
     inkscape:document-units="pt"
     showgrid="false"
     inkscape:zoom="0.41090426"
     inkscape:cx="431.97411"
     inkscape:cy="475.77994"
     inkscape:window-width="1920"
     inkscape:window-height="1009"
     inkscape:window-x="-8"
     inkscape:window-y="-8"
     inkscape:window-maximized="1"
     inkscape:current-layer="svg14" />
  <g
     id="g12"
     transform="matrix(1.6295216,0,0,1.6295216,-235.42181,-134.35875)">
    <path
       d="m 285.55,324.86 c -5.2109,-5.2109 -10.418,-9.9453 -15.629,-15.156 l -114.61,114.61 c -5.6836,5.6836 -5.6836,15.156 0,20.836 l 9.9453,9.9453 c 5.6836,5.6836 15.156,5.6836 20.836,0 l 114.61,-114.61 c -4.7344,-5.2109 -9.9414,-10.422 -15.152,-15.629 z"
       id="path2" />
    <path
       d="m 300.7,309.7 c 33.152,33.152 61.094,67.723 82.875,100.4 3.7891,5.6836 12.785,3.3164 13.262,-3.7891 1.8945,-31.258 -16.574,-73.406 -49.727,-112.24 l 9.9453,-9.9453 c 5.6836,-5.6836 5.6836,-15.156 0,-20.836 l -9.9453,-9.9453 c -5.6836,-5.6836 -15.156,-5.6836 -20.836,0 l -9.9453,9.9453 c -38.832,-33.152 -80.98,-51.621 -112.24,-49.727 -7.1055,0.47266 -9.4727,9.4727 -3.7891,13.262 33.148,21.785 67.246,49.727 100.4,82.875 z"
       id="path4" />
    <path
       d="m 444.67,401.1 25.102,-46.41 c 1.4219,-2.8398 0.47266,-7.1055 -2.8398,-8.5234 l -28.414,-14.207 c -4.2617,-1.8945 -8.9961,0.94531 -8.9961,5.6836 l 3.7891,60.617 c -0.008,6.1562 8.5156,8.0508 11.359,2.8398 z"
       id="path6" />
    <path
       d="m 322.96,411.99 c -3.3164,-1.4219 -7.1055,0.47266 -8.0508,3.3164 l -11.367,29.836 c -1.8945,4.2617 1.8945,8.9961 6.6289,8.0508 l 59.672,-9.9453 c 6.1562,-0.94531 7.1055,-9.4727 1.4219,-11.84 z"
       id="path8" />
    <path
       d="m 570.17,260.92 -51.148,36.465 c -3.7891,2.3672 -6.1562,6.1562 -7.5781,10.418 l -26.516,93.77 c -0.94531,3.7891 -3.3164,7.1055 -6.1562,9.4727 l -42.621,35.52 c -2.3672,1.4219 -4.2617,2.3672 -6.6289,3.7891 l -127.87,39.781 c -2.3672,0.47266 -4.2617,0.47266 -6.1562,0.94531 l -59.672,-1.8945 c -3.7891,0 -7.5781,2.3672 -8.5234,6.1562 l -9.9453,32.203 c -1.8945,5.6836 2.3672,11.367 8.5234,11.367 h 355.66 c 10.891,0 19.418,-8.5234 19.418,-19.418 l -0.004,-242.47 c 0,-16.102 -17.996,-25.102 -30.785,-16.102 z"
       id="path10" />
  </g>
</svg>
