<?xml version="1.0" encoding="UTF-8" standalone="no"?>
<svg
   width="752pt"
   height="752pt"
   version="1.1"
   viewBox="0 0 752 752"
   id="svg18"
   sodipodi:docname="pharmacology.svg"
   inkscape:version="1.1 (c68e22c387, 2021-05-23)"
   xmlns:inkscape="http://www.inkscape.org/namespaces/inkscape"
   xmlns:sodipodi="http://sodipodi.sourceforge.net/DTD/sodipodi-0.dtd"
   xmlns="http://www.w3.org/2000/svg"
   xmlns:svg="http://www.w3.org/2000/svg">
  <defs
     id="defs22" />
  <sodipodi:namedview
     id="namedview20"
     pagecolor="#ffffff"
     bordercolor="#666666"
     borderopacity="1.0"
     inkscape:pageshadow="2"
     inkscape:pageopacity="0.0"
     inkscape:pagecheckerboard="0"
     inkscape:document-units="pt"
     showgrid="false"
     inkscape:zoom="0.82180851"
     inkscape:cx="501.94175"
     inkscape:cy="335.23625"
     inkscape:window-width="1920"
     inkscape:window-height="1009"
     inkscape:window-x="-8"
     inkscape:window-y="-8"
     inkscape:window-maximized="1"
     inkscape:current-layer="svg18" />
  <g
     id="g16"
     transform="matrix(1.5193813,0,0,1.5193813,-197.78144,-197.96487)">
    <path
       d="m 342,321.14 c -19.004,-12.41 -41.086,-18.922 -64.016,-18.922 -64.879,0 -117.64,52.766 -117.64,117.61 0,28.75 10.695,55.605 29.441,77.055 l 164.31,-166.62 c -3.9062,-3.3555 -7.9141,-6.4922 -12.094,-9.1172 z"
       id="path2" />
    <path
       d="m 353.59,308.75 c 6.4336,4.3008 12.727,9.293 18.566,15.113 0,0 0.0195,0 0.0195,0.0195 0,0 0,0.0195 0.0195,0.0195 0.0195,0.0195 0.0391,0.0195 0.0586,0.0391 12.906,12.707 22.91,27.98 29.617,44.379 l 37.078,-12.371 c 21.352,-7.2227 42.82,-14.406 64.328,-21.625 l 39.859,-13.359 c -4.5,-12.805 -9.9648,-28.789 -15.648,-45.445 -10.184,-29.875 -20.719,-60.777 -27.703,-78.988 -10.934,-28.199 -29.281,-44.871 -56.102,-50.91 -2.5273,-0.59375 -4.8555,-0.96875 -7.1641,-1.3633 l -9.8477,-0.31641 c -37.25,2.4297 -64.676,15.906 -82.832,41.281 -13.73,19.16 -16.438,41.598 -8.2852,68.609 3.9453,13.023 10.773,33.289 18.035,54.918 z m 76.227,-140.26 c 1.5977,-0.39453 3.2969,0.11719 4.9336,0.27734 0.33594,0.0391 2.6445,0.47266 2.9805,0.55078 13.199,2.9805 29.066,9.6484 39.207,35.992 1.6758,4.3398 -0.47266,9.1953 -4.8164,10.852 -0.98828,0.39453 -2.0117,0.57031 -3.0195,0.57031 -3.375,0 -6.5508,-2.0508 -7.832,-5.4062 -7.5781,-19.691 -17.758,-23.48 -26.699,-25.496 -2.7227,-0.45312 -4.0859,-0.0781 -5.3086,-0.53125 -2.2891,-0.82812 -4.3203,-3.4531 -4.2617,-8.7227 0.0586,-5.3594 2.5469,-7.5117 4.8164,-8.0859 z"
       id="path4" />
    <path
       d="m 395,428.82 c 0.23828,-2.9805 0.63281,-5.918 0.63281,-8.9766 0,-13.121 -2.1523,-25.633 -6.5508,-38.262 -4.7969,-14.406 -12.785,-27.785 -23.047,-39.426 l -164.41,166.72 c 13.695,11.762 29.617,20.066 46.965,24.488 l -0.043,-41.734 c 0,-35.379 59.906,-62.414 139.35,-62.867 2.6406,0.0391 4.9102,0.0391 7.1016,0.0586 z"
       id="path6" />
    <path
       d="m 389.81,445.6 c -74.074,0.41406 -124.45,24.566 -124.45,46.035 0,15.094 24.625,30.547 61.527,39.07 l 95.129,-82.836 c -6.5312,-0.69141 -12.848,-1.7578 -19.574,-2.0703 -4.1055,-0.17578 -8.168,-0.17578 -12.254,-0.17578 -0.11719,-0.0234 -0.23438,-0.0234 -0.375,-0.0234 z"
       id="path8" />
    <path
       d="m 562.51,378.75 -10.754,-32.203 c -1.0664,-3.1953 -2.1328,-6.4336 -3.1172,-9.668 l -40.039,13.418 c -21.488,7.1836 -42.918,14.367 -64.309,21.625 l -37.176,12.41 c 3.2578,11.621 5.3477,23.5 5.3477,35.539 0,3.3555 -0.45312,6.5508 -0.69141,9.7891 10.793,0.75 21.449,1.8555 31.652,3.5898 54.066,9.3945 87.652,31.789 87.652,58.41 v 65.551 c 9.668,-3.2578 18.984,-7.3789 27.43,-13.242 28.316,-19.379 39.406,-51.246 29.719,-85.285 -7.8555,-26.797 -16.934,-53.809 -25.715,-79.934 z"
       id="path10" />
    <path
       d="m 444.45,450.63 -96.098,83.664 c 13.555,1.875 27.469,3.1758 41.457,3.1758 73.348,0 124.45,-24.172 124.45,-45.84 0,-16.551 -28.57,-33.125 -69.812,-41 z"
       id="path12" />
    <path
       d="m 327.48,548.15 c -27.547,-5.8203 -48.602,-15.035 -62.117,-26.305 v 44.656 c 0.17578,0 10.203,41.535 124.45,41.535 108.17,0 122.68,-37.234 123.98,-41.496 h 0.13672 c 0.0977,-0.27734 0.19922,-0.55078 0.33594,-0.82812 v -43.512 c -23.422,19.457 -69.281,32.105 -124.45,32.105 -21.453,0 -42.426,-2.0703 -62.336,-6.1562 z"
       id="path14" />
  </g>
</svg>
