<?xml version="1.0" standalone="no"?>
<!DOCTYPE svg PUBLIC "-//W3C//DTD SVG 20010904//EN"
 "http://www.w3.org/TR/2001/REC-SVG-20010904/DTD/svg10.dtd">
<svg version="1.0" xmlns="http://www.w3.org/2000/svg"
 width="512.000000pt" height="512.000000pt" viewBox="0 0 512.000000 512.000000"
 preserveAspectRatio="xMidYMid meet">

<g transform="translate(0.000000,512.000000) scale(0.100000,-0.100000)"
fill="#000000" stroke="none">
<path d="M1973 4690 c-47 -19 -56 -78 -18 -115 24 -25 26 -25 207 -25 l183 0
-500 -500 -500 -500 -90 45 c-193 98 -381 99 -575 4 -166 -82 -297 -251 -335
-434 -73 -347 159 -690 509 -754 340 -62 672 170 735 513 29 159 -8 330 -100
467 l-37 56 499 499 499 499 0 -165 c0 -220 13 -260 83 -260 27 0 64 36 67 65
1 11 2 154 1 318 l-1 297 -302 -1 c-167 0 -313 -4 -325 -9z m-868 -1354 c68
-31 130 -93 163 -165 38 -80 38 -192 0 -272 -33 -72 -95 -134 -167 -167 -80
-38 -192 -38 -272 0 -72 33 -134 95 -167 167 -38 80 -38 192 0 272 78 169 274
242 443 165z"/>
<path d="M2882 3970 c-111 -29 -195 -75 -278 -153 -207 -193 -261 -479 -138
-735 51 -107 177 -233 284 -284 112 -52 161 -63 290 -63 134 0 218 23 322 86
l63 38 498 -497 497 -497 -191 -5 c-186 -5 -191 -6 -210 -29 -26 -32 -24 -67
6 -96 l24 -25 316 0 315 0 0 278 c0 152 3 286 6 298 7 28 -40 84 -71 84 -74 0
-85 -30 -85 -237 l0 -168 -499 499 -500 499 30 44 c126 183 143 423 43 631
-48 101 -176 231 -276 280 -144 70 -304 89 -446 52z m303 -319 c70 -35 121
-87 157 -160 18 -37 23 -63 23 -131 0 -73 -4 -93 -28 -142 -32 -64 -94 -125
-165 -159 -68 -33 -206 -33 -274 0 -196 95 -257 322 -132 493 95 131 269 172
419 99z"/>
<path d="M2740 1904 c-177 -38 -347 -170 -428 -332 -23 -46 -47 -110 -54 -143
l-12 -59 -710 0 -711 0 121 123 c130 132 141 153 104 200 -16 21 -30 27 -58
27 -35 0 -50 -13 -244 -207 -115 -114 -208 -212 -208 -218 0 -17 413 -421 443
-433 40 -17 55 -15 82 13 47 46 37 66 -107 212 l-132 133 709 -2 708 -3 13
-65 c8 -36 32 -102 54 -147 124 -251 402 -392 676 -342 343 63 575 395 513
735 -64 351 -410 583 -759 508z m275 -318 c68 -31 130 -93 163 -165 38 -80 38
-192 0 -272 -33 -72 -95 -134 -167 -167 -80 -38 -192 -38 -272 0 -72 33 -134
95 -167 167 -38 80 -38 192 0 272 78 169 274 242 443 165z"/>
</g>
</svg>
