<?xml version="1.0" encoding="UTF-8" standalone="no"?>
<svg
   width="752pt"
   height="752pt"
   version="1.1"
   viewBox="0 0 752 752"
   id="svg40"
   sodipodi:docname="physics_relativity.svg"
   inkscape:version="1.1 (c68e22c387, 2021-05-23)"
   xmlns:inkscape="http://www.inkscape.org/namespaces/inkscape"
   xmlns:sodipodi="http://sodipodi.sourceforge.net/DTD/sodipodi-0.dtd"
   xmlns="http://www.w3.org/2000/svg"
   xmlns:svg="http://www.w3.org/2000/svg">
  <defs
     id="defs44" />
  <sodipodi:namedview
     id="namedview42"
     pagecolor="#ffffff"
     bordercolor="#666666"
     borderopacity="1.0"
     inkscape:pageshadow="2"
     inkscape:pageopacity="0.0"
     inkscape:pagecheckerboard="0"
     inkscape:document-units="pt"
     showgrid="false"
     inkscape:zoom="0.29055319"
     inkscape:cx="-714.15495"
     inkscape:cy="975.72496"
     inkscape:window-width="1920"
     inkscape:window-height="1009"
     inkscape:window-x="-8"
     inkscape:window-y="-8"
     inkscape:window-maximized="1"
     inkscape:current-layer="svg40" />
  <g
     id="g38"
     transform="matrix(0,-2.0274795,2.0274795,0,-395.27208,1139.6007)">
    <path
       d="m 483.11,550.99 c -35.129,0.008 -98.633,-50.758 -120,-68.723 -3.1289,-2.6289 -3.5312,-7.2969 -0.89844,-10.426 2.6328,-3.1289 7.2969,-3.5273 10.426,-0.90234 67.438,56.711 108.61,71.332 116.32,63.672 1.4414,-1.4375 1.9922,-4.5586 1.5508,-8.7891 -0.42187,-4.0625 2.5273,-7.7031 6.5938,-8.1211 4.0312,-0.47656 7.6992,2.5234 8.125,6.5898 0.9375,8.9961 -1.0156,15.992 -5.8047,20.781 -4.1289,4.125 -9.7266,5.9102 -16.316,5.918 z"
       id="path2" />
    <path
       d="m 341.66,460.95 c -1.7891,0 -3.582,-0.64453 -5.0039,-1.9492 -9.2148,-8.4688 -18.406,-17.285 -27.324,-26.211 -4.8711,-4.8633 -9.625,-9.7422 -14.27,-14.59 -2.8242,-2.957 -2.7188,-7.6367 0.23047,-10.465 2.957,-2.8242 7.6406,-2.7188 10.465,0.23047 4.5625,4.7773 9.2461,9.5664 14.035,14.359 8.7773,8.7812 17.816,17.453 26.879,25.777 3.0078,2.7695 3.2031,7.4492 0.4375,10.457 -1.457,1.5898 -3.4492,2.3906 -5.4492,2.3906 z"
       id="path4" />
    <path
       d="m 271.54,388.72 c -2.0781,0 -4.1445,-0.86719 -5.6094,-2.5664 -23.062,-26.75 -96.195,-116.15 -68.887,-143.46 4.8008,-4.793 11.809,-6.7695 20.785,-5.7969 4.0664,0.42578 7.0156,4.0625 6.5898,8.1289 -0.42578,4.0625 -4.1094,7.0391 -8.1289,6.582 -4.2383,-0.41016 -7.3438,0.10938 -8.7891,1.5547 -7.9453,7.9414 8.6914,52.645 69.637,123.32 2.6719,3.1016 2.3242,7.7695 -0.77344,10.441 -1.3906,1.207 -3.1133,1.7969 -4.8242,1.7969 z"
       id="path6" />
    <path
       d="m 490.45,512.4 c -9.1211,0 -24.555,-5.5625 -52.27,-24.98 -28.875,-20.234 -63.836,-50.434 -98.445,-85.039 -34.605,-34.605 -64.805,-69.566 -85.035,-98.438 -30.98,-44.227 -26.703,-57.195 -20.797,-63.102 8.4297,-8.4258 23.422,-2.3828 33.957,2.8906 3.2578,1.6328 6.75,3.5547 10.449,5.7461 3.5156,2.082 4.6797,6.6211 2.5938,10.137 -2.0859,3.5195 -6.6172,4.6836 -10.137,2.5938 -3.375,-2 -6.5625,-3.75 -9.5352,-5.2461 -10.754,-5.375 -15.336,-5.5625 -16.742,-5.4648 -2.0898,10.754 30.402,65.109 105.71,140.41 75.301,75.309 129.62,107.75 140.41,105.72 0.12891,-1.4102 -0.082,-5.9922 -5.4688,-16.758 -1.4883,-2.9609 -3.2422,-6.1484 -5.2422,-9.5234 -2.082,-3.5117 -0.92578,-8.0508 2.5898,-10.137 3.5117,-2.0898 8.0547,-0.92578 10.141,2.5938 2.1914,3.6914 4.1094,7.1836 5.7422,10.441 5.2773,10.551 11.324,25.543 2.8906,33.965 -2.1992,2.2031 -5.3906,4.1836 -10.82,4.1836 z"
       id="path8" />
    <path
       d="m 470.13,455.83 c -26.266,0 -86.52,-58 -106.19,-77.66 -22.172,-22.176 -93.09,-95.965 -74.625,-114.43 3.9336,-3.9297 13.152,-13.152 66.73,31 3.1562,2.5977 3.6094,7.2656 1.0117,10.418 -2.5977,3.1641 -7.2656,3.5977 -10.418,1.0039 -25.07,-20.652 -39.141,-28.176 -45.297,-30.301 4.168,12.652 29.449,48.227 73.066,91.848 43.605,43.602 79.184,68.887 91.836,73.066 -2.0781,-6.0117 -9.2969,-19.59 -28.938,-43.641 -2.5859,-3.1641 -2.1172,-7.8242 1.0469,-10.414 3.1602,-2.5781 7.8203,-2.125 10.414,1.0469 42.543,52.086 33.477,61.156 29.602,65.027 -2.0898,2.0898 -4.8906,3.0352 -8.2422,3.0352 z"
       id="path10" />
    <path
       d="m 218.15,468.34 c -0.94531,0 -1.8945,-0.35938 -2.6172,-1.082 -1.4453,-1.4453 -1.4453,-3.7852 0,-5.2305 l 84.547,-84.547 c 1.4453,-1.4453 3.7852,-1.4453 5.2305,0 1.4453,1.4453 1.4453,3.7852 0,5.2305 l -84.547,84.543 c -0.72266,0.72266 -1.668,1.0859 -2.6133,1.0859 z"
       id="path12" />
    <path
       d="m 469.05,337.29 c -0.94531,0 -1.8945,-0.35937 -2.6172,-1.082 -1.4453,-1.4453 -1.4453,-3.7852 0,-5.2305 l 84.547,-84.555 c 1.4453,-1.4453 3.7852,-1.4453 5.2305,0 1.4453,1.4453 1.4453,3.7852 0,5.2305 l -84.543,84.555 c -0.72266,0.72266 -1.6719,1.082 -2.6172,1.082 z"
       id="path14" />
    <path
       d="m 452.51,310.36 c -1.8945,0 -3.7852,-0.72266 -5.2305,-2.168 -2.8906,-2.8906 -2.8906,-7.5742 0,-10.465 l 84.547,-84.547 c 2.8906,-2.8906 7.5742,-2.8906 10.465,0 2.8906,2.8906 2.8906,7.5742 0,10.465 l -84.551,84.547 c -1.4453,1.4453 -3.3398,2.168 -5.2305,2.168 z"
       id="path16" />
    <path
       d="m 206.21,535.3 c -1.8945,0 -3.7852,-0.72266 -5.2305,-2.168 -2.8906,-2.8906 -2.8906,-7.5742 0,-10.465 l 84.547,-84.547 c 2.8906,-2.8906 7.5742,-2.8906 10.465,0 2.8906,2.8906 2.8906,7.5742 0,10.465 l -84.551,84.547 c -1.4453,1.4453 -3.3398,2.168 -5.2305,2.168 z"
       id="path18" />
    <path
       d="m 321.24,502.3 c -0.94531,0 -1.8945,-0.35938 -2.6172,-1.082 -1.4453,-1.4453 -1.4453,-3.7852 0,-5.2305 l 15.695,-15.695 c 1.4453,-1.4453 3.7852,-1.4453 5.2305,0 1.4453,1.4453 1.4453,3.7852 0,5.2305 l -15.695,15.695 c -0.72266,0.72266 -1.668,1.082 -2.6133,1.082 z m 31.395,-31.398 c -0.94531,0 -1.8945,-0.35938 -2.6172,-1.082 -1.4453,-1.4453 -1.4453,-3.7852 0,-5.2305 l 15.695,-15.695 c 1.4453,-1.4453 3.7852,-1.4453 5.2305,0 1.4453,1.4453 1.4453,3.7852 0,5.2305 l -15.695,15.695 c -0.72266,0.72266 -1.668,1.082 -2.6133,1.082 z"
       id="path20" />
    <path
       d="m 409.05,267.35 c -0.94531,0 -1.8945,-0.35938 -2.6172,-1.082 -1.4453,-1.4453 -1.4453,-3.7852 0,-5.2305 l 15.695,-15.695 c 1.4453,-1.4453 3.7852,-1.4453 5.2305,0 1.4453,1.4453 1.4453,3.7852 0,5.2305 l -15.695,15.695 c -0.71875,0.71875 -1.668,1.082 -2.6133,1.082 z m 31.395,-31.398 c -0.94531,0 -1.8945,-0.35938 -2.6172,-1.082 -1.4453,-1.4453 -1.4453,-3.7852 0,-5.2305 l 15.695,-15.695 c 1.4453,-1.4453 3.7852,-1.4453 5.2305,0 1.4453,1.4453 1.4453,3.7852 0,5.2305 l -15.691,15.691 c -0.72266,0.72266 -1.6719,1.0859 -2.6172,1.0859 z"
       id="path22" />
    <path
       d="m 529.97,391.97 c -6.6758,0 -12.953,-2.6016 -17.676,-7.3203 -9.7422,-9.7422 -9.7422,-25.602 0.004,-35.344 9.4375,-9.4375 25.902,-9.4375 35.348,0 9.7422,9.7422 9.7422,25.594 0,35.344 h -0.004 c -4.7188,4.7188 -10.996,7.3203 -17.672,7.3203 z m 0,-35.188 c -2.7227,0 -5.2812,1.0547 -7.2031,2.9844 -1.9297,1.9297 -2.9922,4.4883 -2.9922,7.2031 0,2.7227 1.0625,5.2812 2.9883,7.2109 3.8516,3.8594 10.57,3.8594 14.414,0 h 0.004 c 1.9258,-1.9297 2.9883,-4.4883 2.9883,-7.2109 0,-2.7188 -1.0625,-5.2734 -2.9883,-7.2031 -1.9297,-1.9297 -4.4883,-2.9844 -7.2109,-2.9844 z"
       id="path24" />
    <path
       d="m 280.47,512.38 c -2,0 -3.8477,-0.81641 -5.2539,-2.1445 -0.74219,-0.73828 -1.2578,-1.5547 -1.6289,-2.4414 -0.36719,-0.89062 -0.51563,-1.8516 -0.51563,-2.8125 0,-0.96094 0.14844,-1.9219 0.51563,-2.8125 0.37109,-0.89062 0.96484,-1.707 1.6289,-2.4414 0.66406,-0.66406 1.4766,-1.1836 2.3672,-1.5547 2.7383,-1.1836 5.9961,-0.51953 8.0664,1.5547 0.73828,0.73828 1.2578,1.5547 1.625,2.4414 0.37109,0.89063 0.59375,1.8516 0.59375,2.8125 0,2 -0.8125,3.8516 -2.2188,5.2539 -0.66797,0.66406 -1.4805,1.1836 -2.3711,1.5547 -0.88672,0.36719 -1.8477,0.58984 -2.8086,0.58984 z"
       id="path26" />
    <path
       d="m 425.5,504.38 c -0.96094,0 -1.9258,-0.22266 -2.8125,-0.59375 -0.89062,-0.36719 -1.707,-0.89062 -2.4414,-1.625 -1.4062,-1.4102 -2.1445,-3.2578 -2.1445,-5.1797 0,-0.96094 0.21875,-1.9219 0.59375,-2.8125 0.36719,-0.96094 0.88672,-1.7773 1.5547,-2.4414 2.0703,-2.0742 5.4023,-2.7383 8.0664,-1.625 0.96094,0.36719 1.7031,0.96094 2.4414,1.625 0.66406,0.66406 1.1836,1.4805 1.5547,2.4414 0.36719,0.89062 0.59375,1.8516 0.59375,2.8125 0,0.9609 -0.14844,1.9219 -0.51953,2.8125 -0.44141,0.89062 -0.96094,1.707 -1.625,2.3711 -0.74219,0.73828 -1.5547,1.2578 -2.4414,1.625 -0.89844,0.36719 -1.8594,0.58984 -2.8203,0.58984 z"
       id="path28" />
    <path
       d="m 394.35,335.45 c -2,0 -3.8477,-0.80859 -5.2539,-2.2188 -1.332,-1.3281 -2.1445,-3.1797 -2.1445,-5.1797 0,-0.96094 0.21875,-1.9219 0.59375,-2.8828 0.36719,-0.89062 0.88672,-1.707 1.5547,-2.3711 2.8125,-2.7383 7.7695,-2.7383 10.508,0 0.66406,0.66406 1.1797,1.4805 1.5547,2.3711 0.44531,0.96094 0.59375,1.9219 0.59375,2.8828 0,0.96094 -0.14844,1.9297 -0.51953,2.8125 -0.44531,0.89062 -0.96094,1.707 -1.625,2.3711 -1.4141,1.4023 -3.2617,2.2148 -5.2617,2.2148 z"
       id="path30" />
    <path
       d="m 438.82,278.62 c -1.9219,0 -3.7734,-0.81641 -5.1758,-2.2188 -0.74219,-0.66406 -1.2617,-1.4805 -1.6289,-2.3711 -0.37109,-0.88672 -0.51953,-1.8516 -0.51953,-2.8125 0,-2 0.73828,-3.8516 2.1445,-5.2539 2,-2.0742 5.3242,-2.7383 8.0664,-1.625 0.88672,0.44141 1.6992,0.96094 2.3672,1.6289 1.4023,1.3984 2.2188,3.3281 2.2188,5.25 0,0.96094 -0.22266,1.9219 -0.59375,2.8125 -0.37109,0.8906 -0.89062,1.707 -1.6289,2.3711 -0.66406,0.73828 -1.4766,1.2578 -2.3633,1.625 -0.89063,0.36719 -1.8516,0.59375 -2.8867,0.59375 z"
       id="path32" />
    <path
       d="m 328.79,238.59 c -0.96094,0 -1.9219,-0.22266 -2.8125,-0.59375 -0.89062,-0.36719 -1.7031,-0.89063 -2.4414,-1.625 -0.66406,-0.66406 -1.1797,-1.4805 -1.5547,-2.3711 -0.36719,-0.89062 -0.59375,-1.8516 -0.59375,-2.8125 0,-0.96094 0.22266,-1.9219 0.59375,-2.8828 0.37109,-0.89062 0.89062,-1.707 1.5547,-2.3711 0.74219,-0.66406 1.5547,-1.2578 2.4414,-1.625 1.7773,-0.74609 3.8477,-0.74609 5.625,0 0.96094,0.36719 1.7734,0.96094 2.4375,1.625 0.66797,0.66406 1.1836,1.4805 1.5586,2.3711 0.44141,0.96094 0.58984,1.9219 0.58984,2.8828 0,0.96094 -0.14844,1.9219 -0.51562,2.8125 -0.36718,0.8906 -0.96094,1.707 -1.6289,2.3711 -0.73828,0.73828 -1.4805,1.2578 -2.4414,1.625 -0.88672,0.37109 -1.8477,0.59375 -2.8125,0.59375 z"
       id="path34" />
    <path
       d="m 396.06,400.21 c -1.9609,0 -3.9297,-0.10156 -5.9023,-0.31641 -4.0664,-0.44141 -7.0039,-4.0898 -6.5625,-8.1523 0.4375,-4.0703 4.0859,-6.9961 8.1523,-6.5625 11.871,1.2578 23.562,-2.8242 32.008,-11.273 15.312,-15.312 15.312,-40.23 0,-55.543 -7.418,-7.4219 -17.281,-11.504 -27.773,-11.504 -10.488,0 -20.352,4.082 -27.77,11.504 -8.1914,8.1875 -12.336,19.52 -11.363,31.082 0.33984,4.0742 -2.6836,7.6523 -6.7578,7.9922 -4.082,0.46875 -7.6484,-2.6875 -7.9922,-6.75 -1.332,-15.918 4.3672,-31.516 15.648,-42.785 10.215,-10.219 23.793,-15.84 38.234,-15.84 14.445,0 28.023,5.6211 38.238,15.84 10.211,10.211 15.836,23.789 15.836,38.234 0,14.445 -5.625,28.023 -15.836,38.234 -10.23,10.23 -23.887,15.84 -38.16,15.84 z"
       id="path36" />
  </g>
</svg>
