<?xml version="1.0" encoding="UTF-8" standalone="no"?>
<svg
   width="752pt"
   height="752pt"
   version="1.1"
   viewBox="0 0 752 752"
   id="svg26"
   sodipodi:docname="physics_field.svg"
   inkscape:version="1.1 (c68e22c387, 2021-05-23)"
   xmlns:inkscape="http://www.inkscape.org/namespaces/inkscape"
   xmlns:sodipodi="http://sodipodi.sourceforge.net/DTD/sodipodi-0.dtd"
   xmlns="http://www.w3.org/2000/svg"
   xmlns:svg="http://www.w3.org/2000/svg">
  <defs
     id="defs30" />
  <sodipodi:namedview
     id="namedview28"
     pagecolor="#ffffff"
     bordercolor="#666666"
     borderopacity="1.0"
     inkscape:pageshadow="2"
     inkscape:pageopacity="0.0"
     inkscape:pagecheckerboard="0"
     inkscape:document-units="pt"
     showgrid="false"
     inkscape:zoom="0.29055319"
     inkscape:cx="469.79351"
     inkscape:cy="834.61484"
     inkscape:window-width="1920"
     inkscape:window-height="1009"
     inkscape:window-x="-8"
     inkscape:window-y="-8"
     inkscape:window-maximized="1"
     inkscape:current-layer="svg26"
     showguides="false" />
  <g
     id="g24"
     transform="matrix(-0.91321486,1.5817345,-1.5817345,-0.91321486,1325.1637,119.39732)">
    <path
       d="m 443.32507,192.40118 c 2.27063,3.663 5.93944,6.2836 10.32737,7.37187 4.36813,1.09353 8.94361,0.53722 12.87644,-1.57761 3.92851,-2.11251 6.73783,-5.52728 7.91808,-9.60439 1.16411,-4.08453 0.56681,-8.34606 -1.70132,-12.00504 -2.27062,-3.66301 -5.93943,-6.28359 -10.31188,-7.3748 -9.0499,-2.25514 -18.37966,2.76182 -20.81239,11.19158 -1.16977,4.0661 -0.56748,8.33568 1.70315,11.99868 z"
       id="path2"
       style="stroke-width:1.23564" />
    <path
       d="m 509.80847,393.31176 c 2.27064,3.66301 5.93944,6.28361 10.32737,7.37187 4.36813,1.09355 8.94791,0.5349 12.87644,-1.57761 3.92851,-2.11252 6.73784,-5.52727 7.91809,-9.60438 1.16411,-4.08454 0.56681,-8.34606 -1.70132,-12.00504 -2.27063,-3.66301 -5.93944,-6.28361 -10.3119,-7.37482 -9.0499,-2.25513 -18.37965,2.76182 -20.81238,11.19159 -1.16478,4.07415 -0.56249,8.34375 1.70315,11.99869 z"
       id="path4"
       style="stroke-width:1.23564" />
    <path
       d="m 409.37518,310.37804 c 2.27063,3.66302 5.93943,6.2836 10.32487,7.36785 4.37063,1.09755 8.94792,0.53488 12.87644,-1.57763 3.92851,-2.11251 6.74033,-5.52325 7.91808,-9.60436 1.16911,-4.0765 0.56682,-8.34609 -1.70131,-12.00506 -2.27063,-3.663 -5.93445,-6.27555 -10.31189,-7.37482 -9.0499,-2.25512 -18.37965,2.76184 -20.8124,11.1916 -1.16475,4.07416 -0.56247,8.34374 1.70566,12.00271 z"
       id="path6"
       style="stroke-width:1.23564" />
    <path
       d="m 322.36463,463.6761 c 2.27061,3.66299 5.93944,6.2836 10.32737,7.37187 4.36813,1.09353 8.94792,0.53491 12.87643,-1.5776 3.92853,-2.11251 6.73785,-5.52728 7.9156,-9.60842 1.1691,-4.07648 0.5668,-8.34607 -1.70133,-12.00504 -2.27063,-3.66301 -5.93444,-6.27556 -10.31189,-7.37483 -9.05239,-2.25914 -18.38213,2.75781 -20.81237,11.1916 -1.16229,4.07818 -0.56249,8.34375 1.70564,12.00273 z"
       id="path8"
       style="stroke-width:1.23564" />
    <path
       d="m 213.24411,344.11826 c 2.27061,3.66301 5.93944,6.2836 10.32487,7.36784 4.37062,1.09756 8.9479,0.5349 12.87642,-1.57761 3.92851,-2.11251 6.74035,-5.52325 7.91811,-9.60438 1.16909,-4.07649 0.56681,-8.34607 -1.70132,-12.00504 -2.27064,-3.66302 -5.93445,-6.27556 -10.3119,-7.37483 -9.0499,-2.25512 -18.37966,2.76183 -20.81238,11.1916 -1.16477,4.07416 -0.56249,8.34376 1.70563,12.00273 z"
       id="path10"
       style="stroke-width:1.23564" />
    <path
       d="m 253.322,544.28786 c 2.27062,3.663 5.93944,6.2836 10.32487,7.36784 4.37064,1.09756 8.94792,0.53491 12.87644,-1.5776 3.92851,-2.11251 6.74033,-5.52325 7.91808,-9.60439 1.16911,-4.07648 0.56682,-8.34609 -1.70131,-12.00505 -2.27063,-3.66299 -5.93444,-6.27554 -10.31189,-7.37481 -9.0499,-2.25514 -18.37966,2.76183 -20.81238,11.19159 -1.16228,4.07819 -0.5625,8.34374 1.70563,12.00271 z"
       id="path12"
       style="stroke-width:1.23564" />
    <path
       d="m 436.64614,508.99353 c 1.38179,37.66776 -10.28093,67.30931 -35.49305,80.86681 -30.76951,16.54592 -73.73091,4.89019 -115.72147,-27.0555 3.59815,-2.05851 6.72598,-4.6334 9.20451,-7.68744 37.3276,28.01988 74.68309,38.82217 100.45852,24.96177 23.21629,-12.48426 32.51359,-42.57644 28.72557,-80.67011 -3.30118,16.09296 -11.15865,27.98386 -23.20287,34.45499 C 363.32428,553.90744 300.09595,514.718 256.66668,444.65737 240.06675,417.8677 229.1293,391.0198 224.01247,366.93678 c 4.20261,0.47258 8.38114,0.1889 12.42167,-0.81134 5.02676,22.68013 15.37915,48.10076 30.73642,72.88456 38.69263,62.41944 97.03323,101.38217 127.37805,85.06462 14.01487,-7.53025 20.75085,-26.88633 18.49369,-53.09922 -0.56926,-6.5734 -1.70913,-13.41526 -3.29922,-20.42414 -2.29552,11.63167 -8.00628,20.74363 -17.27145,25.7355 -9.07406,4.87946 -20.1332,5.00109 -31.82319,1.29929 2.9817,-2.79207 5.35509,-6.05313 7.01497,-9.71041 7.06592,1.71905 13.52796,1.43916 18.73839,-1.36267 8.94562,-4.81645 12.90255,-16.20057 12.31222,-30.70685 4.49932,-1.32215 8.88677,-3.05753 13.07032,-5.30717 4.55654,-2.45022 8.66149,-5.40526 12.37846,-8.70572 13.28727,7.86125 25.96048,10.4002 34.97469,5.56394 19.14968,-10.30354 15.83931,-50.4505 -7.22418,-87.65678 -2.63821,-4.256 -5.45958,-8.29508 -8.38327,-12.14518 3.42386,-2.29295 6.29191,-5.10997 8.5288,-8.36757 3.6141,4.65643 7.09678,9.60397 10.36031,14.86873 27.26237,43.98 28.48887,89.26058 2.78476,103.08813 -9.20251,4.94249 -20.43527,5.0075 -32.30826,1.15119 28.42747,23.77973 57.21322,34.31305 75.66566,24.41112 13.41936,-7.22213 19.51419,-24.26878 18.81167,-46.41148 4.20436,-0.33527 8.30141,-1.43035 12.13955,-3.24146 1.41878,27.86307 -6.71924,49.65107 -24.88415,59.43968 -12.24947,6.57651 -27.31531,6.72787 -43.53966,1.52583 33.48665,22.03825 66.07339,29.54309 89.2612,17.07966 44.99493,-24.2015 37.862,-114.45147 -15.89063,-201.18253 -19.98043,-32.23265 -43.63797,-59.49715 -67.77825,-79.81685 3.44311,-2.16886 6.38322,-4.84172 8.70015,-7.9702 24.85254,20.98456 48.97325,48.89368 69.57848,82.13427 58.06581,93.6829 63.09349,188.82598 11.45372,216.60839 -39.13467,20.02005 -64.18926,4.3788 -126.65724,-26.75194 -3.11001,34.87335 -3.11001,34.87335 -3.11001,34.87335 z"
       id="path18"
       sodipodi:nodetypes="csccsccccccccccccccsccsccsccccccccccccccc"
       style="stroke-width:1.23564" />
    <path
       d="m 320.34727,281.50167 c 3.4886,-4.83967 5.88901,-12.49326 3.75097,-33.629 -1.52784,-39.32007 10.85492,-68.05998 35.20808,-81.15007 19.75901,-10.62515 44.54066,-9.58929 70.85935,0.93085 -1.86981,2.69448 -3.42611,5.59682 -4.34324,8.78473 -0.15377,0.53452 -0.16358,1.07767 -0.29002,1.619 -22.74033,-9.17404 -43.79096,-10.34901 -60.16179,-1.55133 -21.11064,11.35198 -31.39113,38.08842 -28.95929,75.29892 0.0927,1.33255 0.31521,2.73508 0.44006,4.08253 3.4472,-15.45671 11.22266,-26.88366 22.95165,-33.19079 18.49216,-9.94995 43.90232,-5.6535 71.55608,12.09804 26.34366,16.90689 52.04091,44.26431 72.34845,77.02467 8.88239,14.32917 16.12081,28.67077 21.73617,42.61139 -4.21338,-0.11716 -8.37797,0.48712 -12.34785,1.8527 -5.24374,-12.80068 -11.87477,-25.89223 -19.88462,-38.81378 -19.42794,-31.34141 -43.84334,-57.39699 -68.72762,-73.37295 -23.23618,-14.92067 -44.60549,-19.15192 -58.60942,-11.61598 -14.00599,7.5255 -20.75411,26.87156 -18.50129,53.07027 0.56311,6.58209 1.70817,13.4323 3.30338,20.44945 2.30416,-11.63631 8.0081,-20.75977 17.27153,-25.75207 9.57646,-5.14963 21.35515,-5.08808 33.77645,-0.71929 -3.12641,2.63323 -5.73949,5.82416 -7.63022,9.48179 -7.59437,-2.0965 -14.54101,-1.96487 -20.08097,1.01416 -8.79631,4.74059 -12.76127,15.83943 -12.31698,30.0099 -9.94457,2.63659 -19.08822,7.44054 -26.63815,14.00697 -12.87021,-7.32817 -25.07776,-9.62731 -33.82186,-4.92529 -19.14472,10.29483 -15.82976,50.45636 7.25165,87.69157 l -5.22959,2.85506 5.24955,-2.82288 c 2.97826,4.80458 6.17561,9.35698 9.50807,13.64296 -3.36908,2.20435 -6.27965,4.95276 -8.59717,8.21074 -4.00362,-5.03327 -7.8317,-10.43552 -11.41026,-16.2085 l -0.02,-0.0322 c -27.27709,-44.00373 -28.51128,-89.2967 -2.80904,-103.11775 9.20401,-4.94934 20.45633,-5.01883 32.33879,-1.14006 -28.44554,-23.81821 -57.26365,-34.36579 -75.7198,-24.44123 -5.43141,2.92067 -9.64602,7.47844 -12.71464,13.30784 -0.82635,-0.27103 -1.60545,-0.64283 -2.45759,-0.86223 -3.34771,-0.83547 -6.68668,-1.01403 -9.9763,-0.88024 4.16358,-9.38198 10.49281,-16.72278 19.08609,-21.34371 12.2446,-6.58438 27.2984,-6.74562 43.52428,-1.55061 -33.50319,-22.04588 -66.07411,-29.56336 -89.26189,-17.09992 -44.99733,24.20721 -37.85697,114.4763 15.9162,201.22383 l 0.0425,0.0685 c 10.07759,16.25728 21.08696,31.25067 32.62168,44.73468 -3.32428,2.23941 -6.18319,5.02468 -8.454,8.31125 -12.24498,-14.21053 -23.94451,-30.08449 -34.68275,-47.40756 l -0.0325,-0.0524 -0.003,-0.005 c -58.07834,-93.69266 -63.11911,-188.8673 -11.47933,-216.6497 25.10297,-13.49275 58.32708,-8.18184 92.5044,11.56962 0,0 24.47488,9.88354 33.91531,14.38222 z"
       id="path20"
       sodipodi:nodetypes="ccccsccccccsccsccccccccccscccccssscscccsccssccscsccc"
       style="stroke-width:1.23564" />
    <path
       d="m 355.83072,339.1709 c -23.20298,12.4771 -31.15156,40.10627 -17.75533,61.71725 13.39369,21.60686 43.06076,29.0142 66.26374,16.53709 23.19852,-12.47471 31.14898,-40.1104 17.7553,-61.71726 -13.39625,-21.61098 -43.06518,-29.0118 -66.26371,-16.53708"
       id="path22"
       style="stroke-width:1.23564" />
  </g>
</svg>
