<svg height='300px' width='300px'  fill="#000000" xmlns="http://www.w3.org/2000/svg" data-name="Layer 1" viewBox="0 0 100 100" x="0px" y="0px"><title>Artboard 10</title><path d="M23.71,75.28,17,65.47l.47-.15a17.15,17.15,0,0,0,7.88-5.42l.31-.38,10.8,15.68h.2a18,18,0,0,1,18,18,4.28,4.28,0,0,1-4.27,4.27H11.62a4.28,4.28,0,0,1-4.27-4.27A17.94,17.94,0,0,1,23.71,75.28ZM12,60.1a11,11,0,1,0-11-11A11,11,0,0,0,12,60.1Zm78.24,3.6-6.22-6.21h0a3.37,3.37,0,0,0-4.77,0L78.07,58.7a3.38,3.38,0,0,0,0,4.77l6.22,6.22a3.38,3.38,0,0,0,4.77,0l1.22-1.22a3.37,3.37,0,0,0,0-4.77Zm6.39-17.33h0l-8.37-2.69h0A3.37,3.37,0,0,0,84,45.86l-.52,1.64a3.38,3.38,0,0,0,2.18,4.24l8.37,2.69a3.38,3.38,0,0,0,4.24-2.18l.53-1.64a3.37,3.37,0,0,0-2.18-4.24ZM68.62,78a3.36,3.36,0,0,0,2.57.21l1.64-.53A3.38,3.38,0,0,0,75,73.49l-2.69-8.37a3.38,3.38,0,0,0-4.24-2.18l-1.64.52a3.37,3.37,0,0,0-2.18,4.24h0L67,76.07h0A3.35,3.35,0,0,0,68.62,78Zm-37-72.31-5.5,5.51a10.78,10.78,0,0,0,0,15.22l.54.54-6.82,6.82.43.24A17.2,17.2,0,0,1,27,40.82l.24.43,6.82-6.82,2.41,2.41A27,27,0,0,0,43.86,61.6a7.91,7.91,0,0,0,5.82,2.26c6.43,0,15-5.63,22.08-12.68,9.54-9.54,16.46-21.87,10.42-27.91A27,27,0,0,0,57.12,16L46.85,5.73A10.78,10.78,0,0,0,31.63,5.73Z"></path></svg>