<?xml version="1.0" encoding="UTF-8" standalone="no"?>
<svg
   width="752pt"
   height="752pt"
   version="1.1"
   viewBox="0 0 752 752"
   id="svg34"
   sodipodi:docname="physicsnuclear.svg"
   inkscape:version="1.1 (c68e22c387, 2021-05-23)"
   xmlns:inkscape="http://www.inkscape.org/namespaces/inkscape"
   xmlns:sodipodi="http://sodipodi.sourceforge.net/DTD/sodipodi-0.dtd"
   xmlns="http://www.w3.org/2000/svg"
   xmlns:svg="http://www.w3.org/2000/svg">
  <defs
     id="defs38">
    <marker
       style="overflow:visible;"
       id="Arrow1Lend"
       refX="0.0"
       refY="0.0"
       orient="auto"
       inkscape:stockid="Arrow1Lend"
       inkscape:isstock="true">
      <path
         transform="scale(0.8) rotate(180) translate(12.5,0)"
         style="fill-rule:evenodd;fill:context-stroke;stroke:context-stroke;stroke-width:1.0pt;"
         d="M 0.0,0.0 L 5.0,-5.0 L -12.5,0.0 L 5.0,5.0 L 0.0,0.0 z "
         id="path2359" />
    </marker>
  </defs>
  <sodipodi:namedview
     id="namedview36"
     pagecolor="#ffffff"
     bordercolor="#666666"
     borderopacity="1.0"
     inkscape:pageshadow="2"
     inkscape:pageopacity="0.0"
     inkscape:pagecheckerboard="0"
     inkscape:document-units="pt"
     showgrid="false"
     inkscape:zoom="0.41090426"
     inkscape:cx="592.59547"
     inkscape:cy="672.90615"
     inkscape:window-width="1920"
     inkscape:window-height="1009"
     inkscape:window-x="-8"
     inkscape:window-y="-8"
     inkscape:window-maximized="1"
     inkscape:current-layer="g32" />
  <g
     id="g32">
    <path
       d="m 125.55065,342.65275 c 5.82589,0 10.48918,-4.66312 11.65177,-10.48916 3.50053,-34.96127 5.83202,-68.76025 5.83202,-103.72151 h 196.38247 c 6.99476,0 11.65176,-4.66313 11.65176,-11.65176 0,-6.99477 -4.66313,-11.65176 -11.65176,-11.65176 H 131.37229 c -6.99478,0 -11.65176,4.66313 -11.65176,11.65176 0,37.29369 -2.33165,75.74966 -5.82588,113.04177 0,5.82589 3.4944,12.82066 11.65175,12.82066 z"
       id="path2"
       sodipodi:nodetypes="sccssssscss"
       style="fill:#000000;fill-opacity:1;stroke:#000000;stroke-width:15.8666;stroke-miterlimit:4;stroke-dasharray:none;stroke-opacity:1" />
    <path
       d="m 116.24298,414.90928 c 5.82588,0 10.48917,-3.4944 11.65177,-9.32027 1.16271,-8.15752 7.05635,-62.39937 8.2191,-70.55721 1.16271,-5.82589 -3.4944,-12.82065 -9.32027,-12.82065 -5.82589,-1.16272 -12.82066,3.49439 -12.82066,9.32027 -1.16272,8.15752 -7.05635,62.39937 -8.2191,70.55721 -2.33164,5.83202 2.33164,12.82065 10.48916,12.82065 z"
       id="path4"
       sodipodi:nodetypes="scccccs"
       style="stroke:#000000;stroke-width:15.8666;stroke-miterlimit:4;stroke-dasharray:none;stroke-opacity:1" />
    <path
       d="M 364.46337,717.90477 H 49.81359 v -25.64098 c 0,-4.66313 1.16273,-9.32027 2.33165,-13.98341 l 31.46655,-93.23265 c 13.98341,-43.11926 33.8919,-129.92315 43.21218,-174.211 1.16271,-5.82587 -2.33165,-12.82064 -9.32028,-13.98339 -5.82587,-1.16272 -10.58712,-1.75334 -11.74987,5.23529 -9.32027,43.11925 -30.29829,134.00814 -44.28185,175.96511 l -31.46655,95.55879 c -1.16272,5.82587 -2.33164,12.82065 -2.33164,19.80912 2.27564,57.51472 -31.62538,50.9077 336.79809,47.7893 6.9744,-0.53351 11.65176,-4.66314 11.65176,-11.65177 0,-6.99476 -4.65698,-11.65175 -11.65176,-11.65175 z"
       id="path8"
       sodipodi:nodetypes="ccscccccccccscc"
       style="stroke:#000000;stroke-width:15.8666;stroke-miterlimit:4;stroke-dasharray:none;stroke-opacity:1" />
    <path
       d="M 721.34175,717.90477 H 515.96396 v -25.64098 c 0,-6.99478 0,-13.98341 -3.4944,-20.97771 l -26.12579,-78.35909 -5.34706,-16.03742 C 456.93761,503.98119 440.1746,429.70556 430.99537,354.0596 c -5.49282,-45.26625 -8.27005,-91.02319 -8.27005,-137.27148 0,-6.99477 -4.66314,-11.65176 -11.65177,-11.65176 h -71.08637 c -6.99477,0 -11.65176,4.66313 -11.65176,11.65176 0,6.99477 4.66313,11.65176 11.65176,11.65176 l 59.43367,0.006 c 0.13266,13.82775 0.5081,27.64045 1.12632,41.43114 4.80045,107.08423 24.23885,212.84113 58.30736,314.0086 l 13.15272,39.94266 18.31383,55.61612 c 2.33164,3.50053 2.33164,8.16367 2.33164,12.82066 v 25.64099 H 363.86191 c -6.99477,0 -11.65175,4.66312 -11.65175,11.65175 0,6.99477 4.66312,11.65177 11.65175,11.65177 h 357.47684 c 6.99478,0 11.65177,-4.66314 11.65177,-11.65177 0,-6.99476 -4.65399,-11.65303 -11.64877,-11.65303 z"
       id="path10"
       sodipodi:nodetypes="ccscccsssssccscccscsssssc"
       style="stroke:#000000;stroke-width:15.8666;stroke-miterlimit:4;stroke-dasharray:none;stroke-opacity:1" />
    <path
       d="m 733.7743,721.66869 c 0,-5.89167 0,-11.77818 -3.4944,-17.66946 l -26.1258,-66.00164 -5.3471,-13.50828 c -24.0591,-61.41052 -40.8221,-123.97266 -50.0013,-187.68905 -5.4928,-38.12763 -8.27,-76.66857 -8.27,-115.62337 0,-5.89168 -4.6632,-9.81425 -11.6518,-9.81425 H 436.2975 c -6.9948,0 -11.6518,3.92774 -11.6518,9.81425 0,5.89167 4.6632,9.81424 11.6518,9.81424 l 180.9337,0.005 c 0.1326,11.64708 0.5081,23.28148 1.1263,34.89734 4.8005,90.19674 24.2389,179.27548 58.3074,264.48856 l 13.1527,33.64358 18.3138,46.8453 c 2.3317,2.94849 2.3317,6.87624 2.3317,10.79881 z"
       id="path10-1"
       sodipodi:nodetypes="ccccsssssccsccccc"
       style="stroke:#000000;stroke-width:14.5618;stroke-miterlimit:4;stroke-dasharray:none;stroke-opacity:1" />
    <path
       d="m 550.91608,88.605224 c 19.80912,0 34.96127,15.152296 34.96127,34.961266 0,19.80897 -15.1523,34.96126 -34.96127,34.96126 -5.82588,0 -10.48917,-1.16272 -17.47826,-4.66313 -4.66314,-2.33164 -10.48918,-1.16272 -13.98341,3.49439 -5.83203,8.16367 -16.32071,12.8268 -26.80484,12.8268 -8.15753,0 -16.31442,-2.33164 -20.9777,-8.15753 -4.66313,-3.49438 -10.48917,-3.49438 -15.1523,0 -10.48917,8.15753 -26.80484,10.48918 -38.45597,2.33164 -5.82588,-3.49438 -12.82064,-2.33164 -16.31441,3.4944 -3.49376,5.82604 -2.33164,12.82066 3.49439,16.31442 17.47827,11.65175 41.95698,11.65175 59.43367,1.16272 8.15752,4.66312 18.64685,8.15752 29.1357,8.15752 15.15229,0 29.13569,-5.82588 39.62455,-15.15229 5.82588,2.33164 11.65175,3.49438 18.64684,3.49438 32.6304,0 58.2714,-25.64098 58.2714,-58.27139 0,-32.630404 -25.641,-58.271386 -58.2714,-58.271386 -6.99477,0 -11.65176,4.663123 -11.65176,11.651753 -0.006,7.007065 3.4944,11.664051 10.48287,11.664051 z"
       id="path18"
       style="stroke:#000000;stroke-width:1.5749;stroke-opacity:1" />
    <path
       d="m 154.68636,181.83945 c 6.99477,0 11.65175,-4.66312 11.65175,-11.65175 0,-15.1523 9.32028,-26.80484 24.47241,-33.79898 9.32027,-4.66314 8.15753,-13.98341 5.82589,-17.47828 -4.65699,-5.83201 -6.98863,-12.82064 -6.98863,-18.64683 0,-19.809137 15.15229,-34.961271 34.96125,-34.961271 5.82588,0 12.82066,2.331644 18.64685,5.825876 6.99477,4.663136 16.31442,-2.331643 17.47826,-5.825876 5.83203,-13.989545 18.64685,-23.310135 33.79899,-23.310135 10.48917,0 19.80913,4.663135 25.64099,11.651765 4.66312,5.825876 13.9834,5.825876 18.64685,0 5.82587,-6.994779 15.15228,-11.651765 25.64098,-11.651765 15.1523,0 25.64099,9.320273 33.79898,24.472408 4.66314,9.320273 13.98341,6.994779 17.47828,5.825889 5.81973,-4.663136 12.8145,-6.98863 18.64054,-6.98863 5.82588,0 12.82066,2.331643 18.64685,5.825876 9.32027,5.825876 16.31441,-2.331644 17.47826,-4.663135 5.82589,-15.152287 18.64685,-24.472408 33.79898,-24.472408 5.82589,0 11.65177,1.162728 17.47828,4.663135 5.82587,3.494385 12.82065,1.162716 16.31442,-4.663135 2.33163,-4.663123 1.16886,-11.651752 -4.657,-15.152286 -9.32641,-5.825889 -18.64684,-8.157533 -29.1357,-8.157533 -19.80912,0 -38.45597,10.489176 -48.94481,27.967121 -13.98341,-5.825876 -27.96712,-5.825876 -40.78683,0 -11.6579,-17.478261 -29.13569,-27.967121 -50.1134,-27.967121 -12.82064,0 -25.64098,4.663136 -34.96126,11.651765 -9.32027,-6.994779 -22.14156,-11.651765 -34.96126,-11.651765 -19.80912,0 -38.45597,10.489176 -48.94482,27.967121 -6.99477,-3.494397 -13.98339,-4.656986 -20.97771,-4.656986 -32.63039,0 -58.27139,25.640994 -58.27139,58.27139 0,6.99478 1.16272,13.98341 3.4944,20.97771 -16.30812,10.48286 -26.79855,27.96712 -26.79855,48.94481 0,6.98863 4.66314,11.65177 11.65177,11.65177 z"
       id="path20"
       style="stroke:#000000;stroke-width:1.5749;stroke-opacity:1" />
    <path
       d="m 317.84626,111.91379 c -19.80913,0 -34.96127,15.15229 -34.96127,34.96125 0,6.99477 4.66314,11.65177 11.65177,11.65177 6.99476,0 11.65175,-4.66314 11.65175,-11.65177 0,-6.99476 4.66314,-11.65175 11.65176,-11.65175 6.99477,0 11.65176,-4.66313 11.65176,-11.65176 0.006,-6.99477 -4.65699,-11.6579 -11.64562,-11.6579 z"
       id="path22"
       style="stroke:#000000;stroke-width:1.5749;stroke-opacity:1" />
    <path
       d="m 411.08049,111.91379 c 6.99476,0 11.65175,4.66312 11.65175,11.65175 0,6.99477 4.66313,11.65177 11.65176,11.65177 6.99477,0 11.65176,-4.66314 11.65176,-11.65177 0,-19.80912 -15.15229,-34.961252 -34.96126,-34.961252 -6.99477,0 -11.65176,4.663122 -11.65176,11.651752 0.006,6.99477 4.66927,11.6579 11.6579,11.6579 z"
       id="path24"
       style="stroke:#000000;stroke-width:1.5749;stroke-opacity:1" />
    <path
       d="m 264.54585,389.30891 c -55.65517,0 -101.19419,45.53854 -101.19419,101.19418 0,55.65565 45.53855,101.19419 101.19419,101.19419 55.65565,0 101.19419,-45.53854 101.19419,-101.19419 10e-4,-55.65517 -45.5367,-101.19418 -101.19419,-101.19418 z m -40.89992,28.25122 c 12.6487,-7.16883 26.56365,-10.54213 40.89992,-10.54213 14.33627,0 28.67253,3.79429 40.89992,10.54213 2.10874,1.26417 2.95152,3.79429 1.68734,5.90303 l -24.87792,45.11723 c -0.84277,1.26417 -2.10876,2.10876 -3.79429,2.10876 -0.84276,0 -1.26418,0 -2.10875,-0.42141 -7.5906,-4.21568 -16.86647,-3.79428 -23.61213,0 -0.84277,0.42141 -2.10875,0.84278 -3.37292,0.42141 -1.26418,-0.42141 -2.10875,-0.84278 -2.53012,-2.10876 l -24.87792,-45.53855 c -1.26418,-1.68734 -0.42139,-4.63908 1.68734,-5.48171 z m 30.78097,100.77286 -24.87794,45.11724 c -0.84277,1.26417 -2.10875,2.10875 -3.79429,2.10875 -0.84275,0 -1.26416,0 -2.10874,-0.42139 -26.56364,-15.18075 -43.43012,-43.43197 -43.43012,-74.21154 0,-2.10874 2.10876,-4.21569 4.21569,-4.21569 h 51.44205 c 2.10874,0 4.21568,2.10874 4.21568,4.21569 0,8.85454 4.63911,17.28778 12.6487,21.50509 0.84276,0.42139 1.68734,1.26418 2.10876,2.53011 0.001,1.26237 0.001,2.5283 -0.41958,3.37107 z m -6.74751,-27.82943 c 0,-9.27586 7.5906,-16.86648 16.86646,-16.86648 9.27586,0 16.86648,7.59062 16.86648,16.86648 0,9.27585 -7.59062,16.86648 -16.86648,16.86648 -9.27586,0 -16.86646,-7.58876 -16.86646,-16.86648 z m 57.76638,74.21154 c -0.4214,0.42139 -1.26418,0.42139 -2.10876,0.42139 h -1.26416 c -1.26418,-0.42139 -2.10876,-0.84277 -2.53012,-2.10875 L 274.6648,517.91051 c -1.26417,-2.10875 -0.42138,-4.6391 1.68735,-5.90304 7.5906,-4.21568 12.64869,-12.64869 12.64869,-21.50509 0,-2.10875 2.10874,-4.21569 4.21569,-4.21569 l 51.44205,10e-4 c 2.10874,0 4.21568,2.10875 4.21568,4.21569 0.001,31.20274 -16.4433,59.45166 -43.42826,74.21155 z"
       id="path2-7"
       sodipodi:nodetypes="ssscscscccsccsccccccscssssccccssssscsccccsccccc"
       style="stroke-width:0.462983" />
  </g>
</svg>
