<svg height='300px' width='300px'  fill="#000000" xmlns="http://www.w3.org/2000/svg" xmlns:xlink="http://www.w3.org/1999/xlink" viewBox="0 0 56 56" version="1.1" x="0px" y="0px"><title>014 - molecules</title><desc>Created with Sketch.</desc><g stroke="none" stroke-width="1" fill="none" fill-rule="evenodd"><g transform="translate(0.000000, -1.000000)" fill="#000000" fill-rule="nonzero"><circle cx="6" cy="44" r="1"></circle><path d="M28.48,18.98 L27.33,20.97 C29.9795908,21.1518613 32.5923902,20.2701315 34.59,18.52 C38.0559194,15.4832887 38.9980102,10.4713309 36.8713035,6.38338142 C34.7445968,2.29543191 30.0997699,0.19000103 25.6237043,1.28501217 C21.1476387,2.38002331 17.9993414,6.39194052 18,11 C17.9926869,13.2838335 18.7772159,15.499598 20.22,17.27 L21.53,15 C22.639233,13.0896504 25.0825836,12.4330278 27,13.53 C27.7404073,13.9581411 28.3226617,14.6140543 28.66,15.4 C29.121794,16.4279052 29.1181498,17.6049738 28.65,18.63 C28.6016409,18.7505221 28.544833,18.8674795 28.48,18.98 Z M29,9 C27.3431458,9 26,7.65685425 26,6 C26,4.34314575 27.3431458,3 29,3 C30.6568542,3 32,4.34314575 32,6 C31.9950578,7.6548028 30.6548028,8.9950578 29,9 Z"></path><path d="M15.994,36.608 L26.734,18 C26.7633934,17.9506391 26.7897749,17.8995458 26.813,17.847 C27.2440494,16.9051837 26.8928915,15.7899441 26,15.265 C25.0412918,14.7165139 23.8196165,15.0448252 23.265,16 L12.183,35.2 C13.5245987,35.4476 14.8136836,35.9238612 15.994,36.608 Z"></path><path d="M44.861,41.923 C45.3210586,41.6579359 45.656837,41.2208138 45.7943329,40.7079709 C45.9318288,40.1951281 45.8597565,39.648659 45.594,39.189 L34.96,20.768 C33.8645905,21.551178 32.644287,22.1429018 31.351,22.518 L42.136,41.189 C42.7022658,42.1225199 43.9024625,42.4458023 44.861,41.923 Z"></path><circle cx="29" cy="6" r="1"></circle><path d="M19,45 C17.8954305,45 17,45.8954305 17,47 C17,48.1045695 17.8954305,49 19,49 L34.172,49 C33.9426685,47.6765278 33.9426685,46.3234722 34.172,45 L19,45 Z"></path><circle cx="43" cy="52" r="1"></circle><path d="M45.86,43.66 C44.9397065,44.1878146 43.8474269,44.3284095 42.8234684,44.050853 C41.79951,43.7732965 40.9277571,43.1003265 40.4,42.18 L39.04,39.83 C37.0960385,41.7086925 35.9988023,44.2965818 36,47 C35.9972243,47.9200867 36.1251692,48.8359024 36.38,49.72 C37.7588142,54.6146589 42.5913843,57.6951506 47.6105982,56.8788748 C52.6298122,56.062599 56.2371954,51.6095159 55.993937,46.5301813 C55.7506785,41.4508467 51.7342492,37.3628818 46.66,37.03 L47.33,38.19 C48.4269722,40.1074164 47.7703496,42.550767 45.86,43.66 Z M43,55 C41.3431458,55 40,53.6568542 40,52 C40,50.3431458 41.3431458,49 43,49 C44.6568542,49 46,50.3431458 46,52 C45.9950578,53.6548028 44.6548028,54.9950578 43,55 Z"></path><path d="M2.22044605e-16,47 C0.00556662815,51.7307728 3.32543566,55.8103942 7.95637027,56.7771864 C12.5873049,57.7439786 17.2621229,55.3333942 19.16,51 L19,51 C16.790861,51 15,49.209139 15,47 C15,44.790861 16.790861,43 19,43 L19.15,43 C17.6396208,39.5258879 14.2931666,37.2058346 10.51,37.01 C10.34,37 10.18,37 10,37 C4.48080567,37.0088096 0.00880958479,41.4808057 0,47 Z M6,41 C7.65685425,41 9,42.3431458 9,44 C9,45.6568542 7.65685425,47 6,47 C4.34314575,47 3,45.6568542 3,44 C3.0049422,42.3451972 4.3451972,41.0049422 6,41 Z"></path></g></g></svg>