<?xml version="1.0" encoding="UTF-8" standalone="no"?>
<svg
   width="752pt"
   height="752pt"
   version="1.1"
   viewBox="145 145 432 432"
   id="svg4"
   sodipodi:docname="quantum_engineering.svg"
   inkscape:version="1.1 (c68e22c387, 2021-05-23)"
   xmlns:inkscape="http://www.inkscape.org/namespaces/inkscape"
   xmlns:sodipodi="http://sodipodi.sourceforge.net/DTD/sodipodi-0.dtd"
   xmlns="http://www.w3.org/2000/svg"
   xmlns:svg="http://www.w3.org/2000/svg">
  <defs
     id="defs8" />
  <sodipodi:namedview
     id="namedview6"
     pagecolor="#ffffff"
     bordercolor="#666666"
     borderopacity="1.0"
     inkscape:pageshadow="2"
     inkscape:pageopacity="0.0"
     inkscape:pagecheckerboard="0"
     inkscape:document-units="pt"
     showgrid="false"
     inkscape:zoom="0.82180851"
     inkscape:cx="501.94175"
     inkscape:cy="501.94175"
     inkscape:window-width="1920"
     inkscape:window-height="1009"
     inkscape:window-x="-8"
     inkscape:window-y="-8"
     inkscape:window-maximized="1"
     inkscape:current-layer="svg4" />
  <path
     d="m 281.3011,286.92 c -35.945,9.918 -58.652,26.621 -58.652,46.324 0,11.434 7.668,21.848 21.098,30.523 -0.008,0.22656 -0.0312,0.45312 -0.0312,0.6875 0,7.9297 6.4258,14.355 14.355,14.355 3.6328,0 6.9414,-1.3594 9.4727,-3.5859 4.3281,1.5664 8.9336,3.0195 13.766,4.3516 -1.4219,5.4844 -2.5781,10.82 -3.4375,15.98 -4.8867,29.199 0.13281,49.73 14.137,57.816 4.0859,2.3633 8.7148,3.5273 13.781,3.5273 12.285,0 27.184,-6.8633 43.355,-20.195 4.0625,-3.3516 8.1445,-7.0547 12.215,-11.062 4.0664,4.0078 8.1484,7.7109 12.215,11.062 16.172,13.332 31.066,20.195 43.355,20.195 5.0664,0 9.6953,-1.168 13.781,-3.5273 8.957,-5.168 14.211,-15.449 15.582,-29.812 4.6797,-2.3633 7.8945,-7.2031 7.8945,-12.805 0,-6.0586 -3.7539,-11.223 -9.0625,-13.332 -0.0937,-0.625 -0.17188,-1.2305 -0.28125,-1.8672 -0.86328,-5.1562 -2.0156,-10.496 -3.4375,-15.98 35.945,-9.918 58.652,-26.621 58.652,-46.324 0,-19.707 -22.707,-36.41 -58.652,-46.324 1.4219,-5.4844 2.5781,-10.82 3.4375,-15.98 4.8867,-29.199 -0.13281,-49.73 -14.137,-57.816 -9.9102,-5.7266 -22.988,-4.3945 -37.883,3.5312 -2.1719,-1.3203 -4.7188,-2.0977 -7.4453,-2.0977 -7.9297,0 -14.355,6.4258 -14.355,14.355 0,0.96094 0.0976,1.8984 0.28125,2.8047 -3.3164,2.832 -6.6367,5.8711 -9.9492,9.1367 -4.0664,-4.0078 -8.1484,-7.7109 -12.215,-11.062 -22.844,-18.828 -43.133,-24.75 -57.137,-16.664 -14,8.0859 -19.023,28.613 -14.137,57.816 0.85938,5.1406 2.0117,10.484 3.4336,15.969 z m -9.0078,75.73 c -0.89062,-7.0742 -6.9141,-12.551 -14.227,-12.551 -2.793,0 -5.3945,0.80859 -7.5977,2.1914 -9.3516,-6.0586 -14.5,-12.668 -14.5,-19.047 0,-12.09 18.457,-25.004 49.105,-33.426 3.4922,10.836 7.918,22.07 13.188,33.426 -5.2695,11.359 -9.6992,22.59 -13.188,33.426 -4.5352,-1.2461 -8.8008,-2.5938 -12.781,-4.0195 z m 89.055,-72.117 c 8.3633,0 16.422,0.30469 24.172,0.84375 4.418,6.5508 8.7148,13.402 12.816,20.516 4.1055,7.1094 7.8906,14.254 11.355,21.359 -3.4609,7.1055 -7.25,14.246 -11.355,21.355 -4.105,7.109 -8.3984,13.961 -12.816,20.516 -7.7461,0.53906 -15.809,0.84375 -24.172,0.84375 -8.363,0 -16.422,-0.30469 -24.172,-0.84375 -4.418,-6.5508 -8.7148,-13.402 -12.82,-20.516 -4.1055,-7.1094 -7.8906,-14.25 -11.355,-21.355 3.4609,-7.1055 7.25,-14.246 11.355,-21.359 4.1055,-7.1094 8.3984,-13.961 12.82,-20.516 7.75,-0.54297 15.809,-0.84375 24.172,-0.84375 z m -14.238,-13.055 c 4.668,-6.168 9.4297,-11.957 14.242,-17.32 4.8125,5.3594 9.5742,11.152 14.242,17.32 -4.6719,-0.17188 -9.418,-0.26953 -14.246,-0.26953 -4.8242,0 -9.5703,0.0977 -14.238,0.26953 z m 62.762,27.75 c -2.4023,-4.1562 -4.8633,-8.2266 -7.3828,-12.215 7.8281,0.97656 15.23,2.2109 22.152,3.6758 -2.2383,6.8594 -4.8789,13.891 -7.8945,21.027 -2.1836,-4.168 -4.4766,-8.3359 -6.875,-12.488 z m 6.8828,43.543 c 3.0117,7.1367 5.6562,14.168 7.8945,21.027 -6.9219,1.457 -14.332,2.6953 -22.152,3.6758 2.5156,-3.9883 4.9805,-8.0547 7.3828,-12.215 2.3906,-4.1523 4.6836,-8.3203 6.875,-12.488 z m -41.164,40.238 c -4.668,6.168 -9.4297,11.957 -14.242,17.32 -4.8125,-5.3594 -9.5742,-11.152 -14.242,-17.32 4.668,0.17578 9.418,0.26953 14.242,0.26953 4.824,0 9.5742,-0.0937 14.242,-0.26953 z m -62.766,-27.754 c 2.4023,4.1562 4.8633,8.2266 7.3828,12.215 -7.8281,-0.97656 -15.23,-2.2109 -22.152,-3.6758 2.2383,-6.8594 4.8789,-13.891 7.8945,-21.027 2.1875,4.1719 4.4805,8.3398 6.875,12.488 z m 0,-56.027 c -2.3945,4.1523 -4.6875,8.3203 -6.8828,12.488 -3.0117,-7.1367 -5.6562,-14.168 -7.8945,-21.027 6.9219,-1.457 14.332,-2.6953 22.152,-3.6758 -2.5078,3.9883 -4.9766,8.0586 -7.375,12.215 z m 27.84,121.19 c -17.715,14.605 -33.414,20.363 -42,15.41 -8.5859,-4.9531 -11.445,-21.434 -7.6562,-44.082 0.80859,-4.8359 1.8945,-9.8555 3.2344,-15.012 10.965,2.3398 22.91,4.0898 35.605,5.1953 7.1875,10.219 14.691,19.652 22.316,28.078 -3.8438,3.7812 -7.6836,7.2656 -11.5,10.41 z m 91.035,-28.668 c 0.0625,0.35938 0.10547,0.70703 0.16016,1.0625 -3.8516,2.5781 -6.3867,6.957 -6.3867,11.938 0,5.4336 3.0195,10.16 7.4727,12.598 -1.0273,9.1953 -4.0508,15.684 -8.9023,18.484 -8.582,4.9531 -24.285,-0.80078 -42,-15.41 -3.8164,-3.1484 -7.6562,-6.6367 -11.488,-10.414 7.625,-8.4258 15.121,-17.859 22.316,-28.078 12.688,-1.1016 24.641,-2.8516 35.605,-5.1953 1.3281,5.1602 2.4141,10.176 3.2227,15.016 z m 55.031,-64.504 c 0,12.09 -18.457,25 -49.105,33.426 -3.4922,-10.836 -7.918,-22.07 -13.188,-33.426 5.2695,-11.359 9.6992,-22.59 13.188,-33.426 30.648,8.4219 49.105,21.336 49.105,33.426 z m -107.06,-91.164 c 1.7461,0.75781 3.6758,1.1836 5.7031,1.1836 7.9297,0 14.355,-6.4258 14.355,-14.355 0,-0.28516 -0.0234,-0.55859 -0.043,-0.83984 6.4883,-3.3867 12.328,-5.1562 17.152,-5.1562 2.75,0 5.1758,0.57422 7.2031,1.7422 8.5859,4.9531 11.445,21.434 7.6562,44.082 -0.80859,4.8359 -1.8945,9.8555 -3.2344,15.012 -10.965,-2.3398 -22.91,-4.0898 -35.605,-5.1953 -7.1875,-10.219 -14.691,-19.652 -22.316,-28.078 3.043,-2.9922 6.0898,-5.7852 9.1289,-8.3945 z m -81.012,-17.418 c 2.0273,-1.168 4.4531,-1.7422 7.2031,-1.7422 8.9062,0 21.27,5.9961 34.797,17.152 3.8164,3.1484 7.6562,6.6367 11.488,10.414 -7.625,8.4258 -15.121,17.859 -22.316,28.078 -12.688,1.1016 -24.641,2.8516 -35.605,5.1953 -1.3398,-5.1562 -2.4258,-10.176 -3.2344,-15.012 -3.7812,-22.652 -0.91797,-39.133 7.668,-44.086 z m 275.8,264.46 v 23.309 c 0,16.551 -13.418,29.969 -29.969,29.969 h -366.29 c -16.555,0 -29.969,-13.414 -29.969,-29.969 v -23.309 h 33.297 v -206.45 c 0,-14.691 11.949,-26.641 26.641,-26.641 h 54.684 c 0.23828,5.2266 0.83203,10.906 1.8711,17.105 0.15625,0.94141 0.36328,1.918 0.53906,2.875 l -57.094,0.004 c -3.6758,0 -6.6602,2.9883 -6.6602,6.6602 v 206.45 h 119.88 v 13.32 h 79.918 v -13.32 l 119.87,-0.004 v -206.45 c 0,-3.6719 -2.9883,-6.6602 -6.6602,-6.6602 l -57.09,0.004 c 0.17578,-0.95703 0.38281,-1.9258 0.53906,-2.875 1.0391,-6.1992 1.6289,-11.879 1.8711,-17.105 h 54.684 c 14.691,0 26.641,11.949 26.641,26.641 v 206.45 z m -234.89,-143.13 -5.8945,9.6094 4.7461,4.7461 9.625,-5.8945 c 2.832,1.1641 3.9102,1.6133 6.7422,2.8008 l 2.6289,10.973 h 6.7109 l 2.6289,-10.973 c 2.832,-1.1836 3.9102,-1.6328 6.7422,-2.8008 l 9.625,5.8945 4.7461,-4.7461 -5.8906,-9.6094 c 1.1641,-2.8477 1.6133,-3.9102 2.7812,-6.7578 l 10.973,-2.6133 v -6.7266 l -10.973,-2.6289 c -1.1641,-2.832 -1.6133,-3.9102 -2.7812,-6.7422 l 5.8906,-9.6094 c -2.5625,-2.582 -2.1797,-2.1836 -4.7461,-4.7578 l -9.625,5.9102 c -2.832,-1.1836 -3.9102,-1.6328 -6.7422,-2.8008 l -2.6289,-10.973 h -6.7109 l -2.6289,10.973 c -2.832,1.1641 -3.9102,1.6133 -6.7422,2.8008 l -9.625,-5.9102 c -2.5625,2.582 -2.1836,2.1836 -4.7461,4.7578 l 5.8945,9.6094 c -1.1641,2.832 -1.6133,3.9102 -2.7812,6.7422 l -10.988,2.6289 v 6.7266 l 10.988,2.6133 c 1.1641,2.8438 1.6094,3.9102 2.7812,6.7578 z m 14.812,-19.234 c 3.582,-3.582 9.4062,-3.582 12.984,0 3.582,3.582 3.582,9.3906 0,12.984 -3.582,3.582 -9.4062,3.582 -12.984,0 -3.5742,-3.5938 -3.5742,-9.4023 0,-12.984 z"
     id="path2" />
</svg>
