<?xml version="1.0" encoding="UTF-8" standalone="no"?>
<svg
   width="752pt"
   height="752pt"
   version="1.1"
   viewBox="0 0 752 752"
   id="svg22"
   sodipodi:docname="robotics.svg"
   inkscape:version="1.1 (c68e22c387, 2021-05-23)"
   xmlns:inkscape="http://www.inkscape.org/namespaces/inkscape"
   xmlns:sodipodi="http://sodipodi.sourceforge.net/DTD/sodipodi-0.dtd"
   xmlns="http://www.w3.org/2000/svg"
   xmlns:svg="http://www.w3.org/2000/svg">
  <defs
     id="defs26" />
  <sodipodi:namedview
     id="namedview24"
     pagecolor="#ffffff"
     bordercolor="#666666"
     borderopacity="1.0"
     inkscape:pageshadow="2"
     inkscape:pageopacity="0.0"
     inkscape:pagecheckerboard="0"
     inkscape:document-units="pt"
     showgrid="false"
     inkscape:zoom="0.20545213"
     inkscape:cx="2212.1942"
     inkscape:cy="630.31715"
     inkscape:window-width="1920"
     inkscape:window-height="1009"
     inkscape:window-x="-8"
     inkscape:window-y="-8"
     inkscape:window-maximized="1"
     inkscape:current-layer="svg22" />
  <g
     id="g20"
     transform="matrix(1.5421677,0,0,1.5421677,-204.60932,-205.09885)">
    <path
       d="m 546.96,405.36 h -18.469 v -14.68 c 0,-35.047 -28.414,-63.461 -63.461,-63.461 h -75.773 v -21.312 c 14.207,-5.6836 24.152,-18.941 24.152,-35.047 0,-20.836 -17.051,-37.887 -37.887,-37.887 -20.836,0 -37.887,17.051 -37.887,37.887 0,16.102 9.9453,29.836 24.152,35.047 v 21.312 h -75.773 c -35.047,0 -63.461,28.414 -63.461,63.461 v 14.68 h -18.469 c -18.941,0 -34.57,15.629 -34.57,34.57 v 48.305 c 0,18.941 15.629,34.57 34.57,34.57 h 18.469 v 14.68 c 0,35.047 28.414,63.461 63.461,63.461 h 178.54 c 35.047,0 63.461,-28.414 63.461,-63.461 v -14.676 h 18.469 c 18.941,0 34.57,-15.629 34.57,-34.57 l 0.004,-48.309 c 0.47266,-18.941 -15.156,-34.57 -34.098,-34.57 z M 376,260.45 c 5.6836,0 10.418,4.7344 10.418,10.418 0.004,5.6836 -4.7344,10.418 -10.418,10.418 -5.6836,0 -10.418,-4.7344 -10.418,-10.418 0,-5.6836 4.7383,-10.418 10.418,-10.418 z M 205.04,495.82 c -3.7891,0 -7.1055,-3.3164 -7.1055,-7.1055 v -48.777 c 0,-3.7891 3.3164,-7.1055 7.1055,-7.1055 h 18.469 v 62.984 z m 296.46,41.676 c 0,19.891 -16.102,35.992 -35.992,35.992 h -178.54 c -19.891,0 -35.992,-16.102 -35.992,-35.992 v -146.81 c 0,-19.891 16.102,-35.992 35.992,-35.992 h 178.54 c 19.891,0 35.992,16.102 35.992,35.992 z m 52.566,-49.254 c 0,3.7891 -3.3164,7.1055 -7.1055,7.1055 h -18.469 l 0.004,-62.512 h 18.469 c 3.7891,0 7.1055,3.3164 7.1055,7.1055 z"
       id="path2" />
    <path
       d="m 350.43,426.2 c 0,15.957 -12.934,28.891 -28.891,28.891 -15.953,0 -28.887,-12.934 -28.887,-28.891 0,-15.953 12.934,-28.887 28.887,-28.887 15.957,0 28.891,12.934 28.891,28.887"
       id="path4" />
    <path
       d="m 459.35,426.2 c 0,15.957 -12.934,28.891 -28.887,28.891 -15.957,0 -28.891,-12.934 -28.891,-28.891 0,-15.953 12.934,-28.887 28.891,-28.887 15.953,0 28.887,12.934 28.887,28.887"
       id="path6" />
    <path
       d="m 424.31,482.56 h -96.613 c -6.6289,0 -11.367,5.6836 -9.4727,12.312 3.7891,17.047 17.051,46.883 57.777,46.883 40.726,0 53.988,-29.363 58.25,-46.883 1.4219,-6.1562 -3.3125,-12.312 -9.9414,-12.312 z"
       id="path8" />
    <path
       d="m 376,212.14 c 7.5781,0 13.734,-6.1562 13.734,-13.734 v -33.621 c 0,-7.5781 -6.1562,-13.734 -13.734,-13.734 -7.5778,0 -13.734,6.1562 -13.734,13.734 v 33.625 c 0,7.5742 6.1602,13.73 13.734,13.73 z"
       id="path10" />
    <path
       d="m 314.91,229.19 c 2.8398,2.8398 6.1562,3.7891 9.4727,3.7891 3.3164,0 7.1055,-1.4219 9.4727,-3.7891 5.2109,-5.2109 5.2109,-14.207 0,-19.418 l -23.68,-23.68 c -5.2109,-5.2109 -14.207,-5.2109 -19.418,0 -5.2109,5.2109 -5.2109,14.207 0,19.418 z"
       id="path12" />
    <path
       d="m 269.92,284.6 h 33.625 c 7.5781,0 13.734,-6.1562 13.734,-13.734 0,-7.5781 -6.1562,-13.734 -13.734,-13.734 H 269.92 c -7.5781,0 -13.734,6.1562 -13.734,13.734 0,7.5781 6.1602,13.734 13.734,13.734 z"
       id="path14" />
    <path
       d="m 434.73,270.87 c 0,7.5781 6.1562,13.734 13.734,13.734 h 33.625 c 7.5781,0 13.734,-6.1562 13.734,-13.734 0,-7.5781 -6.1562,-13.734 -13.734,-13.734 h -33.625 c -7.5781,0 -13.734,6.1562 -13.734,13.734 z"
       id="path16" />
    <path
       d="m 427.15,232.98 c 3.3164,0 7.1055,-1.4219 9.4727,-3.7891 l 23.68,-23.68 c 5.2109,-5.2109 5.2109,-14.207 0,-19.418 -5.2109,-5.2109 -14.207,-5.2109 -19.418,0 l -23.68,23.68 c -5.2109,5.2109 -5.2109,14.207 0,19.418 2.8398,2.8398 6.6289,3.7891 9.9453,3.7891 z"
       id="path18" />
  </g>
</svg>
