<svg xmlns="http://www.w3.org/2000/svg" xmlns:xlink="http://www.w3.org/1999/xlink" version="1.1" x="0px" y="0px" viewBox="0 0 64 80" enable-background="new 0 0 64 64" xml:space="preserve"><path fill-rule="evenodd" clip-rule="evenodd" d="M28.6,21.3l3.1-3.1l-0.9-0.9h2.1c0.5,0,0.9-0.4,0.9-0.9c0-0.5-0.4-0.9-0.9-0.9  h-3.9h-1h-1.4c-0.5,0-0.9-0.4-0.9-0.9s0.4-0.9,0.9-0.9h0.6h2.2c0.5,0,0.9-0.4,0.9-0.9s-0.4-0.9-0.9-0.9h-4.1l-1.3-1.3l-3.1,3.1  L28.6,21.3L28.6,21.3z M15.3,37c-0.5,0-0.9-0.4-0.9-0.9c0-0.5,0.4-0.9,0.9-0.9h2.8c2.7-1.7,6.1-1.5,8.7,0.4l1.8-1.8l-1.3-1.3h-3.6  c-0.5,0-0.9-0.4-0.9-0.9s0.4-0.9,0.9-0.9h1.9h2.9c0.5,0,0.9-0.4,0.9-0.9c0-0.5-0.4-0.9-0.9-0.9h-1.1h-0.5c-0.5,0-0.9-0.4-0.9-0.9  c0-0.5,0.4-0.9,0.9-0.9h2.3l0.9-0.9l-1.5-1.5l1.5-1.5l1.5,1.5l3.1-3.1l7.7,7.7l-3.1,3.1l1.5,1.5l-1.5,1.5l-1.5-1.5l-4.6,4.6  l-3.1-3.1l-1.8,1.8c0.9,1.2,1.4,2.5,1.5,3.9h5.7c0.5,0,0.9,0.4,0.9,0.9c0,0.5-0.4,0.9-0.9,0.9h-5.8h-2.3c-0.5,0-0.9,0.4-0.9,0.9  c0,0.5,0.4,0.9,0.9,0.9h1.8h3.7c0.5,0,0.9,0.4,0.9,0.9c0,0.5-0.4,0.9-0.9,0.9h-4.8c-0.2,0.2-0.3,0.4-0.5,0.6l-0.8,0.8l-4.6-4.6  l-4.6,4.6L16,46.3l4.6-4.6l-1-1h-7c-0.5,0-0.9-0.4-0.9-0.9c0-0.5,0.4-0.9,0.9-0.9h5.1h2.9c0.5,0,0.9-0.4,0.9-0.9  c0-0.5-0.4-0.9-0.9-0.9H16H15.3L15.3,37z M48.4,16.1h-3.4l-1-1L41,18.2l-1.5-1.5l-3.1,3.1l7.7,7.7l3.1-3.1l-1.5-1.5l1.3-1.3  c0,0,0.1,0,0.1,0h5c0.5,0,0.9-0.4,0.9-0.9s-0.4-0.9-0.9-0.9h-3.2H47h-1.4c-0.5,0-0.9-0.4-0.9-0.9c0-0.5,0.4-0.9,0.9-0.9h1.3h1.5  c0.5,0,0.9-0.4,0.9-0.9S48.9,16.1,48.4,16.1L48.4,16.1z M52.4,16.1c0.5,0,0.9,0.4,0.9,0.9s-0.4,0.9-0.9,0.9H51  c-0.5,0-0.9-0.4-0.9-0.9s0.4-0.9,0.9-0.9H52.4L52.4,16.1z M36.9,44.6h-1.4c-0.5,0-0.9,0.4-0.9,0.9c0,0.5,0.4,0.9,0.9,0.9h1.4  c0.5,0,0.9-0.4,0.9-0.9C37.9,45.1,37.5,44.6,36.9,44.6L36.9,44.6z M33.3,11.7c0.5,0,0.9,0.4,0.9,0.9s-0.4,0.9-0.9,0.9h-1.4  c-0.5,0-0.9-0.4-0.9-0.9s0.4-0.9,0.9-0.9H33.3L33.3,11.7z M45.6,47.6l3.1-3.1L41,36.8l-3.1,3.1L45.6,47.6L45.6,47.6z M50.3,43  l3.1-3.1l-7.7-7.7l-3.1,3.1L50.3,43L50.3,43z M23.9,25.9l-7.7-7.7l3.1-3.1l7.7,7.7L23.9,25.9z"/><path fill-rule="evenodd" clip-rule="evenodd" d="M57.7,11.1c0,0.3,0.2,0.5,0.5,0.5c0.3,0,0.5-0.2,0.5-0.5v-0.8  c0-0.3-0.2-0.5-0.5-0.5c-0.3,0-0.5,0.2-0.5,0.5V11.1L57.7,11.1z M57.2,9.8c0.3,0,0.5-0.2,0.5-0.5c0-0.3-0.2-0.5-0.5-0.5h-0.9  c-0.3,0-0.5,0.2-0.5,0.5c0,0.3,0.2,0.5,0.5,0.5H57.2L57.2,9.8z M57.7,8.3c0,0.3,0.2,0.5,0.5,0.5c0.3,0,0.5-0.2,0.5-0.5V7.5  c0-0.3-0.2-0.5-0.5-0.5c-0.3,0-0.5,0.2-0.5,0.5V8.3L57.7,8.3z M60,9.8c0.3,0,0.5-0.2,0.5-0.5c0-0.3-0.2-0.5-0.5-0.5h-0.8  c-0.3,0-0.5,0.2-0.5,0.5c0,0.3,0.2,0.5,0.5,0.5H60z"/><path fill-rule="evenodd" clip-rule="evenodd" d="M61.8,47.1c0.1-0.1,0.3-0.2,0.5-0.2c0.2,0,0.4,0.1,0.5,0.2  c0.1,0.1,0.2,0.3,0.2,0.5c0,0.2-0.1,0.4-0.2,0.5c-0.1,0.1-0.3,0.2-0.5,0.2c-0.2,0-0.4-0.1-0.5-0.2c-0.1-0.1-0.2-0.3-0.2-0.5  C61.6,47.4,61.7,47.2,61.8,47.1L61.8,47.1z M62.3,45.9c-0.5,0-0.9,0.2-1.2,0.5s-0.5,0.7-0.5,1.2c0,0.5,0.2,0.9,0.5,1.2  s0.7,0.5,1.2,0.5c0.5,0,0.9-0.2,1.2-0.5S64,48,64,47.6c0-0.5-0.2-0.9-0.5-1.2S62.8,45.9,62.3,45.9z"/><path fill-rule="evenodd" clip-rule="evenodd" d="M2.5,20.9c0,0.3,0.3,0.6,0.6,0.6c0.3,0,0.6-0.3,0.6-0.6v-1.2  c0-0.3-0.3-0.6-0.6-0.6c-0.3,0-0.6,0.3-0.6,0.6V20.9L2.5,20.9z M1.8,19c0.3,0,0.6-0.3,0.6-0.6s-0.3-0.6-0.6-0.6H0.6  C0.3,17.8,0,18,0,18.4S0.3,19,0.6,19H1.8L1.8,19z M2.5,17c0,0.3,0.3,0.6,0.6,0.6c0.3,0,0.6-0.3,0.6-0.6v-1.2c0-0.3-0.3-0.6-0.6-0.6  c-0.3,0-0.6,0.3-0.6,0.6V17L2.5,17z M5.6,19c0.3,0,0.6-0.3,0.6-0.6S6,17.8,5.6,17.8H4.5c-0.3,0-0.6,0.3-0.6,0.6S4.1,19,4.5,19H5.6z"/><path fill-rule="evenodd" clip-rule="evenodd" d="M22.9,61c0.2-0.2,0.4-0.3,0.7-0.3c0.3,0,0.5,0.1,0.7,0.3s0.3,0.4,0.3,0.7  c0,0.3-0.1,0.5-0.3,0.7c-0.2,0.2-0.4,0.3-0.7,0.3c-0.3,0-0.5-0.1-0.7-0.3c-0.2-0.2-0.3-0.4-0.3-0.7C22.6,61.5,22.8,61.2,22.9,61  L22.9,61z M23.7,59.5c-0.6,0-1.2,0.3-1.6,0.7c-0.4,0.4-0.7,1-0.7,1.6s0.3,1.2,0.7,1.6c0.4,0.4,1,0.7,1.6,0.7c0.6,0,1.2-0.3,1.6-0.7  c0.4-0.4,0.7-1,0.7-1.6s-0.3-1.2-0.7-1.6S24.3,59.5,23.7,59.5z"/><path fill-rule="evenodd" clip-rule="evenodd" d="M4.9,48.3c0,0.3,0.2,0.5,0.5,0.5s0.5-0.2,0.5-0.5v-0.8c0-0.3-0.2-0.5-0.5-0.5  s-0.5,0.2-0.5,0.5V48.3L4.9,48.3z M4.4,46.9c0.3,0,0.5-0.2,0.5-0.5S4.6,46,4.4,46H3.5C3.3,46,3,46.2,3,46.5s0.2,0.5,0.5,0.5H4.4  L4.4,46.9z M4.9,45.5c0,0.3,0.2,0.5,0.5,0.5s0.5-0.2,0.5-0.5v-0.8c0-0.3-0.2-0.5-0.5-0.5s-0.5,0.2-0.5,0.5V45.5L4.9,45.5z M7.2,46.9  c0.3,0,0.5-0.2,0.5-0.5S7.4,46,7.2,46H6.3c-0.3,0-0.5,0.2-0.5,0.5s0.2,0.5,0.5,0.5H7.2z"/><path fill-rule="evenodd" clip-rule="evenodd" d="M42.3,60.1c0,0.3,0.3,0.6,0.6,0.6c0.3,0,0.6-0.3,0.6-0.6v-1.2  c0-0.3-0.3-0.6-0.6-0.6c-0.3,0-0.6,0.3-0.6,0.6V60.1L42.3,60.1z M41.6,58.2c0.3,0,0.6-0.3,0.6-0.6c0-0.3-0.3-0.6-0.6-0.6h-1.2  c-0.3,0-0.6,0.3-0.6,0.6c0,0.3,0.3,0.6,0.6,0.6H41.6L41.6,58.2z M42.3,56.3c0,0.3,0.3,0.6,0.6,0.6c0.3,0,0.6-0.3,0.6-0.6v-1.2  c0-0.3-0.3-0.6-0.6-0.6c-0.3,0-0.6,0.3-0.6,0.6V56.3L42.3,56.3z M45.4,58.2c0.3,0,0.6-0.3,0.6-0.6c0-0.3-0.3-0.6-0.6-0.6h-1.2  c-0.3,0-0.6,0.3-0.6,0.6c0,0.3,0.3,0.6,0.6,0.6H45.4z"/><path fill-rule="evenodd" clip-rule="evenodd" d="M45.4,1.5c0.2-0.2,0.4-0.3,0.7-0.3c0.3,0,0.5,0.1,0.7,0.3c0.2,0.2,0.3,0.4,0.3,0.7  c0,0.3-0.1,0.5-0.3,0.7c-0.2,0.2-0.4,0.3-0.7,0.3c-0.3,0-0.5-0.1-0.7-0.3c-0.2-0.2-0.3-0.4-0.3-0.7C45.1,2,45.2,1.7,45.4,1.5  L45.4,1.5z M46.2,0c-0.6,0-1.2,0.3-1.6,0.7c-0.4,0.4-0.7,1-0.7,1.6s0.3,1.2,0.7,1.6s1,0.7,1.6,0.7c0.6,0,1.2-0.3,1.6-0.7  c0.4-0.4,0.7-1,0.7-1.6s-0.3-1.2-0.7-1.6C47.3,0.3,46.8,0,46.2,0z"/><path fill-rule="evenodd" clip-rule="evenodd" d="M13.6,3.7c0.1-0.1,0.3-0.2,0.5-0.2c0.2,0,0.4,0.1,0.5,0.2c0.1,0.1,0.2,0.3,0.2,0.5  c0,0.2-0.1,0.4-0.2,0.5C14.5,4.9,14.3,5,14.1,5c-0.2,0-0.4-0.1-0.5-0.2c-0.1-0.1-0.2-0.3-0.2-0.5C13.4,4,13.4,3.9,13.6,3.7L13.6,3.7  z M14.1,2.6c-0.5,0-0.9,0.2-1.2,0.5s-0.5,0.7-0.5,1.2c0,0.5,0.2,0.9,0.5,1.2s0.7,0.5,1.2,0.5c0.5,0,0.9-0.2,1.2-0.5s0.5-0.7,0.5-1.2  c0-0.5-0.2-0.9-0.5-1.2S14.6,2.6,14.1,2.6z"/><text x="0" y="79" fill="#000000" font-size="5px" font-weight="bold" font-family="'Helvetica Neue', Helvetica, Arial-Unicode, Arial, Sans-serif">Created by Rendy Wardana</text><text x="0" y="84" fill="#000000" font-size="5px" font-weight="bold" font-family="'Helvetica Neue', Helvetica, Arial-Unicode, Arial, Sans-serif">from the Noun Project</text></svg>